SplineFontDB: 3.0
FontName: DraftingMono-Italic
FullName: Drafting Mono
FamilyName: Drafting Mono
Weight: Regular
Copyright: Copyright (c) 2020, Owen Earl,,,
UComments: "2020-4-23: Created with FontForge (http://fontforge.org)"
Version: 001.000
ItalicAngle: -10
UnderlinePosition: -200
UnderlineWidth: 100
Ascent: 1600
Descent: 400
InvalidEm: 0
LayerCount: 2
Layer: 0 0 "Back" 1
Layer: 1 0 "Fore" 0
XUID: [1021 573 -282620711 7962162]
StyleMap: 0x0000
FSType: 0
OS2Version: 0
OS2_WeightWidthSlopeOnly: 0
OS2_UseTypoMetrics: 1
CreationTime: 1587664909
ModificationTime: 1635868142
PfmFamily: 17
TTFWeight: 100
TTFWidth: 5
LineGap: 180
VLineGap: 0
OS2TypoAscent: 0
OS2TypoAOffset: 1
OS2TypoDescent: 0
OS2TypoDOffset: 1
OS2TypoLinegap: 180
OS2WinAscent: 0
OS2WinAOffset: 1
OS2WinDescent: 0
OS2WinDOffset: 1
HheadAscent: 0
HheadAOffset: 1
HheadDescent: 0
HheadDOffset: 1
OS2Vendor: 'it* '
Lookup: 1 0 0 "'ss02' Style Set 2 lookup 6" { "'ss02' Style Set 2 lookup 6-1"  } ['ss02' ('DFLT' <'dflt' > 'grek' <'dflt' > 'latn' <'dflt' > ) ]
Lookup: 1 0 0 "'smcp' Lowercase to Small Capitals in Latin lookup 0" { "'smcp' Lowercase to Small Capitals in Latin lookup 0 subtable"  } ['smcp' ('latn' <'dflt' > ) ]
Lookup: 1 0 0 "'c2sc' Capitals to Small Capitals in Latin lookup 0" { "'c2sc' Capitals to Small Capitals in Latin lookup 0 subtable"  } ['c2sc' ('latn' <'dflt' > ) ]
Lookup: 1 0 0 "'ss01' Style Set 1 in Latin lookup 0" { "'ss01' Style Set 1 in Latin lookup 0-1"  } ['ss01' ('DFLT' <'dflt' > 'latn' <'dflt' > ) ]
Lookup: 6 0 0 "'calt' Contextual Alternates in Latin lookup 1" { "'calt' Contextual Alternates in Latin lookup 1-1"  } ['calt' ('DFLT' <'dflt' > 'latn' <'dflt' > ) ]
MarkAttachClasses: 1
DEI: 91125
ChainSub2: class "'calt' Contextual Alternates in Latin lookup 1-1" 4 4 4 2
  Class: 25 H J K M N T U V W X Y d f
  Class: 1 b
  Class: 1 h
  BClass: 25 H J K M N T U V W X Y d f
  BClass: 1 b
  BClass: 1 h
  FClass: 25 H J K M N T U V W X Y d f
  FClass: 1 b
  FClass: 1 h
 1 1 0

StartChar: A
Encoding: 65 65 0
Width: 1200
Flags: HMW
AnchorPoint: "Anchor-0" 748.225 1300 basechar 0
AnchorPoint: "Anchor-2" 519 0 basechar 0
AnchorPoint: "Anchor-3" 965.474 -20 basechar 0
LayerCount: 2
Back
SplineSet
329 130 m 1
 479 130 l 1
 479 0 l 1
 30 0 l 1
 30 130 l 1
 177 130 l 1
 510 1320 l 1
 690 1320 l 1
 1023 130 l 1
 1170 130 l 1
 1170 0 l 1
 721 0 l 1
 721 130 l 1
 871 130 l 1
 580 1250 l 1
 620 1250 l 1
 329 130 l 1
349 500 m 1
 852 500 l 1
 852 370 l 1
 349 370 l 1
 349 500 l 1
EndSplineSet
Fore
SplineSet
380.224609375 1300 m 1
 719.224609375 1300 l 1
 715.698242188 1280 l 1
 374.935546875 1270 l 1
 380.224609375 1300 l 1
39.4736328125 -20 m 1
 3.4736328125 -20 l 1
 719.224609375 1300 l 1
 839.224609375 1300 l 1
 1029.47363281 -20 l 1
 993.473632812 -20 l 1
 808.935546875 1270 l 1
 738.935546875 1270 l 1
 39.4736328125 -20 l 1
297.163085938 500 m 1
 950.163085938 500 l 5
 944.874023438 470 l 5
 291.874023438 470 l 1
 297.163085938 500 l 1
EndSplineSet
Substitution2: "'c2sc' Capitals to Small Capitals in Latin lookup 0 subtable" a.sc
EndChar

StartChar: B
Encoding: 66 66 1
Width: 1200
Flags: HMW
AnchorPoint: "Anchor-2" 506 0 basechar 0
AnchorPoint: "Anchor-0" 663.225 1300 basechar 0
LayerCount: 2
Fore
SplineSet
427.935546875 1270 m 1
 223.935546875 1270 l 1
 229.224609375 1300 l 1
 721.224609375 1300 l 2
 1027.22460938 1300 1161.88671875 1196 1125.56347656 990 c 0
 1083.95019531 754 868.020507812 675 661.020507812 675 c 5
 682.784179688 685 l 5
 988.784179688 685 1124.32714844 586 1082.71484375 350 c 0
 1044.62792969 134 849 0 562 0 c 2
 0 0 l 1
 5.2900390625 30 l 1
 209.290039062 30 l 1
 427.935546875 1270 l 1
244.290039062 30 m 1
 567.290039062 30 l 2
 835.290039062 30 1011.91992188 147 1047.71484375 350 c 0
 1085.27246094 563 966.375976562 660 678.375976562 660 c 2
 355.375976562 660 l 1
 244.290039062 30 l 1
613.666015625 690 m 2
 861.666015625 690 1052.83007812 776 1090.56347656 990 c 0
 1124.41894531 1182 1000.93554688 1270 715.935546875 1270 c 2
 462.935546875 1270 l 1
 360.666015625 690 l 1
 613.666015625 690 l 2
EndSplineSet
Substitution2: "'c2sc' Capitals to Small Capitals in Latin lookup 0 subtable" b.sc
EndChar

StartChar: C
Encoding: 67 67 2
Width: 1200
Flags: HMW
AnchorPoint: "Anchor-3" 526 0 basechar 0
AnchorPoint: "Anchor-2" 527 0 basechar 0
AnchorPoint: "Anchor-0" 795.225 1300 basechar 0
LayerCount: 2
Fore
SplineSet
1029.47753906 360 m 1
 1059.71484375 350 l 1
 929.864257812 124 741.473632812 -20 515.473632812 -20 c 0
 219.473632812 -20 77.734375 214 154.612304688 650 c 0
 229.727539062 1076 474.751953125 1320 751.751953125 1320 c 0
 1008.75195312 1320 1115.49121094 1086 1109.16796875 880 c 1
 1099.16796875 880 l 1
 1181.22460938 1300 l 1
 1206.22460938 1300 l 1
 1130.40429688 870 l 1
 1081.40429688 870 l 1
 1078.72558594 1093 974.461914062 1290 746.461914062 1290 c 0
 488.461914062 1290 262.435546875 1063 189.612304688 650 c 0
 115.026367188 227 252.763671875 10 520.763671875 10 c 0
 717.763671875 10 899.98046875 136 1029.47753906 360 c 1
EndSplineSet
Substitution2: "'c2sc' Capitals to Small Capitals in Latin lookup 0 subtable" c.sc
EndChar

StartChar: D
Encoding: 68 68 3
Width: 1200
Flags: HMW
AnchorPoint: "Anchor-2" 433 0 basechar 0
AnchorPoint: "Anchor-0" 663.225 1300 basechar 0
LayerCount: 2
Fore
SplineSet
-40 0 m 1
 -34.7099609375 30 l 1
 135.290039062 30 l 1
 353.935546875 1270 l 1
 183.935546875 1270 l 1
 189.224609375 1300 l 1
 651.224609375 1300 l 6
 1077.22460938 1300 1201.91113281 1026 1135.61230469 650 c 4
 1071.07714844 284 829 -0 422 0 c 6
 -40 0 l 1
170.290039062 30 m 1
 427.290039062 30 l 6
 830.290039062 30 1041.89550781 317 1100.61230469 650 c 0
 1161.09277344 993 1068.93554688 1270 645.935546875 1270 c 6
 388.935546875 1270 l 1
 170.290039062 30 l 1
EndSplineSet
Substitution2: "'c2sc' Capitals to Small Capitals in Latin lookup 0 subtable" d.sc
EndChar

StartChar: E
Encoding: 69 69 4
Width: 1200
Flags: HMW
AnchorPoint: "Anchor-3" 876 0 basechar 0
AnchorPoint: "Anchor-2" 466 0 basechar 0
AnchorPoint: "Anchor-0" 723.225 1300 basechar 0
LayerCount: 2
Fore
SplineSet
822.666015625 690 m 1
 816.494140625 655 l 1
 345.375976562 660 l 5
 234.290039062 30 l 5
 950.290039062 30 l 1
 1040.34667969 450 l 1
 1059.34667969 450 l 1
 980 0 l 1
 -10 0 l 1
 -4.7099609375 30 l 1
 199.290039062 30 l 5
 417.935546875 1270 l 5
 213.935546875 1270 l 1
 219.224609375 1300 l 1
 1169.22460938 1300 l 1
 1138.69433594 900 l 1
 1119.69433594 900 l 1
 1129.93554688 1270 l 1
 452.935546875 1270 l 5
 349.784179688 685 l 5
 822.666015625 690 l 1
EndSplineSet
Substitution2: "'c2sc' Capitals to Small Capitals in Latin lookup 0 subtable" e.sc
EndChar

StartChar: F
Encoding: 70 70 5
Width: 1200
Flags: HMW
AnchorPoint: "Anchor-2" 296 0 basechar 0
AnchorPoint: "Anchor-0" 753.225 1300 basechar 0
LayerCount: 2
Fore
SplineSet
854.428710938 700 m 1
 848.2578125 665 l 1
 368.020507812 675 l 1
 254.290039062 30 l 1
 624.290039062 30 l 1
 619 0 l 1
 20 0 l 1
 25.2900390625 30 l 1
 219.290039062 30 l 1
 437.935546875 1270 l 1
 243.935546875 1270 l 1
 249.224609375 1300 l 1
 1199.22460938 1300 l 1
 1161.64160156 860 l 1
 1142.64160156 860 l 5
 1165.93554688 1270 l 1
 472.935546875 1270 l 1
 372.428710938 700 l 1
 854.428710938 700 l 1
EndSplineSet
Substitution2: "'c2sc' Capitals to Small Capitals in Latin lookup 0 subtable" f.sc
EndChar

StartChar: G
Encoding: 71 71 6
Width: 1200
Flags: HMW
AnchorPoint: "Anchor-2" 557 0 basechar 0
AnchorPoint: "Anchor-0" 835.225 1300 basechar 0
LayerCount: 2
Fore
SplineSet
1022.03320312 590 m 1
 1047.03320312 590 l 5
 996.603515625 304 800.473632812 -20 495.473632812 -20 c 4
 199.473632812 -20 57.734375 214 134.612304688 650 c 0
 209.727539062 1076 454.751953125 1320 731.751953125 1320 c 0
 988.751953125 1320 1095.49121094 1086 1089.16796875 880 c 1
 1079.16796875 880 l 1
 1161.22460938 1300 l 1
 1186.22460938 1300 l 1
 1110.40429688 870 l 1
 1061.40429688 870 l 1
 1060.72558594 1093 954.461914062 1290 726.461914062 1290 c 0
 468.461914062 1290 242.435546875 1063 169.612304688 650 c 0
 95.0263671875 227 232.763671875 10 500.763671875 10 c 0
 768.763671875 10 971.956054688 306 1022.03320312 590 c 1
626.322265625 620 m 1
 1066.32226562 620 l 1
 957 0 l 1
 937 0 l 1
 1022.03320312 590 l 1
 621.033203125 590 l 1
 626.322265625 620 l 1
EndSplineSet
Substitution2: "'c2sc' Capitals to Small Capitals in Latin lookup 0 subtable" g.sc
EndChar

StartChar: H
Encoding: 72 72 7
Width: 1200
Flags: HMW
AnchorPoint: "Anchor-2" 516 0 basechar 0
AnchorPoint: "Anchor-0" 745.225 1300 basechar 0
LayerCount: 2
Fore
SplineSet
962.375976562 660 m 1
 310.375976562 660 l 1
 199.290039062 30 l 1
 433.290039062 30 l 1
 428 0 l 1
 -40 0 l 1
 -34.7099609375 30 l 1
 164.290039062 30 l 5
 382.935546875 1270 l 5
 183.935546875 1270 l 1
 189.224609375 1300 l 1
 657.224609375 1300 l 1
 651.935546875 1270 l 1
 417.935546875 1270 l 1
 315.666015625 690 l 1
 967.666015625 690 l 1
 1069.93554688 1270 l 1
 835.935546875 1270 l 1
 841.224609375 1300 l 1
 1309.22460938 1300 l 1
 1303.93554688 1270 l 1
 1104.93554688 1270 l 1
 886.290039062 30 l 1
 1085.29003906 30 l 1
 1080 0 l 1
 612 0 l 1
 617.290039062 30 l 1
 851.290039062 30 l 1
 962.375976562 660 l 1
EndSplineSet
Substitution2: "'c2sc' Capitals to Small Capitals in Latin lookup 0 subtable" h.sc
EndChar

StartChar: I
Encoding: 73 73 8
Width: 1200
Flags: HMW
AnchorPoint: "Anchor-3" 522 0 basechar 0
AnchorPoint: "Anchor-2" 522 0 basechar 0
AnchorPoint: "Anchor-0" 735.225 1300 basechar 0
LayerCount: 2
Fore
SplineSet
70 0 m 1
 75.2900390625 30 l 1
 506.290039062 30 l 5
 724.935546875 1270 l 5
 303.935546875 1270 l 1
 309.224609375 1300 l 1
 1189.22460938 1300 l 1
 1183.93554688 1270 l 1
 761.935546875 1270 l 5
 543.290039062 30 l 5
 975.290039062 30 l 1
 970 0 l 1
 70 0 l 1
EndSplineSet
Substitution2: "'c2sc' Capitals to Small Capitals in Latin lookup 0 subtable" i.sc
EndChar

StartChar: J
Encoding: 74 74 9
Width: 1200
Flags: HMW
AnchorPoint: "Anchor-2" 418 0 basechar 0
AnchorPoint: "Anchor-0" 915.225 1300 basechar 0
LayerCount: 2
Fore
SplineSet
81.71484375 350 m 1
 108.71484375 350 l 1
 94.68359375 157 192.763671875 10 420.763671875 10 c 0
 668.763671875 10 819.458984375 197 860.8203125 430 c 2
 1009.93554688 1270 l 1
 664.935546875 1270 l 5
 670.224609375 1300 l 5
 1259.22460938 1300 l 1
 1253.93554688 1270 l 1
 1043.93554688 1270 l 1
 894.8203125 430 l 2
 849.680664062 174 681.473632812 -20 415.473632812 -20 c 0
 169.473632812 -20 55.390625 144 81.71484375 350 c 1
EndSplineSet
Substitution2: "'c2sc' Capitals to Small Capitals in Latin lookup 0 subtable" j.sc
EndChar

StartChar: K
Encoding: 75 75 10
Width: 1200
Flags: HMW
AnchorPoint: "Anchor-2" 581 0 basechar 0
AnchorPoint: "Anchor-0" 775 1300 basechar 0
LayerCount: 2
Back
SplineSet
810.224609375 1300 m 5
 1289.22460938 1300 l 5
 1283.93554688 1270 l 5
 1056.93554688 1270 l 5
 620.825195312 810 l 5
 945.290039062 30 l 5
 1105.29003906 30 l 5
 1100 0 l 5
 631 0 l 5
 636.290039062 30 l 5
 908.290039062 30 l 5
 595.122070312 789 l 5
 300.87109375 487 l 5
 220.290039062 30 l 5
 454.290039062 30 l 5
 449 0 l 5
 -10 0 l 5
 -4.7099609375 30 l 5
 185.290039062 30 l 5
 403.935546875 1270 l 5
 213.935546875 1270 l 5
 219.224609375 1300 l 5
 658.224609375 1300 l 5
 652.935546875 1270 l 5
 438.935546875 1270 l 5
 309.158203125 534 l 5
 1020.93554688 1270 l 5
 804.935546875 1270 l 5
 810.224609375 1300 l 5
EndSplineSet
Fore
SplineSet
590 806 m 1
 613 830 l 1
 946 30 l 1
 1105 30 l 1
 1100 0 l 1
 631 0 l 1
 636 30 l 1
 908 30 l 1
 590 806 l 1
810 1300 m 1
 1289 1300 l 1
 1284 1270 l 1
 1064 1270 l 1
 300 484 l 1
 220 30 l 1
 454 30 l 1
 449 0 l 1
 -10 0 l 1
 -5 30 l 1
 185 30 l 1
 404 1270 l 1
 214 1270 l 1
 219 1300 l 1
 658 1300 l 1
 653 1270 l 1
 439 1270 l 1
 310 536 l 1
 1018 1270 l 5
 805 1270 l 1
 810 1300 l 1
EndSplineSet
Substitution2: "'c2sc' Capitals to Small Capitals in Latin lookup 0 subtable" k.sc
EndChar

StartChar: L
Encoding: 76 76 11
Width: 1200
Flags: HMW
AnchorPoint: "Anchor-2" 536 0 basechar 0
AnchorPoint: "Anchor-1" 875.276 943 basechar 0
AnchorPoint: "Anchor-0" 493.225 1300 basechar 0
LayerCount: 2
Fore
SplineSet
1097.97949219 550 m 1
 1116.97949219 550 l 1
 1000 0 l 1
 -10 0 l 1
 -4.7099609375 30 l 1
 205.290039062 30 l 5
 423.935546875 1270 l 5
 233.935546875 1270 l 1
 239.224609375 1300 l 1
 768.224609375 1300 l 1
 762.935546875 1270 l 1
 458.935546875 1270 l 5
 240.290039062 30 l 5
 970.290039062 30 l 1
 1097.97949219 550 l 1
EndSplineSet
Substitution2: "'c2sc' Capitals to Small Capitals in Latin lookup 0 subtable" l.sc
EndChar

StartChar: M
Encoding: 77 77 12
Width: 1200
Flags: HMW
AnchorPoint: "Anchor-2" 526 0 basechar 0
AnchorPoint: "Anchor-0" 755.225 1300 basechar 0
LayerCount: 2
Back
SplineSet
158 1170 m 1
 0 1170 l 1
 0 1300 l 1
 383 1300 l 1
 645 480 l 1
 555 480 l 1
 817 1300 l 1
 1200 1300 l 1
 1200 1170 l 1
 1042 1170 l 1
 1058 130 l 1
 1200 130 l 1
 1200 0 l 1
 761 0 l 1
 761 130 l 1
 914 130 l 1
 899 724 l 1
 934 1204 l 1
 630 350 l 1
 570 350 l 1
 266 1204 l 1
 301 724 l 1
 286 130 l 1
 439 130 l 1
 439 0 l 1
 0 0 l 1
 0 130 l 1
 142 130 l 1
 158 1170 l 1
EndSplineSet
Fore
SplineSet
301.935546875 1270 m 1
 143.935546875 1270 l 1
 149.224609375 1300 l 1
 362.224609375 1300 l 1
 593.767578125 390 l 5
 584.767578125 390 l 5
 1136.22460938 1300 l 1
 1349.22460938 1300 l 1
 1343.93554688 1270 l 1
 1185.93554688 1270 l 1
 983.290039062 30 l 1
 1125.29003906 30 l 1
 1120 0 l 1
 651 0 l 1
 656.290039062 30 l 1
 948.290039062 30 l 1
 1061.66113281 724 l 1
 1163.40429688 1284 l 1
 596.71484375 350 l 1
 567.71484375 350 l 1
 327.404296875 1284 l 1
 233.661132812 724 l 1
 102.290039062 30 l 1
 394.290039062 30 l 1
 389 0 l 1
 -80 0 l 1
 -74.7099609375 30 l 1
 67.2900390625 30 l 1
 301.935546875 1270 l 1
EndSplineSet
Substitution2: "'c2sc' Capitals to Small Capitals in Latin lookup 0 subtable" m.sc
EndChar

StartChar: N
Encoding: 78 78 13
Width: 1200
Flags: HMW
AnchorPoint: "Anchor-2" 546 0 basechar 0
AnchorPoint: "Anchor-0" 785.225 1300 basechar 0
LayerCount: 2
Fore
SplineSet
363.935546875 1270 m 1
 205.935546875 1270 l 1
 211.224609375 1300 l 1
 369.224609375 1300 l 1
 363.935546875 1270 l 1
369.224609375 1300 m 1
 414.224609375 1300 l 1
 959.055664062 23 l 1
 1187.75195312 1320 l 1
 1222.75195312 1320 l 1
 986.473632812 -20 l 1
 934.473632812 -20 l 5
 506.03515625 987 l 1
 388.404296875 1284 l 1
 350.797851562 997 l 1
 171.473632812 -20 l 1
 136.473632812 -20 l 1
 369.224609375 1300 l 1
EndSplineSet
Substitution2: "'c2sc' Capitals to Small Capitals in Latin lookup 0 subtable" n.sc
EndChar

StartChar: O
Encoding: 79 79 14
Width: 1200
Flags: HMW
AnchorPoint: "Anchor-2" 519 0 basechar 0
AnchorPoint: "Anchor-0" 748.225 1300 basechar 0
LayerCount: 2
Fore
SplineSet
515.473632812 -20 m 4
 199.473632812 -20 57.734375 214 134.612304688 650 c 4
 209.727539062 1076 454.751953125 1320 751.751953125 1320 c 4
 1048.75195312 1320 1208.72753906 1076 1133.61230469 650 c 4
 1056.734375 214 831.473632812 -20 515.473632812 -20 c 4
746.461914062 1290 m 4
 468.461914062 1290 242.435546875 1063 169.612304688 650 c 4
 96.7890625 237 232.763671875 10 520.763671875 10 c 4
 808.763671875 10 1025.7890625 237 1098.61230469 650 c 4
 1171.43554688 1063 1024.46191406 1290 746.461914062 1290 c 4
EndSplineSet
Substitution2: "'c2sc' Capitals to Small Capitals in Latin lookup 0 subtable" o.sc
EndChar

StartChar: P
Encoding: 80 80 15
Width: 1200
Flags: HMW
AnchorPoint: "Anchor-2" 282 0 basechar 0
AnchorPoint: "Anchor-0" 715.225 1300 basechar 0
LayerCount: 2
Fore
SplineSet
20 0 m 1
 25.2900390625 30 l 1
 235.290039062 30 l 1
 453.935546875 1270 l 1
 243.935546875 1270 l 1
 249.224609375 1300 l 1
 811.224609375 1300 l 2
 1107.22460938 1300 1246.59765625 1166 1201.45800781 910 c 0
 1158.08105469 664 952.453125 530 675.453125 530 c 2
 358.453125 530 l 1
 270.290039062 30 l 1
 594.290039062 30 l 1
 589 0 l 1
 20 0 l 1
363.743164062 560 m 1
 680.743164062 560 l 2
 928.743164062 560 1125.37304688 677 1166.45800781 910 c 0
 1209.3046875 1153 1073.93554688 1270 805.935546875 1270 c 2
 488.935546875 1270 l 1
 363.743164062 560 l 1
EndSplineSet
Substitution2: "'c2sc' Capitals to Small Capitals in Latin lookup 0 subtable" p.sc
EndChar

StartChar: Q
Encoding: 81 81 16
Width: 1200
Flags: HMW
AnchorPoint: "Anchor-0" 748.225 1300 basechar 0
LayerCount: 2
Fore
SplineSet
190.446289062 167 m 1
 226.190429688 313 387.2265625 472 518.2265625 472 c 0
 817.2265625 472 539.270507812 -248 799.270507812 -248 c 0
 905.270507812 -248 991.604492188 -110 1063.11621094 12 c 1
 1090.17675781 1 l 1
 1016.90136719 -131 917.981445312 -278 790.981445312 -278 c 0
 500.981445312 -278 776.936523438 442 508.936523438 442 c 4
 385.936523438 442 232.4921875 258 211.157226562 137 c 5
 190.446289062 167 l 1
515.473632812 -20 m 0
 199.473632812 -20 57.734375 214 134.612304688 650 c 0
 209.727539062 1076 454.751953125 1320 751.751953125 1320 c 0
 1048.75195312 1320 1208.72753906 1076 1133.61230469 650 c 0
 1056.734375 214 831.473632812 -20 515.473632812 -20 c 0
746.461914062 1290 m 0
 468.461914062 1290 242.435546875 1063 169.612304688 650 c 0
 96.7890625 237 232.763671875 10 520.763671875 10 c 0
 808.763671875 10 1025.7890625 237 1098.61230469 650 c 0
 1171.43554688 1063 1024.46191406 1290 746.461914062 1290 c 0
EndSplineSet
Substitution2: "'c2sc' Capitals to Small Capitals in Latin lookup 0 subtable" q.sc
EndChar

StartChar: R
Encoding: 82 82 17
Width: 1200
Flags: HMW
AnchorPoint: "Anchor-2" 506 0 basechar 0
AnchorPoint: "Anchor-0" 695.225 1300 basechar 0
LayerCount: 2
Fore
SplineSet
-40 0 m 1
 -34.7099609375 30 l 1
 170.290039062 30 l 1
 388.935546875 1270 l 1
 183.935546875 1270 l 1
 189.224609375 1300 l 1
 701.224609375 1300 l 2
 1007.22460938 1300 1141.88671875 1196 1098.51074219 950 c 0
 1056.89746094 714 771.672851562 639 544.672851562 639 c 1
 547.317382812 654 l 1
 793.317382812 654 813.9765625 509.595703125 794.490234375 275 c 0
 778.458984375 82 781.236328125 -10 887.236328125 -10 c 0
 1040.23632812 -10 1086.67871094 191 1120.12988281 324 c 5
 1147.42480469 320 l 1
 1101.1015625 114 1039.94726562 -40 883.947265625 -40 c 0
 737.947265625 -40 744.106445312 80 759.490234375 275 c 0
 775.284179688 478 771.967773438 635 513.967773438 635 c 2
 311.967773438 635 l 1
 205.290039062 30 l 1
 487.290039062 30 l 1
 482 0 l 1
 -40 0 l 1
318.138671875 670 m 1
 560.138671875 670 l 2
 768.138671875 670 1025.07128906 732 1062.62890625 945 c 0
 1101.95019531 1168 983.935546875 1270 695.935546875 1270 c 2
 423.935546875 1270 l 1
 318.138671875 670 l 1
EndSplineSet
Substitution2: "'c2sc' Capitals to Small Capitals in Latin lookup 0 subtable" r.sc
EndChar

StartChar: S
Encoding: 83 83 18
Width: 1200
Flags: HMW
AnchorPoint: "Anchor-3" 556 0 basechar 0
AnchorPoint: "Anchor-2" 555 0 basechar 0
AnchorPoint: "Anchor-0" 755.225 1300 basechar 0
LayerCount: 2
Fore
SplineSet
1157.98828125 1310 m 1
 1182.98828125 1310 l 1
 1112.28125 909 l 1
 1077.28125 909 l 1
 1064.25878906 1062 949.461914062 1290 691.461914062 1290 c 0
 480.461914062 1290 324.358398438 1193 295.6171875 1030 c 0
 251.53515625 780 541.162109375 738.693359375 693.018554688 692 c 0
 897.91015625 629 1113.56152344 593 1065.42480469 320 c 0
 1026.6328125 100 796.88671875 -29 564.88671875 -29 c 4
 287.88671875 -29 83.205078125 211 129.049804688 471 c 1
 143.287109375 461 l 1
 50.236328125 -10 l 1
 25.236328125 -10 l 1
 111.813476562 481 l 1
 146.813476562 481 l 1
 119.557617188 213 317.176757812 1 570.176757812 1 c 4
 782.176757812 1 996.922851562 130 1030.24804688 319 c 0
 1073.27246094 563 831.912109375 612 676.19921875 659 c 0
 499.524414062 712.327148438 212.65625 758 260.6171875 1030 c 0
 294.294921875 1221 470.751953125 1320 696.751953125 1320 c 0
 972.751953125 1320 1095.25683594 1079 1107.04492188 919 c 1
 1079.04492188 919 l 1
 1157.98828125 1310 l 1
EndSplineSet
Substitution2: "'c2sc' Capitals to Small Capitals in Latin lookup 0 subtable" s.sc
EndChar

StartChar: T
Encoding: 84 84 19
Width: 1200
Flags: HMW
AnchorPoint: "Anchor-3" 521 0 basechar 0
AnchorPoint: "Anchor-0" 748.225 1300 basechar 0
AnchorPoint: "Anchor-2" 519 0 basechar 0
LayerCount: 2
Fore
SplineSet
157.114257812 840 m 1
 138.114257812 840 l 1
 219.224609375 1300 l 1
 1279.22460938 1300 l 1
 1198.11425781 840 l 1
 1179.11425781 840 l 1
 1238.93554688 1270 l 1
 761.935546875 1270 l 1
 543.290039062 30 l 1
 794.290039062 30 l 1
 789 0 l 1
 240 0 l 1
 245.290039062 30 l 1
 506.290039062 30 l 1
 724.935546875 1270 l 1
 248.935546875 1270 l 5
 157.114257812 840 l 1
EndSplineSet
Substitution2: "'c2sc' Capitals to Small Capitals in Latin lookup 0 subtable" t.sc
EndChar

StartChar: U
Encoding: 85 85 20
Width: 1200
Flags: HMW
AnchorPoint: "Anchor-0" 748.225 1300 basechar 0
AnchorPoint: "Anchor-2" 519 0 basechar 0
AnchorPoint: "Anchor-3" 751.58 60 basechar 0
LayerCount: 2
Fore
SplineSet
225.8203125 430 m 2
 373.935546875 1270 l 1
 183.935546875 1270 l 1
 189.224609375 1300 l 1
 678.224609375 1300 l 1
 672.935546875 1270 l 1
 408.935546875 1270 l 1
 260.8203125 430 l 6
 219.736328125 197 282.763671875 10 520.763671875 10 c 0
 758.763671875 10 888.458984375 197 929.8203125 430 c 6
 1078.93554688 1270 l 1
 814.935546875 1270 l 1
 820.224609375 1300 l 1
 1309.22460938 1300 l 1
 1303.93554688 1270 l 1
 1113.93554688 1270 l 1
 964.8203125 430 l 2
 919.680664062 174 781.473632812 -20 515.473632812 -20 c 0
 249.473632812 -20 180.680664062 174 225.8203125 430 c 2
EndSplineSet
Substitution2: "'c2sc' Capitals to Small Capitals in Latin lookup 0 subtable" u.sc
EndChar

StartChar: V
Encoding: 86 86 21
Width: 1200
Flags: HMW
AnchorPoint: "Anchor-0" 748.225 1300 basechar 0
AnchorPoint: "Anchor-2" 519 0 basechar 0
LayerCount: 2
Fore
SplineSet
1109.93554688 1270 m 1
 844.935546875 1270 l 1
 850.224609375 1300 l 1
 1319.22460938 1300 l 1
 1313.93554688 1270 l 1
 1141.93554688 1270 l 1
 586.473632812 -20 l 1
 446.473632812 -20 l 1
 345.935546875 1270 l 5
 173.935546875 1270 l 1
 179.224609375 1300 l 1
 648.224609375 1300 l 1
 642.935546875 1270 l 1
 377.935546875 1270 l 5
 478.763671875 10 l 1
 564.763671875 10 l 1
 1109.93554688 1270 l 1
EndSplineSet
Substitution2: "'c2sc' Capitals to Small Capitals in Latin lookup 0 subtable" v.sc
EndChar

StartChar: W
Encoding: 87 87 22
Width: 1200
Flags: HMW
AnchorPoint: "Anchor-0" 748.225 1300 basechar 0
AnchorPoint: "Anchor-2" 519 0 basechar 0
LayerCount: 2
Back
SplineSet
246 1330 m 1
 357 426 l 1
 367 136 l 1
 337 136 l 1
 545 1030 l 1
 655 1030 l 1
 863 136 l 1
 833 136 l 1
 853 426 l 1
 954 1330 l 1
 1120 1330 l 1
 935 0 l 1
 752 0 l 1
 560 920 l 1
 640 920 l 1
 448 0 l 1
 265 0 l 1
 80 1330 l 1
 246 1330 l 1
EndSplineSet
Fore
SplineSet
328.935546875 1270 m 1
 256.3515625 416 l 1
 222.290039062 30 l 1
 252.290039062 30 l 1
 676.327148438 1000 l 1
 716.327148438 1000 l 1
 798.290039062 30 l 1
 828.290039062 30 l 1
 930.3515625 416 l 1
 1158.93554688 1270 l 1
 874.935546875 1270 l 1
 880.224609375 1300 l 1
 1339.22460938 1300 l 1
 1333.93554688 1270 l 1
 1188.93554688 1270 l 1
 855 0 l 1
 762 0 l 1
 687.271484375 977 l 1
 697.271484375 977 l 1
 278 0 l 1
 185 0 l 1
 298.935546875 1270 l 5
 153.935546875 1270 l 1
 159.224609375 1300 l 1
 608.224609375 1300 l 1
 602.935546875 1270 l 1
 328.935546875 1270 l 1
EndSplineSet
Substitution2: "'c2sc' Capitals to Small Capitals in Latin lookup 0 subtable" w.sc
EndChar

StartChar: X
Encoding: 88 88 23
Width: 1200
Flags: HMW
AnchorPoint: "Anchor-0" 748.225 1300 basechar 0
AnchorPoint: "Anchor-2" 519 0 basechar 0
LayerCount: 2
Fore
SplineSet
229.224609375 1300 m 1
 678.224609375 1300 l 1
 672.935546875 1270 l 1
 392.935546875 1270 l 1
 643.78125 702 l 1
 1094.93554688 1270 l 1
 814.935546875 1270 l 1
 820.224609375 1300 l 1
 1269.22460938 1300 l 1
 1263.93554688 1270 l 1
 1134.93554688 1270 l 1
 660.607421875 684 l 5
 936.290039062 30 l 1
 1085.29003906 30 l 1
 1080 0 l 1
 611 0 l 1
 616.290039062 30 l 1
 896.290039062 30 l 1
 635.670898438 656 l 1
 154.290039062 30 l 1
 434.290039062 30 l 1
 429 0 l 1
 -40 0 l 1
 -34.7099609375 30 l 1
 114.290039062 30 l 1
 620.607421875 684 l 1
 352.935546875 1270 l 1
 223.935546875 1270 l 1
 229.224609375 1300 l 1
EndSplineSet
Substitution2: "'c2sc' Capitals to Small Capitals in Latin lookup 0 subtable" x.sc
EndChar

StartChar: Y
Encoding: 89 89 24
Width: 1200
Flags: HMW
AnchorPoint: "Anchor-0" 748.225 1300 basechar 0
AnchorPoint: "Anchor-2" 519 0 basechar 0
LayerCount: 2
Fore
SplineSet
240 0 m 1
 245.290039062 30 l 1
 506.290039062 30 l 1
 585.63671875 480 l 1
 327.935546875 1270 l 1
 173.935546875 1270 l 1
 179.224609375 1300 l 1
 657.224609375 1300 l 1
 651.935546875 1270 l 1
 364.935546875 1270 l 1
 617.282226562 495 l 1
 596.282226562 495 l 5
 1122.93554688 1270 l 5
 853.935546875 1270 l 1
 859.224609375 1300 l 1
 1319.22460938 1300 l 1
 1313.93554688 1270 l 1
 1159.93554688 1270 l 1
 622.63671875 480 l 1
 543.290039062 30 l 1
 794.290039062 30 l 1
 789 0 l 1
 240 0 l 1
EndSplineSet
Substitution2: "'c2sc' Capitals to Small Capitals in Latin lookup 0 subtable" y.sc
EndChar

StartChar: Z
Encoding: 90 90 25
Width: 1200
Flags: HMW
AnchorPoint: "Anchor-0" 748.225 1300 basechar 0
AnchorPoint: "Anchor-2" 519 0 basechar 0
LayerCount: 2
Fore
SplineSet
1032.11035156 460 m 5
 1051.11035156 460 l 5
 930 0 l 5
 60 0 l 5
 53.5263671875 20 l 5
 1090.93554688 1270 l 5
 337.935546875 1270 l 5
 257.694335938 900 l 5
 238.694335938 900 l 5
 309.224609375 1300 l 5
 1129.22460938 1300 l 5
 1135.69824219 1280 l 5
 98.2900390625 30 l 5
 908.290039062 30 l 5
 1032.11035156 460 l 5
EndSplineSet
Substitution2: "'c2sc' Capitals to Small Capitals in Latin lookup 0 subtable" z.sc
EndChar

StartChar: a
Encoding: 97 97 29
Width: 1200
Flags: HMW
AnchorPoint: "Anchor-3" 927 -98 basechar 0
AnchorPoint: "Anchor-2" 446 -100 basechar 0
AnchorPoint: "Anchor-0" 668 1120 basechar 0
LayerCount: 2
Fore
SplineSet
1023 920 m 13
 855 187 l 6
 824.668508076 54.6608120238 828.384765625 0 901 0 c 4
 971 0 1054 65 1123 148 c 5
 1147 133 l 5
 1065 23 978 -35 898 -35 c 4
 798 -35 787.267099884 42.5448078755 821 190 c 14
 988 920 l 5
 1023 920 l 13
180 440 m 4
 124.612777021 171.029470226 195 10 369 10 c 4
 507 10 725 117 861 350 c 5
 872 330 l 5
 742 84 516 -20 369 -20 c 4
 163 -20 87.3046875 163.596679688 145 440 c 4
 207.8984375 741.33203125 414 939 669 939 c 4
 837 939 926 825 965 719 c 5
 960 689 l 5
 920 786 826 909 669 909 c 4
 419 909 234.796880655 706.103718997 180 440 c 4
EndSplineSet
Substitution2: "'smcp' Lowercase to Small Capitals in Latin lookup 0 subtable" a.sc
EndChar

StartChar: b
Encoding: 98 98 30
Width: 1200
Flags: HMW
AnchorPoint: "Anchor-2" 526 0 basechar 0
AnchorPoint: "Anchor-0" 818.221 920 basechar 0
LayerCount: 2
Fore
SplineSet
714.458007812 910 m 4
 476.458007812 910 224.484375 723 178.110351562 460 c 4
 129.973632812 187 307.763671875 10 535.763671875 10 c 4
 773.763671875 10 996.973632812 187 1045.11035156 460 c 4
 1091.484375 723 932.458007812 910 714.458007812 910 c 4
535.763671875 -20 m 4
 279.763671875 -20 103.917405779 164.000099267 156.110351562 460 c 4
 206.540039062 746 447.458007812 940 714.458007812 940 c 4
 951.458007812 940 1128.77675133 732.999932265 1080.11035156 460 c 4
 1029.14346996 174.0952425 801.763671875 -20 535.763671875 -20 c 4
296.514648438 1330 m 5
 291.224609375 1300 l 5
 101.224609375 1300 l 5
 106.514648438 1330 l 5
 296.514648438 1330 l 5
155.1875 330 m 5
 82 0 l 5
 62 0 l 5
 296.514648438 1330 l 5
 331.514648438 1330 l 5
 155.1875 330 l 5
EndSplineSet
Substitution2: "'smcp' Lowercase to Small Capitals in Latin lookup 0 subtable" b.sc
Substitution2: "'ss01' Style Set 1 in Latin lookup 0-1" b.alt
EndChar

StartChar: o
Encoding: 111 111 31
Width: 1200
Flags: HMW
AnchorPoint: "Anchor-2" 513 0 basechar 0
AnchorPoint: "Anchor-0" 676.221 920 basechar 0
LayerCount: 2
Fore
SplineSet
517.473632812 -20 m 4
 241.473632812 -20 71.390625 144 127.110351562 460 c 0
 181.06640625 766 415.747070312 940 672.747070312 940 c 0
 929.747070312 940 1129.06640625 766 1075.11035156 460 c 0
 1019.390625 144 793.473632812 -20 517.473632812 -20 c 4
674.458007812 910 m 0
 436.458007812 910 212.010742188 743 162.110351562 460 c 0
 110.446289062 167 267.763671875 10 515.763671875 10 c 0
 763.763671875 10 988.446289062 167 1040.11035156 460 c 0
 1090.01074219 743 912.458007812 910 674.458007812 910 c 0
EndSplineSet
Substitution2: "'smcp' Lowercase to Small Capitals in Latin lookup 0 subtable" o.sc
EndChar

StartChar: l
Encoding: 108 108 32
Width: 1200
Flags: HMW
AnchorPoint: "Anchor-3" 490 0 basechar 0
AnchorPoint: "Anchor-2" 484 0 basechar 0
AnchorPoint: "Anchor-1" 635 920 basechar 0
AnchorPoint: "Anchor-0" 693 1330 basechar 0
LayerCount: 2
Fore
SplineSet
711 1305 m 1
 217 1298 l 1
 222 1330 l 1
 731 1330 l 1
 494 240 l 2
 454.718503484 59.3382649678 473.384765625 5 566 5 c 4
 696 5 871 142 1009 267 c 1
 1033 242 l 5
 881 102 706 -25 566 -25 c 4
 436 -25 414.71875 42.2666015625 458 240 c 2
 695.580078125 1313.15820312 l 1
 711 1305 l 1
EndSplineSet
Substitution2: "'smcp' Lowercase to Small Capitals in Latin lookup 0 subtable" l.sc
EndChar

StartChar: n
Encoding: 110 110 33
Width: 1200
Flags: HMW
AnchorPoint: "Anchor-2" 546 0 basechar 0
AnchorPoint: "Anchor-0" 718.221 920 basechar 0
LayerCount: 2
Fore
SplineSet
326.930664062 890 m 5
 116.930664062 890 l 5
 122.220703125 920 l 5
 332.220703125 920 l 5
 326.930664062 890 l 5
1008.50683594 570 m 6
 908 0 l 5
 873 0 l 5
 975.26953125 580 l 6
 1014.59082031 803 926.458007812 910 748.458007812 910 c 4
 527.458007812 910 332.484375 723 291.400390625 490 c 6
 205 0 l 5
 170 0 l 5
 332.220703125 920 l 5
 357.220703125 920 l 5
 310.795898438 600 l 5
 273.163085938 500 l 5
 313.013671875 726 486.747070312 940 763.747070312 940 c 4
 940.747070312 940 1055.40917969 836 1008.50683594 570 c 6
EndSplineSet
Substitution2: "'smcp' Lowercase to Small Capitals in Latin lookup 0 subtable" n.sc
EndChar

StartChar: i
Encoding: 105 105 34
Width: 1200
Flags: HMW
AnchorPoint: "Anchor-3" 660 10 basechar 0
AnchorPoint: "Anchor-2" 515 0 basechar 0
LayerCount: 2
Fore
SplineSet
698 895 m 5
 203 890 l 5
 212 920 l 5
 711 920 l 5
 553 239 l 6
 513.473370549 68.6352236947 520.384765625 5 606 5 c 4
 746 5 954 152 1083 264 c 5
 1103 242 l 5
 951 102 749 -25 609 -25 c 4
 509 -25 469.659084555 43.6228692647 517 240 c 6
 679 912 l 5
 698 895 l 5
681 1335 m 4
 681 1363 697 1380 725 1380 c 4
 753 1380 770 1363 770 1335 c 4
 770 1307 754 1290 726 1290 c 4
 698 1290 681 1307 681 1335 c 4
EndSplineSet
Substitution2: "'smcp' Lowercase to Small Capitals in Latin lookup 0 subtable" i.sc
EndChar

StartChar: k
Encoding: 107 107 35
Width: 1200
Flags: HMW
AnchorPoint: "Anchor-2" 516 0 basechar 0
AnchorPoint: "Anchor-0" 798 920 basechar 0
LayerCount: 2
Fore
SplineSet
205 0 m 5
 170 0 l 5
 402 1300 l 5
 182 1300 l 5
 185 1330 l 5
 440 1330 l 5
 205 0 l 5
1029 670 m 4
 1088 836 998 910 870 910 c 4
 702 910 441 738 295 515 c 5
 275 520 l 5
 425 766 683 940 870 940 c 4
 1026 940 1124.61488318 845.521991733 1064 670 c 4
 990.405100429 456.891887337 755 301 470 301 c 4
 392 301 294 339 255 385 c 5
 255 410 l 5
 295 363 383 331 480 331 c 4
 730 331 959.071310701 473.251484344 1029 670 c 4
505.580078125 323.158203125 m 5
 534 326 l 5
 565 229 l 6
 616.275186649 68.558286938 666.384765625 5 759 5 c 4
 868 5 1004 86 1153 225 c 5
 1166 213 l 5
 1014 63 896 -25 756 -25 c 4
 626 -25 590.924719564 52.9143365166 535 230 c 6
 505.580078125 323.158203125 l 5
EndSplineSet
Substitution2: "'smcp' Lowercase to Small Capitals in Latin lookup 0 subtable" k.sc
EndChar

StartChar: j
Encoding: 106 106 36
Width: 1200
Flags: HMW
AnchorPoint: "Anchor-2" 375 -400 basechar 0
LayerCount: 2
Fore
SplineSet
921 1335 m 0
 921 1363 937 1380 965 1380 c 0
 993 1380 1010 1363 1010 1335 c 0
 1010 1307 994 1290 966 1290 c 0
 938 1290 921 1307 921 1335 c 0
394 -400 m 5
 394 -430 l 5
 207 -430 81 -331 24 -231 c 5
 50 -213 l 5
 114 -313 226 -400 394 -400 c 5
991 920 m 5
 862 10 l 6
 820.057887257 -285.8707178 681 -430 394 -430 c 5
 394 -400 l 5
 652 -400 786.141317983 -270.903438866 827 10 c 6
 955 890 l 5
 400 890 l 5
 402 920 l 5
 991 920 l 5
EndSplineSet
Substitution2: "'smcp' Lowercase to Small Capitals in Latin lookup 0 subtable" j.sc
EndChar

StartChar: h
Encoding: 104 104 37
Width: 1200
Flags: HMW
AnchorPoint: "Anchor-2" 538 0 basechar 0
AnchorPoint: "Anchor-0" 881.617 1030 basechar 0
LayerCount: 2
Fore
SplineSet
1068.50683594 570 m 6
 968 0 l 5
 933 0 l 5
 1035.26953125 580 l 6
 1069.30078125 773 1006.45800781 910 778.458007812 910 c 4
 537.458007812 910 302.484375 723 261.400390625 490 c 6
 175 0 l 5
 140 0 l 5
 369.224609375 1300 l 5
 159.224609375 1300 l 5
 164.514648438 1330 l 5
 409.514648438 1330 l 5
 280.795898438 600 l 5
 243.163085938 500 l 5
 283.013671875 726 496.747070312 940 793.747070312 940 c 4
 1020.74707031 940 1110.11914062 806 1068.50683594 570 c 6
EndSplineSet
Substitution2: "'smcp' Lowercase to Small Capitals in Latin lookup 0 subtable" h.sc
Substitution2: "'ss01' Style Set 1 in Latin lookup 0-1" h.alt
EndChar

StartChar: m
Encoding: 109 109 38
Width: 1200
Flags: HMW
AnchorPoint: "Anchor-2" 535 0 basechar 0
AnchorPoint: "Anchor-0" 753.486 1120 basechar 0
LayerCount: 2
Fore
SplineSet
258.930664062 890 m 1
 106.930664062 890 l 1
 112.220703125 920 l 1
 264.220703125 920 l 1
 258.930664062 890 l 1
677.666015625 690 m 2
 556 0 l 1
 521 0 l 1
 642.666015625 690 l 2
 664.353515625 813 641.458007812 910 523.458007812 910 c 0
 405.458007812 910 271.537109375 763 242.795898438 600 c 6
 137 0 l 1
 102 0 l 1
 264.220703125 920 l 1
 289.220703125 920 l 1
 263.955078125 720 l 5
 226.20703125 608 l 5
 255.477539062 774 376.747070312 940 533.747070312 940 c 0
 660.747070312 940 705.172851562 846 677.666015625 690 c 2
1091.37597656 660 m 2
 975 0 l 1
 940 0 l 1
 1056.37597656 660 l 2
 1085.1171875 823 1062.45800781 910 944.458007812 910 c 0
 779.458007812 910 679.958007812 703 660.033203125 590 c 1
 642.033203125 590 l 1
 667.776367188 736 765.747070312 940 952.747070312 940 c 0
 1099.74707031 940 1122.40917969 836 1091.37597656 660 c 2
EndSplineSet
Substitution2: "'smcp' Lowercase to Small Capitals in Latin lookup 0 subtable" m.sc
EndChar

StartChar: e
Encoding: 101 101 39
Width: 1200
Flags: HMW
AnchorPoint: "Anchor-3" 716 22 basechar 0
AnchorPoint: "Anchor-2" 565 0 basechar 0
AnchorPoint: "Anchor-0" 727 920 basechar 0
LayerCount: 2
Back
SplineSet
680 800 m 1
 477 800 312 671 312 448 c 0
 312 235 436 120 674 120 c 1
 664 -20 l 1
 303 -20 135 164 135 430 c 0
 135 726 368 940 680 940 c 1
 680 800 l 1
680 800 m 1
 680 940 l 1
 920 940 1041 814 1041 667 c 0
 1041 589 1035 530 1034 510 c 1
 889 510 l 1
 892 541 894 551 894 581 c 0
 894 716 801 800 680 800 c 1
1065 120 m 1
 985 47 850 -20 664 -20 c 1
 674 120 l 1
 781 120 904 171 954 214 c 1
 1065 120 l 1
EndSplineSet
Fore
SplineSet
980 113 m 1
 888 47 736 -20 560 -20 c 1
 560 10 l 1
 707 10 877 66 959 138 c 1
 980 113 l 1
560 -20 m 1
 288.551757812 -20 125 152 174 440 c 0
 225.151367188 740.641601562 448 940 735 940 c 0
 937.420010708 940 1101.30358138 831.948636922 1055 662 c 4
 997.199985642 449.855855617 491.205078125 391.4921875 185 382 c 1
 185 407 l 5
 490.614257812 419.840820312 965.234557832 483.171848197 1020 662 c 4
 1066.42552333 813.595425965 922.201171875 910 735 910 c 0
 477 910 257.203176864 722.368184051 209 440 c 0
 162.858284792 169.70760062 311.548828125 10 560 10 c 1
 560 -20 l 1
EndSplineSet
Substitution2: "'smcp' Lowercase to Small Capitals in Latin lookup 0 subtable" e.sc
EndChar

StartChar: p
Encoding: 112 112 40
Width: 1200
Flags: HMW
AnchorPoint: "Anchor-2" 696 0 basechar 0
AnchorPoint: "Anchor-0" 808 920 basechar 0
LayerCount: 2
Fore
SplineSet
590 10 m 4
 778 10 995.80078125 155.622070312 1045 460 c 4
 1095.41308594 771.891601562 928 910 760 910 c 4
 532 910 328.054804991 653.495323404 297 460 c 4
 258 217 392 10 590 10 c 4
760 940 m 4
 946 940 1137 786 1080 460 c 4
 1024 144 818 -20 590 -20 c 4
 373 -20 238.000976562 181.977539062 277 450 c 4
 312.670898438 695.14453125 524 940 760 940 c 4
361 920 m 1
 313 562 l 25
 170 -330 l 1
 135 -330 l 1
 329 890 l 1
 119 890 l 1
 124 920 l 1
 361 920 l 1
EndSplineSet
Substitution2: "'smcp' Lowercase to Small Capitals in Latin lookup 0 subtable" p.sc
EndChar

StartChar: t
Encoding: 116 116 41
Width: 1200
Flags: HMW
AnchorPoint: "Anchor-3" 476 -6 basechar 0
AnchorPoint: "Anchor-2" 626 0 basechar 0
AnchorPoint: "Anchor-1" 824 1020 basechar 0
AnchorPoint: "Anchor-0" 580 1130 basechar 0
LayerCount: 2
Fore
SplineSet
516 920 m 1
 1101 920 l 1
 1085 880 l 1
 517 894 l 1
 516 920 l 1
229 890 m 1
 232 920 l 1
 525 920 l 1
 517 890 l 1
 229 890 l 1
537 20 m 1
 725 20 899 130 1023 239 c 5
 1043 208 l 1
 906 98 734 -10 537 -10 c 1
 537 20 l 1
595 1130 m 1
 414 390 l 2
 359.427468954 166.885784674 359 20 537 20 c 1
 537 -10 l 1
 330 -10 320.708007812 155.564453125 379 390 c 2
 563 1130 l 1
 595 1130 l 1
EndSplineSet
Substitution2: "'smcp' Lowercase to Small Capitals in Latin lookup 0 subtable" t.sc
EndChar

StartChar: c
Encoding: 99 99 42
Width: 1200
Flags: HMW
AnchorPoint: "Anchor-3" 556.353 2 basechar 0
AnchorPoint: "Anchor-2" 556 0 basechar 0
AnchorPoint: "Anchor-0" 738.221 920 basechar 0
LayerCount: 2
Fore
SplineSet
745.747070312 910 m 1
 485.747070312 910 216.602539062 717 166.702148438 434 c 4
 121.5625 178 262.473632812 10 560.473632812 10 c 1
 560.473632812 -20 l 1
 229.473632812 -20 83.91796875 164 130.8203125 430 c 0
 184.776367188 736 453.747070312 940 745.747070312 940 c 1
 745.747070312 910 l 1
745.747070312 910 m 1
 745.747070312 940 l 1
 925.747070312 940 1111.58300781 854 1075.08398438 647 c 0
 1068.3828125 609 1054.74316406 560 1036.92675781 510 c 1
 1004.92675781 510 l 1
 1023.74316406 560 1038.79422847 616.999950071 1044.08398438 647 c 0
 1078.29101563 841 903.747070312 910 745.747070312 910 c 1
980.162109375 103 m 1
 887.290039062 30 696.473632812 -20 560.473632812 -20 c 1
 560.473632812 10 l 1
 677.473632812 10 873.2265625 58 966.216796875 126 c 1
 980.162109375 103 l 1
EndSplineSet
Substitution2: "'smcp' Lowercase to Small Capitals in Latin lookup 0 subtable" c.sc
EndChar

StartChar: u
Encoding: 117 117 43
Width: 1200
Flags: HMW
AnchorPoint: "Anchor-3" 926 10 basechar 0
AnchorPoint: "Anchor-2" 446 0 basechar 0
AnchorPoint: "Anchor-0" 628 920 basechar 0
LayerCount: 2
Fore
SplineSet
953 890 m 1
 733 890 l 1
 736 920 l 1
 956 920 l 1
 953 890 l 1
379 890 m 1
 129 890 l 1
 132 920 l 1
 382 920 l 1
 379 890 l 1
975 920 m 9
 836 195 l 2
 813.819440953 79.3100337454 805.384765625 -5 888 -5 c 4
 988 -5 1046 70 1131 160 c 1
 1157 133 l 1
 1055 33 998 -35 888 -35 c 0
 778 -35 771.747070312 41.619140625 800 190 c 10
 939 920 l 1
 975 920 l 9
373 920 m 1
 411 920 l 1
 290 358 l 2
 253.519677389 188.562468536 221 10 379 10 c 0
 527 10 708 177 844 400 c 1
 859 370 l 1
 709 144 546 -20 379 -20 c 0
 203 -20 207.9140625 120.189453125 257 358 c 2
 373 920 l 1
EndSplineSet
Substitution2: "'smcp' Lowercase to Small Capitals in Latin lookup 0 subtable" u.sc
EndChar

StartChar: r
Encoding: 114 114 44
Width: 1200
Flags: HMW
AnchorPoint: "Anchor-0" 628 920 basechar 0
AnchorPoint: "Anchor-2" 268 2 basechar 0
LayerCount: 2
Fore
SplineSet
924 910 m 1
 924 940 l 1
 1074 940 1113 844 1087 697 c 0
 1073 619 1057 560 1052 540 c 1
 1022 545 l 1
 1028 566 1051.64059073 666.899316944 1056 697 c 0
 1077 842 1045 910 924 910 c 1
924 910 m 1
 726 910 406.886779427 703.192958233 363 450 c 2
 285 0 l 1
 251 0 l 1
 409 890 l 1
 129 890 l 1
 132 920 l 1
 436 920 l 1
 383 550 l 1
 343 450 l 1
 390 721 697 940 924 940 c 1
 924 910 l 1
EndSplineSet
Substitution2: "'smcp' Lowercase to Small Capitals in Latin lookup 0 subtable" r.sc
EndChar

StartChar: q
Encoding: 113 113 45
Width: 1200
Flags: HMW
AnchorPoint: "Anchor-2" 376 0 basechar 0
AnchorPoint: "Anchor-0" 618 920 basechar 0
LayerCount: 2
Back
SplineSet
1083 920 m 5
 884 -330 l 5
 850 -330 l 5
 1012 710 l 5
 995 920 l 5
 1083 920 l 5
EndSplineSet
Fore
SplineSet
634 910 m 4
 426 910 222.888334486 709.847149492 176 440 c 4
 127 158 256 10 454 10 c 4
 642 10 932.239915872 237.134265285 972 460 c 0
 1010 673 842 910 634 910 c 4
454 -20 m 4
 228 -20 89 144 141 440 c 0
 193 736 407 940 634 940 c 4
 851 940 1051.98616634 704.254705121 996 440 c 4
 946 204 660 -20 454 -20 c 4
1083 920 m 1
 884 -330 l 1
 850 -330 l 1
 987 550 l 1
 1065 920 l 5
 1083 920 l 1
EndSplineSet
Substitution2: "'smcp' Lowercase to Small Capitals in Latin lookup 0 subtable" q.sc
EndChar

StartChar: s
Encoding: 115 115 46
Width: 1200
Flags: HMW
AnchorPoint: "Anchor-3" 550 0 basechar 0
AnchorPoint: "Anchor-2" 546 0 basechar 0
AnchorPoint: "Anchor-0" 696 920 basechar 0
LayerCount: 2
Back
SplineSet
1062.12207031 789 m 5
 1035.24316406 767 l 5
 975.3515625 830 838.458007812 910 663.458007812 910 c 4
 432.458007812 910 299.29296875 824 280.955078125 720 c 4
 252.038085938 556 465.05859375 525.504882812 625.63671875 480 c 4
 815.78125 426.116210938 1028.64941406 395 998.849609375 226 c 4
 972.400390625 76 755.88671875 -29 533.88671875 -29 c 4
 316.88671875 -29 148.287109375 47 66.625 151 c 5
 89.5048828125 173 l 5
 171.166992188 69 357.176757812 1 539.176757812 1 c 4
 731.176757812 1 941.103515625 97 963.849609375 226 c 4
 989.59375 372 780.043945312 403.567382812 611.5234375 451 c 4
 440.987304688 499 212.100585938 528 245.955078125 720 c 4
 268.172851562 846 422.747070312 940 668.747070312 940 c 4
 864.747070312 940 1009.70117188 849 1062.12207031 789 c 5
EndSplineSet
Fore
SplineSet
1053 789 m 1
 1030 767 l 1
 959 830 808 910 633 910 c 0
 402 910 284 824 284 720 c 0
 284 606 454.672253189 533.222373772 621 480 c 0
 820.645447276 416.116463906 999 382 999 213 c 4
 999 83 811 -29 569 -29 c 4
 352 -29 170 47 70 151 c 1
 89 173 l 1
 189 69 387 1 569 1 c 4
 781 1 964 97 964 216 c 4
 964 362 788.884765625 393.567382812 612 451 c 0
 435.734375 508.231445312 249 578 249 720 c 0
 249 846 387 940 633 940 c 0
 829 940 990 849 1053 789 c 1
EndSplineSet
Substitution2: "'smcp' Lowercase to Small Capitals in Latin lookup 0 subtable" s.sc
EndChar

StartChar: g
Encoding: 103 103 47
Width: 1200
Flags: HMW
AnchorPoint: "Anchor-2" 376 0 basechar 0
AnchorPoint: "Anchor-0" 618 920 basechar 0
LayerCount: 2
Fore
SplineSet
454 -20 m 0
 228 -20 89 144 141 440 c 0
 193 736 427 940 644 940 c 0
 901 940 1039 696 993 460 c 0
 939.37138803 184.861903804 710 -20 454 -20 c 0
644 910 m 0
 446 910 215.365381401 723.59441069 171 440 c 0
 126.682065301 156.708880278 246 10 454 10 c 0
 722 10 933.239915872 237.134265285 973 460 c 0
 1011 673 892 910 644 910 c 0
440 -400 m 1
 440 -430 l 1
 233 -430 91 -331 24 -241 c 1
 47 -223 l 1
 107 -305 252 -400 440 -400 c 1
923 73 m 2
 998 547 l 1
 1063 920 l 5
 1083 920 l 1
 952 73 l 2
 895.654296875 -291.313476562 707 -430 440 -430 c 1
 440 -400 l 1
 698 -400 872.115715394 -266.403424125 923 73 c 2
EndSplineSet
Substitution2: "'smcp' Lowercase to Small Capitals in Latin lookup 0 subtable" g.sc
EndChar

StartChar: x
Encoding: 120 120 48
Width: 1200
Flags: HMW
AnchorPoint: "Anchor-0" 698 920 basechar 0
AnchorPoint: "Anchor-2" 537 0 basechar 0
LayerCount: 2
Fore
SplineSet
58 -20 m 1
 55 12 l 1
 302.763671875 12.5703125 414.834960938 259.22265625 578 463 c 1
 598 443 l 1
 448.985351562 230.517578125 318 -20 58 -20 c 1
1139 939 m 1
 1142 909 l 1
 944.236328125 898.4296875 752.165039062 659.77734375 599 436 c 5
 579 466 l 5
 728.014648438 678.482421875 919 939 1139 939 c 1
609 430 m 2
 610.663085938 215.405273438 629 0 797 0 c 0
 915 0 1040 95 1117 250 c 1
 1143 231 l 1
 1056 61 934 -30 797 -30 c 0
 600 -30 584 153.874023438 584 390 c 2
 584 437 l 1
 574 445 l 1
 574 499 l 2
 574 714.470703125 574 909 446 909 c 0
 318 909 260 823 152 702 c 1
 130 728 l 1
 237 858 329 939 446 939 c 0
 593 939 616.166015625 738.541992188 598 502 c 9
 598.263671875 495 l 1
 608.49609375 495 l 1
 609 430 l 2
EndSplineSet
Substitution2: "'smcp' Lowercase to Small Capitals in Latin lookup 0 subtable" x.sc
EndChar

StartChar: d
Encoding: 100 100 49
Width: 1200
Flags: HMW
AnchorPoint: "Anchor-3" 880 0 basechar 0
AnchorPoint: "Anchor-2" 576 0 basechar 0
AnchorPoint: "Anchor-1" 1231 920 basechar 0
AnchorPoint: "Anchor-0" 578 920 basechar 0
LayerCount: 2
Back
SplineSet
1075 1330 m 13
 856 195 l 6
 846.69140625 146.7578125 882.384422949 110 925 110 c 4
 985 110 1040 155 1099 211 c 5
 1177 133 l 5
 1075 33 988 -35 878 -35 c 4
 768 -35 792.456054688 41.4130859375 821 190 c 14
 1040 1330 l 5
 1075 1330 l 13
EndSplineSet
Fore
SplineSet
180 440 m 4
 124.612777021 171.029470226 195 10 369 10 c 4
 507 10 725 117 861 350 c 5
 872 330 l 5
 742 84 516 -20 369 -20 c 4
 163 -20 87.3046875 163.596679688 145 440 c 4
 207.8984375 741.33203125 414 939 669 939 c 4
 837 939 906 825 945 719 c 5
 940 689 l 5
 900 786 826 909 669 909 c 4
 419 909 234.796880655 706.103718997 180 440 c 4
1076 1330 m 13
 855 187 l 6
 829.277198756 53.9630686815 828.384765625 0 901 0 c 4
 971 0 1054 65 1123 148 c 5
 1147 133 l 5
 1065 23 978 -35 898 -35 c 4
 798 -35 792.318371995 41.3770185206 821 190 c 14
 1041 1330 l 5
 1076 1330 l 13
736 1330 m 1
 1046 1330 l 1
 1050 1300 l 1
 730 1300 l 1
 736 1330 l 1
EndSplineSet
Substitution2: "'smcp' Lowercase to Small Capitals in Latin lookup 0 subtable" d.sc
EndChar

StartChar: f
Encoding: 102 102 50
Width: 1200
Flags: HMW
AnchorPoint: "Anchor-2" 416 0 basechar 0
AnchorPoint: "Anchor-0" 990 1420 basechar 0
LayerCount: 2
Back
SplineSet
363 -330 m 5
 519 790 l 5
 199 790 l 5
 222 920 l 5
 531 920 l 5
 545 1000 l 6
 588 1246 676 1440 983 1440 c 5
 968 1300 l 5
 770 1300 607.484375 1151.33984375 581 1000 c 6
 567 920 l 5
 1112 920 l 5
 1086 770 l 5
 554 790 l 5
 398 -330 l 5
 363 -330 l 5
EndSplineSet
Fore
SplineSet
983 1410 m 5
 983 1440 l 1
 1170 1440 1290 1371 1353 1301 c 1
 1335 1279 l 1
 1278 1336 1151 1410 983 1410 c 5
363 -330 m 1
 527 890 l 1
 217 890 l 1
 222 920 l 1
 531 920 l 1
 545 1000 l 2
 588.018799272 1245.82171013 676 1440 983 1440 c 1
 983 1410 l 1
 695 1410 619.370461264 1219.25977865 581 1000 c 2
 567 920 l 1
 1112 920 l 1
 1103 875 l 1
 562 890 l 1
 398 -330 l 1
 363 -330 l 1
EndSplineSet
Substitution2: "'smcp' Lowercase to Small Capitals in Latin lookup 0 subtable" f.sc
EndChar

StartChar: w
Encoding: 119 119 51
Width: 1200
Flags: HMW
AnchorPoint: "Anchor-0" 669 920 basechar 0
AnchorPoint: "Anchor-2" 477 0 basechar 0
LayerCount: 2
Fore
SplineSet
86 320 m 2
 212 920 l 1
 247 920 l 1
 121 319 l 2
 111.182360632 272.17141857 107 228 107 189 c 0
 107 98 124 10 231 10 c 4
 392 10 528 267 566 480 c 1
 586 480 l 1
 547 251 428 -20 231 -20 c 4
 93 -20 72 79 72 189 c 0
 72 228 78 272 86 320 c 2
527 320 m 2
 653 920 l 1
 688 920 l 1
 553 270 l 2
 548.935150079 250.42850038 548 231 548 214 c 0
 548 86 575 10 690 10 c 0
 954 10 1049 315 1064 557 c 0
 1072.24288231 689.985167937 1056 848 1011 930 c 1
 1040 947 l 1
 1091 867 1106.03320312 697.727539062 1099 557 c 0
 1086.08300781 298.548828125 985 -20 690 -20 c 0
 556 -20 513 56 513 214 c 0
 513 240 520.754957638 290.261703037 527 320 c 2
EndSplineSet
Substitution2: "'smcp' Lowercase to Small Capitals in Latin lookup 0 subtable" w.sc
EndChar

StartChar: y
Encoding: 121 121 52
Width: 1200
Flags: HMW
AnchorPoint: "Anchor-2" 155 -400 basechar 0
AnchorPoint: "Anchor-0" 678 920 basechar 0
LayerCount: 2
Fore
SplineSet
463 -20 m 1
 128 -20 164.916992188 408.548828125 224 617 c 0
 262.423828125 752.563476562 351 896 398 947 c 1
 420 934 l 1
 367 859 292.221984334 731.056787947 259 617 c 0
 203.9879205 428.134066439 161 10 463 10 c 1
 463 -20 l 1
365 -400 m 5
 366 -430 l 1
 159 -430 67 -291 20 -171 c 1
 48 -156 l 5
 100 -265 177 -400 365 -400 c 5
463 10 m 1
 661.060546875 10 924.302712028 193.171789085 968.6640625 484.444335938 c 2
 1035 920 l 1
 1069 920 l 1
 948 173 l 2
 881.1640625 -239.614257812 643 -430 366 -430 c 1
 365 -400 l 1
 643 -400 872.030734412 -176.212730798 918 173 c 2
 943.879882812 369.600585938 l 1
 961 390 l 1
 933 184 670 -20 463 -20 c 1
 463 10 l 1
EndSplineSet
Substitution2: "'smcp' Lowercase to Small Capitals in Latin lookup 0 subtable" y.sc
EndChar

StartChar: v
Encoding: 118 118 53
Width: 1200
Flags: HMW
AnchorPoint: "Anchor-2" 517 0 basechar 0
AnchorPoint: "Anchor-0" 678 920 basechar 0
LayerCount: 2
Fore
SplineSet
98 890 m 1
 102 920 l 1
 398 920 l 1
 398 890 l 1
 98 890 l 1
275 320 m 2
 381 920 l 1
 415 920 l 1
 308 320 l 2
 280.025802299 163.135339996 263.084960938 10 460 10 c 0
 794 10 1015.56048457 340.422939734 1029 647 c 0
 1034.94999753 782.72905665 1014 848 967 932 c 5
 1000 947 l 1
 1047 866 1069.53710938 787.794921875 1064 647 c 0
 1051.08300781 318.548828125 815 -20 460 -20 c 0
 286 -20 259 77 259 175 c 0
 259 201 266.25242164 270.48540551 275 320 c 2
EndSplineSet
Substitution2: "'smcp' Lowercase to Small Capitals in Latin lookup 0 subtable" v.sc
EndChar

StartChar: z
Encoding: 122 122 54
Width: 1200
VWidth: 2048
Flags: HMW
AnchorPoint: "Anchor-0" 678 920 basechar 0
AnchorPoint: "Anchor-2" 517 0 basechar 0
LayerCount: 2
Fore
SplineSet
188 570 m 1
 218 808 287 948 469 948 c 0
 625 948 654 834 801 834 c 0
 899 834 962 879 1032 982 c 1
 1061 956 l 1
 237 60 l 1
 187 10 l 1
 187 60 288 116 364 116 c 0
 524 116 545 2 696 2 c 0
 844 2 979 97 1032 410 c 1
 1067 410 l 1
 1007 72 878 -28 696 -28 c 0
 540 -28 491 86 364 86 c 0
 266 86 203 41 133 -62 c 1
 103 -42 l 1
 946 874 l 5
 991 904 l 1
 991 874 867 804 801 804 c 0
 622 804 610 918 469 918 c 0
 311 918 245 781 223 570 c 1
 188 570 l 1
EndSplineSet
Substitution2: "'smcp' Lowercase to Small Capitals in Latin lookup 0 subtable" z.sc
EndChar

StartChar: exclam
Encoding: 33 33 55
Width: 1200
Flags: HMW
LayerCount: 2
Fore
SplineSet
396 130 m 4
 396 218 457 280 545 280 c 4
 633 280 694 218 694 130 c 4
 694 42 638 -20 550 -20 c 4
 462 -20 396 42 396 130 c 4
596 490 m 1
 645 1340 l 1
 865 1340 l 1
 616 490 l 1
 596 490 l 1
EndSplineSet
EndChar

StartChar: quotedbl
Encoding: 34 34 56
Width: 1200
Flags: HMW
LayerCount: 2
Fore
SplineSet
803.71875 730 m 5
 881.278320312 1340 l 1
 1091.27832031 1340 l 1
 923.71875 730 l 5
 803.71875 730 l 5
343.71875 730 m 5
 421.278320312 1340 l 1
 631.278320312 1340 l 1
 463.71875 730 l 5
 343.71875 730 l 5
EndSplineSet
EndChar

StartChar: quotesingle
Encoding: 39 39 57
Width: 1200
Flags: HMW
LayerCount: 2
Fore
SplineSet
583.71875 730 m 5
 651.278320312 1340 l 1
 861.278320312 1340 l 1
 703.71875 730 l 5
 583.71875 730 l 5
EndSplineSet
EndChar

StartChar: comma
Encoding: 44 44 58
Width: 1200
Flags: HMW
LayerCount: 2
Fore
SplineSet
323.575195312 -320 m 5
 471.134765625 290 l 5
 681.134765625 290 l 5
 443.575195312 -320 l 5
 323.575195312 -320 l 5
EndSplineSet
EndChar

StartChar: period
Encoding: 46 46 59
Width: 1200
VWidth: 2379
Flags: HMW
LayerCount: 2
Fore
SplineSet
394 130 m 4
 394 218 455 280 543 280 c 4
 631 280 692 218 692 130 c 4
 692 42 636 -20 548 -20 c 4
 460 -20 394 42 394 130 c 4
EndSplineSet
EndChar

StartChar: asterisk
Encoding: 42 42 60
Width: 1200
Flags: HMW
LayerCount: 2
Fore
SplineSet
629.208007812 891.842773438 m 1
 424.18359375 637.381835938 l 1
 381.861328125 672.649414062 l 1
 615.100585938 903.59765625 l 1
 629.208007812 891.842773438 l 1
792.045898438 1023.55371094 m 1
 1090.8828125 1135.28125 l 1
 1099.36132812 1078.21679688 l 1
 794.873046875 1004.53320312 l 1
 792.045898438 1023.55371094 l 1
597.359375 999.036132812 m 1
 318.854492188 1072.72167969 l 1
 347.458007812 1129.78515625 l 1
 606.892578125 1018.05761719 l 1
 597.359375 999.036132812 l 1
749.1328125 906.569335938 m 1
 900.926757812 675.620117188 l 1
 846.166015625 640.353515625 l 1
 730.879882812 894.8125 l 1
 749.1328125 906.569335938 l 1
700.43359375 1080 m 1
 733.331054688 1380 l 1
 793.331054688 1380 l 1
 720.43359375 1080 l 1
 700.43359375 1080 l 1
EndSplineSet
EndChar

StartChar: b.alt
Encoding: 1114112 -1 61
Width: 1200
Flags: HMW
LayerCount: 2
Fore
SplineSet
714.458007812 910 m 0
 476.458007812 910 224.484375 723 178.110351562 460 c 0
 129.973632812 187 307.763671875 10 535.763671875 10 c 0
 773.763671875 10 996.973632812 187 1045.11035156 460 c 0
 1091.484375 723 932.458007812 910 714.458007812 910 c 0
535.763671875 -20 m 0
 279.763671875 -20 103.917405779 164.000099267 156.110351562 460 c 0
 206.540039062 746 447.458007812 940 714.458007812 940 c 0
 951.458007812 940 1128.77675133 732.999932265 1080.11035156 460 c 0
 1029.14346996 174.0952425 801.763671875 -20 535.763671875 -20 c 0
155.1875 330 m 1
 82 0 l 1
 62 0 l 1
 296.514648438 1330 l 1
 331.514648438 1330 l 1
 155.1875 330 l 1
EndSplineSet
EndChar

StartChar: h.alt
Encoding: 1114113 -1 62
Width: 1200
Flags: HMW
LayerCount: 2
Fore
SplineSet
1068.50683594 570 m 2
 968 0 l 1
 933 0 l 1
 1035.26953125 580 l 2
 1069.30078125 773 1006.45800781 910 778.458007812 910 c 0
 537.458007812 910 302.484375 723 261.400390625 490 c 2
 175 0 l 1
 140 0 l 1
 374.514648438 1330 l 1
 409.514648438 1330 l 1
 280.795898438 600 l 1
 243.163085938 500 l 5
 283.013671875 726 496.747070312 940 793.747070312 940 c 0
 1020.74707031 940 1110.11914062 806 1068.50683594 570 c 2
EndSplineSet
EndChar

StartChar: zero
Encoding: 48 48 63
Width: 1200
Flags: HMW
LayerCount: 2
Fore
SplineSet
585.494140625 655 m 0
 590.431640625 683 609.428710938 700 637.428710938 700 c 0
 665.428710938 700 679.431640625 683 674.494140625 655 c 0
 669.556640625 627 650.559570312 610 622.559570312 610 c 0
 594.559570312 610 580.556640625 627 585.494140625 655 c 0
515.473632812 -20 m 0
 239.473632812 -20 67.154296875 154 154.612304688 650 c 0
 236.78125 1116 474.751953125 1320 751.751953125 1320 c 0
 1028.75195312 1320 1194.01757812 1106 1113.61230469 650 c 0
 1026.15429688 154 801.473632812 -20 515.473632812 -20 c 0
746.461914062 1290 m 0
 488.461914062 1290 267.725585938 1093 189.612304688 650 c 0
 106.209960938 177 262.763671875 10 520.763671875 10 c 0
 768.763671875 10 993.446289062 167 1078.61230469 650 c 0
 1154.96191406 1083 994.461914062 1290 746.461914062 1290 c 0
EndSplineSet
Substitution2: "'ss02' Style Set 2 lookup 6-1" zero.alt
EndChar

StartChar: one
Encoding: 49 49 64
Width: 1200
Flags: HMW
LayerCount: 2
Fore
SplineSet
100 0 m 1
 105.290039062 30 l 1
 562.290039062 30 l 1
 781.111328125 1271 l 1
 281.90625 1060 l 5
 272.196289062 1090 l 1
 811.399414062 1318 l 1
 822.458984375 1307 l 1
 597.290039062 30 l 1
 1005.29003906 30 l 1
 1000 0 l 1
 100 0 l 1
EndSplineSet
Substitution2: "'ss02' Style Set 2 lookup 6-1" one.alt
EndChar

StartChar: two
Encoding: 50 50 65
Width: 1200
Flags: HMW
LayerCount: 2
Fore
SplineSet
193.807617188 929 m 1
 300.836914062 1139 514.751953125 1320 790.751953125 1320 c 0
 999.751953125 1320 1113.00585938 1191 1082.85351562 1020 c 0
 1047.23535156 818 778.243164062 669.858398438 610.153320312 568 c 4
 394.5 437.318359375 117.620117188 185 50.2900390625 30 c 1
 924.290039062 30 l 1
 919 0 l 1
 29 0 l 1
 13.5263671875 20 l 1
 84.03125 193 369.818359375 455.815429688 595.385742188 592 c 0
 761.018554688 692 1015.23339844 835 1046.97167969 1015 c 0
 1077.4765625 1188 976.461914062 1290 775.461914062 1290 c 0
 523.461914062 1290 322.075195312 1112 218.044921875 919 c 1
 193.807617188 929 l 1
EndSplineSet
EndChar

StartChar: three
Encoding: 51 51 66
Width: 1200
Flags: HMW
LayerCount: 2
Fore
SplineSet
610.71875 730 m 2
 799.215820312 792.8046875 1044.16503906 897 1072.90625 1060 c 0
 1091.06835938 1163 1007.46191406 1290 769.461914062 1290 c 1
 774.751953125 1320 l 1
 1030.75195312 1320 1130.12402344 1186 1107.90625 1060 c 0
 1075.99121094 879 849.061523438 800 755.479492188 757 c 1
 922.592773438 786 1110.02050781 675 1073.87402344 470 c 4
 1019.91796875 164 636.127929688 -73 60.916015625 -233 c 1
 57.2060546875 -203 l 1
 602.360351562 -49 987.209960938 177 1038.87402344 470 c 0
 1072.90527344 663 886.200195312 781.525390625 669.25 716 c 2
 496.551757812 661 l 1
 490.666015625 690 l 1
 610.71875 730 l 2
286.498046875 1035 m 1
 257.966796875 1049 l 1
 352.65234375 1189 558.751953125 1320 774.751953125 1320 c 1
 769.461914062 1290 l 1
 571.461914062 1290 372.59765625 1166 286.498046875 1035 c 1
EndSplineSet
EndChar

StartChar: four
Encoding: 52 52 67
Width: 1200
Flags: HMW
LayerCount: 2
Fore
SplineSet
725.208007812 -220 m 1
 921.559570312 610 l 1
 956.559570312 610 l 1
 760.208007812 -220 l 1
 725.208007812 -220 l 1
-8.0771484375 130 m 1
 1052.92285156 130 l 1
 1047.6328125 100 l 1
 -42.3671875 100 l 1
 -58.8408203125 120 l 1
 294.63671875 480 579.877929688 850 749.8046875 1360 c 1
 784.8046875 1360 l 1
 614.877929688 850 345.400390625 490 -8.0771484375 130 c 1
EndSplineSet
EndChar

StartChar: five
Encoding: 53 53 68
Width: 1200
Flags: HMW
LayerCount: 2
Fore
SplineSet
792.99609375 845 m 1
 1025.8203125 844 1138.83691406 725 1100.92675781 510 c 0
 1038.15429688 154 579.604492188 -110 53.2080078125 -220 c 1
 52.498046875 -190 l 1
 559.893554688 -80 1005.44628906 167 1065.92675781 510 c 0
 1098.19433594 693 995.706054688 815 787.706054688 815 c 1
 792.99609375 845 l 1
449.224609375 1300 m 1
 1189.22460938 1300 l 1
 1183.93554688 1270 l 1
 443.935546875 1270 l 1
 449.224609375 1300 l 1
184.448242188 564 m 1
 449.224609375 1300 l 1
 479.224609375 1300 l 1
 216.272460938 563 l 5
 202.861328125 555 l 1
 351.07421875 715 578.99609375 845 792.99609375 845 c 1
 787.706054688 815 l 1
 583.706054688 815 366.13671875 687 219.158203125 534 c 1
 184.448242188 564 l 1
EndSplineSet
EndChar

StartChar: six
Encoding: 54 54 69
Width: 1200
VWidth: 2310
Flags: HMW
LayerCount: 2
Back
SplineSet
649 -20 m 4
 323 -20 150 214 150 650 c 4
 150 1076 342 1320 649 1320 c 4
 956 1320 1149 1076 1149 650 c 4
 1149 214 975 -20 649 -20 c 4
649 1180 m 4
 461 1180 310 1003 310 650 c 4
 310 287 441 120 649 120 c 4
 857 120 989 287 989 650 c 4
 989 1003 837 1180 649 1180 c 4
EndSplineSet
Fore
SplineSet
1006.72753906 1490 m 5
 637.872070312 1298 230.745117188 957 158.453125 530 c 5
 143.453125 530 l 5
 175.133789062 704 448.694335938 900 730.694335938 900 c 4
 952.694335938 900 1184.00878906 760 1127.58398438 440 c 4
 1078.21191406 160 816.473632812 -20 534.473632812 -20 c 4
 232.473632812 -20 73.501953125 190 133.453125 530 c 4
 221.969726562 1032 672.278320312 1340 1001.01660156 1520 c 5
 1006.72753906 1490 l 5
1097.58398438 440 m 4
 1150.65820312 741 933.404296875 870 725.404296875 870 c 4
 459.404296875 870 196.666015625 690 168.453125 530 c 4
 108.854492188 192 261.763671875 10 539.763671875 10 c 4
 797.763671875 10 1050.328125 172 1097.58398438 440 c 4
EndSplineSet
EndChar

StartChar: seven
Encoding: 55 55 70
Width: 1200
Flags: HMW
LayerCount: 2
Fore
SplineSet
1269.22460938 1300 m 1
 1275.69824219 1280 l 1
 922.220703125 920 501.134765625 290 341.208007812 -220 c 1
 311.913085938 -216 l 1
 478.83984375 294 874.458007812 910 1227.93554688 1270 c 5
 312.935546875 1270 l 1
 190.641601562 860 l 1
 171.641601562 860 l 1
 289.224609375 1300 l 1
 1269.22460938 1300 l 1
EndSplineSet
EndChar

StartChar: eight
Encoding: 56 56 71
Width: 1200
Flags: HMW
LayerCount: 2
Fore
SplineSet
641.131835938 721 m 0
 405.131835938 721 243.233398438 835 274.266601562 1011 c 4
 310.58984375 1217 529.927734375 1321 746.927734375 1321 c 0
 963.927734375 1321 1158.58984375 1217 1122.26660156 1011 c 4
 1089.46972656 825 877.131835938 721 641.131835938 721 c 0
741.637695312 1291 m 0
 543.637695312 1291 341.534179688 1194 309.266601562 1011 c 4
 282.288085938 858 418.421875 751 646.421875 751 c 0
 874.421875 751 1058.52539062 848 1087.26660156 1011 c 4
 1119.53417969 1194 949.637695312 1291 741.637695312 1291 c 0
510.473632812 -20 m 0
 234.473632812 -20 36.1015625 114 79.4775390625 360 c 0
 122.854492188 606 387.658203125 741 644.658203125 741 c 0
 901.658203125 741 1120.85449219 606 1077.47753906 360 c 0
 1034.1015625 114 786.473632812 -20 510.473632812 -20 c 0
639.368164062 711 m 0
 401.368164062 711 155.561523438 593 114.477539062 360 c 0
 73.3935546875 127 277.763671875 10 515.763671875 10 c 0
 753.763671875 10 1001.39355469 127 1042.47753906 360 c 0
 1083.56152344 593 877.368164062 711 639.368164062 711 c 0
EndSplineSet
EndChar

StartChar: hyphen
Encoding: 45 45 73
Width: 1200
Flags: HMW
LayerCount: 2
Fore
SplineSet
310.666015625 690 m 5
 972.666015625 690 l 5
 967.375976562 660 l 1
 305.375976562 660 l 1
 310.666015625 690 l 5
EndSplineSet
EndChar

StartChar: plus
Encoding: 43 43 74
Width: 1200
Flags: HMW
LayerCount: 2
Fore
SplineSet
683.6171875 1030 m 1
 719.6171875 1030 l 5
 594.424804688 320 l 5
 558.424804688 320 l 1
 683.6171875 1030 l 1
270.666015625 690 m 1
 1012.66601562 690 l 1
 1007.37597656 660 l 1
 265.375976562 660 l 1
 270.666015625 690 l 1
EndSplineSet
EndChar

StartChar: equal
Encoding: 61 61 75
Width: 1200
Flags: HMW
LayerCount: 2
Fore
SplineSet
300.641601562 860 m 5
 1042.64160156 860 l 5
 1037.3515625 830 l 1
 295.3515625 830 l 1
 300.641601562 860 l 5
240.690429688 520 m 5
 982.690429688 520 l 5
 977.400390625 490 l 1
 235.400390625 490 l 1
 240.690429688 520 l 5
EndSplineSet
EndChar

StartChar: colon
Encoding: 58 58 76
Width: 1200
VWidth: 2379
Flags: HMW
LayerCount: 2
Fore
SplineSet
511 790 m 0
 511 878 572 940 660 940 c 0
 748 940 809 878 809 790 c 0
 809 702 753 640 665 640 c 0
 577 640 511 702 511 790 c 0
396 130 m 4
 396 218 457 280 545 280 c 4
 633 280 694 218 694 130 c 4
 694 42 638 -20 550 -20 c 4
 462 -20 396 42 396 130 c 4
EndSplineSet
EndChar

StartChar: semicolon
Encoding: 59 59 77
Width: 1200
VWidth: 2379
Flags: HMW
LayerCount: 2
Fore
SplineSet
324 -320 m 1
 470 290 l 1
 680 290 l 1
 444 -320 l 1
 324 -320 l 1
513 790 m 4
 513 878 574 940 662 940 c 4
 750 940 811 878 811 790 c 4
 811 702 755 640 667 640 c 4
 579 640 513 702 513 790 c 4
EndSplineSet
EndChar

StartChar: less
Encoding: 60 60 78
Width: 1200
Flags: HMW
LayerCount: 2
Fore
SplineSet
270.666015625 690 m 1
 1037.90625 1060 l 1
 1042.6171875 1030 l 1
 299.020507812 675 l 1
 917.424804688 320 l 1
 902.134765625 290 l 1
 265.375976562 660 l 5
 270.666015625 690 l 1
EndSplineSet
EndChar

StartChar: slash
Encoding: 47 47 79
Width: 1200
Flags: HMW
LayerCount: 2
Fore
SplineSet
972.041015625 1350 m 1
 1000.27832031 1340 l 5
 217.788085938 -160 l 1
 189.55078125 -150 l 1
 972.041015625 1350 l 1
EndSplineSet
EndChar

StartChar: greater
Encoding: 62 62 80
Width: 1200
Flags: HMW
LayerCount: 2
Fore
SplineSet
1012.66601562 690 m 5
 1007.37597656 660 l 1
 240.134765625 290 l 1
 235.424804688 320 l 1
 979.020507812 675 l 1
 360.6171875 1030 l 1
 375.90625 1060 l 1
 1012.66601562 690 l 5
EndSplineSet
EndChar

StartChar: numbersign
Encoding: 35 35 81
Width: 1200
Flags: HMW
LayerCount: 2
Fore
SplineSet
178.576171875 905 m 1
 1270.57617188 905 l 1
 1265.28613281 875 l 1
 173.286132812 875 l 1
 178.576171875 905 l 1
42.7548828125 475 m 5
 1134.75488281 475 l 5
 1129.46582031 445 l 5
 37.4658203125 445 l 5
 42.7548828125 475 l 5
1130.98828125 1310 m 1
 1162.75390625 1303 l 1
 623.529296875 3 l 1
 591.763671875 10 l 1
 1130.98828125 1310 l 1
660.98828125 1310 m 1
 692.75390625 1303 l 1
 153.529296875 3 l 1
 121.763671875 10 l 1
 660.98828125 1310 l 1
EndSplineSet
EndChar

StartChar: dollar
Encoding: 36 36 82
Width: 1200
Flags: HMW
LayerCount: 2
Fore
SplineSet
510 0 m 1
 474.155273438 -260 l 5
 434.155273438 -260 l 1
 490 0 l 1
 510 0 l 1
720.98828125 1310 m 1
 755.0703125 1560 l 1
 795.0703125 1560 l 1
 740.98828125 1310 l 1
 720.98828125 1310 l 1
1122.84667969 1071 m 1
 1018.82714844 1207 889.461914062 1290 721.461914062 1290 c 0
 520.461914062 1290 322.594726562 1183 292.08984375 1010 c 0
 251.53515625 780 535.423828125 741.9453125 681.431640625 683 c 0
 867.20703125 608 1102.98242188 533 1063.66113281 310 c 0
 1026.6328125 100 766.88671875 -29 534.88671875 -29 c 0
 307.88671875 -29 134.51953125 71 10.96875 221 c 1
 43.0234375 244 l 1
 148.514648438 105 327.176757812 1 540.176757812 1 c 0
 752.176757812 1 995.3359375 121 1028.66113281 310 c 0
 1064.63183594 514 803.805664062 588.220703125 660.436523438 649 c 0
 492.955078125 720 212.65625 758 257.08984375 1010 c 0
 290.768554688 1201 500.751953125 1320 726.751953125 1320 c 0
 902.751953125 1320 1053.70605469 1229 1149.02050781 1089 c 1
 1122.84667969 1071 l 1
EndSplineSet
EndChar

StartChar: percent
Encoding: 37 37 83
Width: 1200
Flags: HMW
LayerCount: 2
Back
SplineSet
844 1350 m 5
 986 1300 l 5
 356 -50 l 5
 214 0 l 5
 844 1350 l 5
EndSplineSet
Fore
SplineSet
998.37109375 280 m 0
 1027.11328125 443 958.979492188 550 830.979492188 550 c 0
 702.979492188 550 607.11328125 443 578.37109375 280 c 0
 547.8671875 107 617.763671875 10 745.763671875 10 c 0
 873.763671875 10 967.8671875 107 998.37109375 280 c 0
543.37109375 280 m 0
 574.405273438 456 679.26953125 580 836.26953125 580 c 0
 993.26953125 580 1064.40527344 456 1033.37109375 280 c 0
 1000.57519531 94 897.473632812 -20 740.473632812 -20 c 0
 583.473632812 -20 510.575195312 94 543.37109375 280 c 0
599.853515625 1020 m 0
 619.778320312 1133 581.461914062 1290 433.461914062 1290 c 0
 295.461914062 1290 207.83203125 1173 180.853515625 1020 c 0
 150.348632812 847 220.245117188 750 348.245117188 750 c 0
 486.245117188 750 574.638671875 877 599.853515625 1020 c 0
145.853515625 1020 m 0
 176.88671875 1196 281.751953125 1320 438.751953125 1320 c 0
 564.751953125 1320 658.703125 1246 764.703125 1246 c 0
 874.703125 1246 965.758789062 1269 1114.09179688 1407 c 1
 1141.09472656 1390 l 1
 81.8935546875 -80 l 1
 51.6572265625 -70 l 1
 1083.86230469 1366 l 1
 1106.0390625 1367 l 1
 987.819335938 1258 892.4140625 1216 759.4140625 1216 c 0
 635.4140625 1216 576.345703125 1278 487.166992188 1294 c 1
 468.930664062 1304 l 1
 607.169921875 1277 659.833984375 1156 634.08984375 1010 c 0
 610.109375 874 499.955078125 720 342.955078125 720 c 0
 185.955078125 720 113.056640625 834 145.853515625 1020 c 0
EndSplineSet
EndChar

StartChar: ampersand
Encoding: 38 38 84
Width: 1200
Flags: HMW
LayerCount: 2
Fore
SplineSet
570.666015625 690 m 1
 1132.66601562 690 l 1
 1127.37597656 660 l 1
 565.375976562 660 l 1
 570.666015625 690 l 1
916.138671875 670 m 1
 982.787109375 254 770.473632812 -20 444.473632812 -20 c 5
 449.763671875 10 l 5
 727.763671875 10 956.552734375 247 881.138671875 670 c 1
 916.138671875 670 l 1
957.130859375 1135 m 1
 901.766601562 1218 809.935546875 1270 661.935546875 1270 c 1
 667.224609375 1300 l 1
 833.224609375 1300 917.232421875 1249 981.36328125 1159 c 1
 957.130859375 1135 l 1
659.666015625 690 m 1
 584.375976562 660 l 1
 316.375976562 660 136.21875 523 105.71484375 350 c 0
 71.68359375 157 181.763671875 10 449.763671875 10 c 5
 444.473632812 -20 l 5
 157.473632812 -20 32.6279296875 134 70.71484375 350 c 0
 106.861328125 555 323.66796875 673 496.373046875 677 c 1
 374.428710938 700 221.6484375 809 253.563476562 990 c 0
 289.88671875 1196 461.224609375 1300 667.224609375 1300 c 1
 661.935546875 1270 l 1
 473.935546875 1270 319.068359375 1163 288.563476562 990 c 0
 259.822265625 827 371.666015625 690 659.666015625 690 c 1
EndSplineSet
EndChar

StartChar: parenleft
Encoding: 40 40 85
Width: 1200
Flags: HMW
LayerCount: 2
Fore
SplineSet
1032.38476562 1420 m 1
 1042.09472656 1390 l 5
 688.881835938 1230 552.563476562 990 492.436523438 649 c 0
 432.30859375 308 483.4609375 65 779.3671875 -100 c 1
 759.077148438 -130 l 1
 451.408203125 25 236.202148438 228 310.436523438 649 c 0
 384.669921875 1070 670.935546875 1270 1032.38476562 1420 c 1
EndSplineSet
EndChar

StartChar: parenright
Encoding: 41 41 86
Width: 1200
Flags: HMW
LayerCount: 2
Fore
SplineSet
235.077148438 -130 m 1
 225.3671875 -100 l 5
 578.580078125 60 714.8984375 300 775.025390625 641 c 0
 835.153320312 982 784.000976562 1225 488.094726562 1390 c 1
 508.384765625 1420 l 1
 816.053710938 1265 1031.25878906 1062 957.025390625 641 c 0
 882.791992188 220 596.526367188 20 235.077148438 -130 c 1
EndSplineSet
EndChar

StartChar: question
Encoding: 63 63 87
Width: 1200
Flags: HMW
LayerCount: 2
Fore
SplineSet
265 988 m 1
 243 999 l 1
 343 1149 596 1320 892 1320 c 1
 884 1290 l 1
 616 1290 367 1131 265 988 c 1
392 130 m 4
 392 218 453 280 541 280 c 4
 629 280 690 218 690 130 c 4
 690 42 634 -20 546 -20 c 4
 458 -20 392 42 392 130 c 4
1147 1110 m 0
 1147 1243 1052 1290 884 1290 c 1
 892 1320 l 1
 1048 1320 1182 1266 1182 1110 c 0
 1182 936 1018.29785156 842.256835938 904 764 c 0
 805.935546875 696.857421875 624 546 591 431 c 1
 562 445 l 1
 583 559 782.91015625 728.6640625 886 795 c 0
 1001 869 1147 960 1147 1110 c 0
EndSplineSet
EndChar

StartChar: at
Encoding: 64 64 88
Width: 1200
VWidth: 0
Flags: HMW
LayerCount: 2
Fore
SplineSet
73.453125 530 m 0
 145.39453125 938 464.751953125 1320 872.751953125 1320 c 0
 1200.75195312 1320 1243.60742188 1098 1192.82519531 810 c 0
 1146.62695312 548 1014.8984375 300 844.8984375 300 c 4
 712.8984375 300 771.641601562 446 814.916992188 578 c 1
 876.723632812 696 l 1
 794.7578125 458 622.424804688 320 502.424804688 320 c 0
 396.424804688 320 308.0625 386 337.685546875 554 c 0
 386.704101562 832 732.974609375 998 972.974609375 998 c 1
 981.740234375 991 l 1
 849.916992188 578 l 2
 814.16796875 466 749.1875 330 850.1875 330 c 4
 990.1875 330 1114.27246094 563 1158.70605469 815 c 0
 1203.84667969 1071 1187.46191406 1290 872.461914062 1290 c 0
 476.461914062 1290 174.633789062 911 108.334960938 535 c 0
 52.615234375 219 130.763671875 10 496.763671875 10 c 0
 606.763671875 10 793.81640625 50 908.864257812 124 c 1
 919.6328125 100 l 1
 806.9375 28 624.473632812 -20 486.473632812 -20 c 0
 108.473632812 -20 15.6181640625 202 73.453125 530 c 0
851.723632812 696 m 2
 947.389648438 972 l 1
 709.686523438 951 417.119140625 806 372.685546875 554 c 0
 345.883789062 402 417.71484375 350 507.71484375 350 c 0
 603.71484375 350 772.362304688 467.041992188 851.723632812 696 c 2
EndSplineSet
EndChar

StartChar: bracketleft
Encoding: 91 91 89
Width: 1200
Flags: HMW
LayerCount: 2
Fore
SplineSet
190.006835938 -51 m 1
 437.041015625 1350 l 1
 1079.04101562 1350 l 1
 1071.98828125 1310 l 1
 611.98828125 1310 l 1
 379.060546875 -11 l 5
 839.060546875 -11 l 5
 832.006835938 -51 l 1
 190.006835938 -51 l 1
EndSplineSet
EndChar

StartChar: backslash
Encoding: 92 92 90
Width: 1200
Flags: HMW
LayerCount: 2
Fore
SplineSet
544.041015625 1350 m 1
 797.55078125 -150 l 5
 765.788085938 -160 l 1
 512.278320312 1340 l 1
 544.041015625 1350 l 1
EndSplineSet
EndChar

StartChar: bracketright
Encoding: 93 93 91
Width: 1200
Flags: HMW
LayerCount: 2
Fore
SplineSet
1079.04101562 1350 m 1
 832.006835938 -51 l 1
 190.006835938 -51 l 1
 197.060546875 -11 l 5
 657.060546875 -11 l 5
 889.98828125 1310 l 1
 429.98828125 1310 l 1
 437.041015625 1350 l 1
 1079.04101562 1350 l 1
EndSplineSet
EndChar

StartChar: braceleft
Encoding: 123 123 92
Width: 1200
VWidth: 0
Flags: HMW
LayerCount: 2
Fore
SplineSet
705.72265625 1110 m 2
 711.7421875 974 l 2
 719.264648438 804.048828125 597.897460938 714 421.081054688 664 c 1
 424.607421875 684 l 1
 573.791015625 634 663.986328125 558.411132812 607.709960938 384 c 2
 541.5625 179 l 2
 496.658203125 39.833984375 512.296875 -21 632.296875 -21 c 2
 882.296875 -21 l 1
 877.006835938 -51 l 1
 637.006835938 -51 l 2
 459.006835938 -51 311.280273438 -15.6728515625 371.5625 179 c 2
 441.236328125 404 l 2
 487.522460938 553.475585938 510.375976562 660 340.375976562 660 c 2
 270.375976562 660 l 1
 275.666015625 690 l 1
 345.666015625 690 l 2
 515.666015625 690 537.100585938 796.6328125 536.453125 944 c 2
 535.72265625 1110 l 2
 534.87890625 1301.91308594 706.041015625 1350 884.041015625 1350 c 2
 1124.04101562 1350 l 1
 1118.75195312 1320 l 1
 868.751953125 1320 l 2
 738.751953125 1320 699.297851562 1255.15722656 705.72265625 1110 c 2
EndSplineSet
EndChar

StartChar: grave
Encoding: 96 96 93
Width: 1200
VWidth: 2048
Flags: HMW
LayerCount: 2
Fore
SplineSet
826.669921875 1070 m 5
 807.201171875 1056 l 5
 652.92578125 1338 l 5
 685.452148438 1358 l 5
 826.669921875 1070 l 5
EndSplineSet
EndChar

StartChar: asciicircum
Encoding: 94 94 94
Width: 1200
VWidth: 2048
Flags: HMW
LayerCount: 2
Fore
SplineSet
232.948242188 773 m 5
 203.23828125 801 l 1
 741.224609375 1300 l 1
 768.224609375 1300 l 1
 1119.23828125 801 l 1
 1085.94824219 773 l 5
 738.935546875 1272 l 5
 765.935546875 1272 l 5
 232.948242188 773 l 5
EndSplineSet
EndChar

StartChar: underscore
Encoding: 95 95 95
Width: 1200
Flags: HMW
LayerCount: 2
Fore
SplineSet
139 0 m 1
 901 0 l 1
 895.709960938 -30 l 5
 133.709960938 -30 l 5
 139 0 l 1
EndSplineSet
EndChar

StartChar: bar
Encoding: 124 124 96
Width: 1200
Flags: HMW
LayerCount: 2
Fore
SplineSet
732.224609375 1300 m 5
 766.224609375 1300 l 1
 478.8125 -330 l 1
 444.8125 -330 l 5
 732.224609375 1300 l 5
EndSplineSet
EndChar

StartChar: braceright
Encoding: 125 125 97
Width: 1200
VWidth: 0
Flags: HMW
LayerCount: 2
Fore
SplineSet
563.326171875 189 m 2
 557.306640625 325 l 2
 549.784179688 494.951171875 671.151367188 585 847.967773438 635 c 1
 844.44140625 615 l 1
 695.2578125 665 605.0625 740.588867188 661.338867188 915 c 2
 727.486328125 1120 l 2
 772.391601562 1259.16601562 756.751953125 1320 636.751953125 1320 c 2
 386.751953125 1320 l 1
 392.041015625 1350 l 1
 632.041015625 1350 l 2
 810.041015625 1350 957.768554688 1314.67285156 897.486328125 1120 c 2
 827.8125 895 l 2
 781.526367188 745.524414062 758.672851562 639 928.672851562 639 c 2
 998.672851562 639 l 1
 993.3828125 609 l 1
 923.3828125 609 l 2
 753.3828125 609 731.948242188 502.3671875 732.595703125 355 c 2
 733.326171875 189 l 2
 734.168945312 -2.9130859375 563.006835938 -51 385.006835938 -51 c 2
 145.006835938 -51 l 1
 150.296875 -21 l 1
 400.296875 -21 l 2
 530.296875 -21 569.75 43.8427734375 563.326171875 189 c 2
EndSplineSet
EndChar

StartChar: asciitilde
Encoding: 126 126 99
Width: 1200
VWidth: 2048
Flags: HMW
LayerCount: 2
Back
SplineSet
977 761 m 4
 977 660.094726562 911.005859375 578 811 578 c 4
 719.5 578 658.50390625 627.1328125 600 675 c 4
 541.49609375 722.8671875 480.5 772 389 772 c 4
 288.994140625 772 223 689.905273438 223 589 c 1028
EndSplineSet
Fore
SplineSet
229.356445312 589 m 1
 247.930664062 694.33984375 331.307617188 787 444.76953125 787 c 0
 544.328125 787 601.328125 733.358398438 651.016601562 685.850585938 c 4
 701.456054688 637.625 752.120117188 593 835.561523438 593 c 0
 922.110351562 593 996.674804688 664.529296875 1013.68457031 761 c 1
 1048.68457031 761 l 1
 1030.11035156 655.66015625 950.735351562 563 837.272460938 563 c 0
 737.713867188 563 674.712890625 616.641601562 625.024414062 664.149414062 c 0
 574.5859375 712.375 525.920898438 757 442.479492188 757 c 0
 355.9296875 757 281.3671875 685.471679688 264.356445312 589 c 1
 229.356445312 589 l 1
EndSplineSet
EndChar

StartChar: cent
Encoding: 162 162 101
Width: 1200
Flags: HMW
LayerCount: 2
Fore
SplineSet
1098.53222656 797 m 1
 1077.00585938 777 l 1
 1018.11230469 857 877.458007812 910 740.458007812 910 c 1
 745.747070312 940 l 1
 901.747070312 940 1033.16796875 880 1098.53222656 797 c 1
570 0 m 1
 534.155273438 -260 l 5
 494.155273438 -260 l 1
 550 0 l 1
 570 0 l 1
713.984375 930 m 1
 748.065429688 1180 l 1
 788.065429688 1180 l 1
 733.984375 930 l 1
 713.984375 930 l 1
740.458007812 910 m 1
 457.458007812 910 217.484375 723 165.8203125 430 c 0
 122.973632812 187 257.763671875 10 565.763671875 10 c 1
 560.473632812 -20 l 1
 229.473632812 -20 83.91796875 164 130.8203125 430 c 0
 184.776367188 736 433.747070312 940 745.747070312 940 c 1
 740.458007812 910 l 1
980.162109375 103 m 1
 887.290039062 30 696.473632812 -20 560.473632812 -20 c 1
 565.763671875 10 l 1
 692.763671875 10 884.403320312 59 965.688476562 123 c 1
 980.162109375 103 l 1
EndSplineSet
EndChar

StartChar: sterling
Encoding: 163 163 103
Width: 1200
Flags: HMW
LayerCount: 2
Fore
SplineSet
140.666015625 690 m 1
 792.666015625 690 l 1
 787.375976562 660 l 1
 135.375976562 660 l 1
 140.666015625 690 l 1
1157.51074219 950 m 1
 1125.51074219 950 l 1
 1139.48144531 1154 1026.46191406 1290 808.461914062 1290 c 0
 560.461914062 1290 401.3125 1102 359.404296875 870 c 1
 315.322265625 620 324.37109375 280 160.290039062 30 c 5
 1004.29003906 30 l 1
 999 0 l 1
 30 0 l 1
 35.2900390625 30 l 1
 125.290039062 30 l 1
 289.37109375 280 280.322265625 620 324.404296875 870 c 1
 369.368164062 1125 547.751953125 1320 813.751953125 1320 c 0
 1059.75195312 1320 1183.83398438 1156 1157.51074219 950 c 1
EndSplineSet
EndChar

StartChar: currency
Encoding: 164 164 104
Width: 1200
Flags: HMW
LayerCount: 2
Fore
SplineSet
853.741210938 163 m 1
 1003.46875 14 l 5
 958.768554688 -24 l 1
 840.801757812 152 l 1
 853.741210938 163 l 1
336.479492188 757 m 1
 186.751953125 906 l 1
 231.453125 944 l 1
 349.418945312 768 l 1
 336.479492188 757 l 1
949.595703125 769 m 1
 1129.453125 944 l 1
 1160.92871094 907 l 1
 958.65625 758 l 1
 949.595703125 769 l 1
240.801757812 152 m 1
 60.7685546875 -24 l 1
 30.46875 14 l 1
 231.741210938 163 l 1
 240.801757812 152 l 1
517.526367188 20 m 0
 271.526367188 20 116.680664062 174 167.110351562 460 c 0
 215.776367188 736 445.694335938 900 672.694335938 900 c 0
 899.694335938 900 1083.77636719 736 1035.11035156 460 c 0
 984.680664062 174 773.526367188 20 517.526367188 20 c 0
667.404296875 870 m 0
 449.404296875 870 244.958007812 703 202.110351562 460 c 0
 157.5 207 284.81640625 50 522.81640625 50 c 0
 770.81640625 50 955.5 207 1000.11035156 460 c 0
 1042.95800781 703 895.404296875 870 667.404296875 870 c 0
EndSplineSet
EndChar

StartChar: yen
Encoding: 165 165 105
Width: 1200
Flags: HMW
LayerCount: 2
Back
SplineSet
30 1300 m 5
 508 1300 l 5
 508 1170 l 5
 30 1170 l 5
 30 1300 l 5
710 1300 m 5
 1170 1300 l 5
 1170 1170 l 5
 710 1170 l 5
 710 1300 l 5
510 0 m 5
 510 480 l 5
 87 1300 l 5
 254 1300 l 5
 619 570 l 5
 570 570 l 5
 948 1300 l 5
 1115 1300 l 5
 679 480 l 5
 679 0 l 5
 510 0 l 5
510 450 m 5
 210 440 l 5
 210 590 l 5
 510 550 l 5
 510 450 l 5
510 210 m 5
 210 170 l 5
 210 320 l 5
 510 310 l 5
 510 210 l 5
679 310 m 5
 979 320 l 5
 979 170 l 5
 679 210 l 5
 679 310 l 5
679 550 m 5
 979 590 l 5
 979 440 l 5
 679 450 l 5
 679 550 l 5
EndSplineSet
Fore
SplineSet
179.224609375 1300 m 1
 657.224609375 1300 l 1
 651.935546875 1270 l 1
 173.935546875 1270 l 1
 179.224609375 1300 l 1
859.224609375 1300 m 1
 1319.22460938 1300 l 1
 1313.93554688 1270 l 1
 853.935546875 1270 l 1
 859.224609375 1300 l 1
497 0 m 1
 602.795898438 600 l 1
 306.224609375 1300 l 1
 346.224609375 1300 l 1
 635.677734375 605 l 1
 606.677734375 605 l 1
 1154.22460938 1300 l 1
 1194.22460938 1300 l 1
 637.795898438 600 l 1
 532 0 l 1
 497 0 l 1
603.453125 530 m 1
 221.690429688 520 l 1
 228.743164062 560 l 1
 606.979492188 550 l 1
 603.453125 530 l 1
552.318359375 240 m 1
 170.555664062 230 l 1
 177.608398438 270 l 1
 555.844726562 260 l 5
 552.318359375 240 l 1
564.844726562 260 m 5
 946.608398438 270 l 1
 939.555664062 230 l 1
 561.318359375 240 l 1
 564.844726562 260 l 5
615.979492188 550 m 1
 997.743164062 560 l 1
 990.690429688 520 l 1
 612.453125 530 l 1
 615.979492188 550 l 1
EndSplineSet
EndChar

StartChar: brokenbar
Encoding: 166 166 106
Width: 1200
Flags: HMW
LayerCount: 2
Back
SplineSet
515.5 1300 m 5
 684.5 1300 l 5
 684.5 -330 l 5
 515.5 -330 l 5
 515.5 1300 l 5
EndSplineSet
Fore
SplineSet
564.71484375 350 m 1
 598.71484375 350 l 1
 478.8125 -330 l 1
 444.8125 -330 l 1
 564.71484375 350 l 1
732.224609375 1300 m 1
 766.224609375 1300 l 1
 646.322265625 620 l 1
 612.322265625 620 l 1
 732.224609375 1300 l 1
EndSplineSet
EndChar

StartChar: section
Encoding: 167 167 107
Width: 1200
Flags: HMW
LayerCount: 2
Fore
SplineSet
1113.36328125 1159 m 1
 1090.83691406 1139 l 1
 1023.70800781 1212 902.698242188 1280 734.698242188 1280 c 0
 483.698242188 1280 348.771484375 1184 325.143554688 1050 c 0
 294.462890625 876 557.682617188 820.198242188 687.358398438 779 c 0
 910.83984375 708 1062.08105469 664 1030.6953125 486 c 0
 993.666015625 276 778.15234375 171 556.15234375 171 c 1
 558.796875 186 l 1
 760.796875 186 964.1328125 307 995.6953125 486 c 4
 1023.20214844 642 888.063476562 681.567382812 673.245117188 750 c 0
 505.252929688 803.515625 255.583007812 854 290.143554688 1050 c 0
 315.88671875 1196 463.98828125 1310 739.98828125 1310 c 0
 935.98828125 1310 1053.70605469 1229 1113.36328125 1159 c 1
663.008789062 760 m 1
 422.008789062 760 247.081054688 664 219.926757812 510 c 0
 185.719726562 316 422.803710938 237.036132812 574.560546875 196 c 0
 797.706054688 135.659179688 959.811523438 84 928.424804688 -94 c 0
 891.396484375 -304 677.645507812 -399 455.645507812 -399 c 0
 238.645507812 -399 69.0458984375 -323 -12.615234375 -219 c 1
 12.263671875 -197 l 1
 95.9833984375 -295 258.935546875 -369 460.935546875 -369 c 0
 662.935546875 -369 860.099609375 -283 893.424804688 -94 c 0
 924.458984375 82 727.967773438 119.567382812 559.446289062 167 c 0
 388.91015625 215 146.83984375 294 184.926757812 510 c 0
 212.43359375 666 391.416992188 785 667.416992188 785 c 1
 663.008789062 760 l 1
EndSplineSet
EndChar

StartChar: dieresis
Encoding: 168 168 108
Width: 1200
VWidth: 2379
Flags: HMW
LayerCount: 2
Fore
SplineSet
916 1307 m 0
 916 1335 932 1352 960 1352 c 0
 988 1352 1005 1335 1005 1307 c 0
 1005 1279 989 1262 961 1262 c 0
 933 1262 916 1279 916 1307 c 0
476 1307 m 0
 476 1335 492 1352 520 1352 c 0
 548 1352 565 1335 565 1307 c 0
 565 1279 549 1262 521 1262 c 0
 493 1262 476 1279 476 1307 c 0
EndSplineSet
EndChar

StartChar: ordfeminine
Encoding: 170 170 109
Width: 1200
Flags: HMW
LayerCount: 2
Fore
SplineSet
997.665039062 1104 m 2
 918.670898438 656 l 1
 883.670898438 656 l 9
 962.665039062 1104 l 2
 979.416015625 1199 924.637695312 1291 787.637695312 1291 c 0
 664.637695312 1291 542.706054688 1229 457.184570312 1175 c 1
 443.9453125 1202 l 1
 539.758789062 1269 675.927734375 1321 792.927734375 1321 c 0
 958.927734375 1321 1017.06054688 1214 997.665039062 1104 c 2
364.059570312 817 m 0
 347.307617188 722 411.725585938 679 503.725585938 679 c 0
 650.725585938 679 820.361328125 762 925.172851562 846 c 5
 935.587890625 820 l 5
 830.305664062 739 659.436523438 649 498.436523438 649 c 0
 388.436523438 649 311.07421875 715 329.059570312 817 c 0
 360.268554688 994 695.676757812 1019 959.727539062 1076 c 1
 964.26171875 1045 l 1
 719.916015625 992 390.684570312 968 364.059570312 817 c 0
EndSplineSet
EndChar

StartChar: copyright
Encoding: 169 169 110
Width: 1200
Flags: HMW
LayerCount: 2
Fore
SplineSet
874.564453125 576 m 1
 841.919921875 561 l 1
 830.497070312 638 764.25 716 665.25 716 c 1
 670.540039062 746 l 1
 789.540039062 746 870.5546875 644 874.564453125 576 c 1
665.25 716 m 1
 490.25 716 382.677734375 605 356.934570312 459 c 0
 332.954101562 323 401.734375 214 564.734375 214 c 1
 559.444335938 184 l 1
 367.444335938 184 296.190429688 313 321.934570312 459 c 0
 352.615234375 633 482.540039062 746 670.540039062 746 c 1
 665.25 716 l 1
844.1875 330 m 1
 787.431640625 269 684.444335938 184 559.444335938 184 c 1
 564.734375 214 l 5
 679.734375 214 779.8984375 300 823.71484375 350 c 5
 844.1875 330 l 1
510.473632812 -20 m 0
 234.473632812 -20 41.390625 144 97.1103515625 460 c 0
 151.06640625 766 422.747070312 940 679.747070312 940 c 0
 936.747070312 940 1159.06640625 766 1105.11035156 460 c 0
 1049.390625 144 786.473632812 -20 510.473632812 -20 c 0
674.458007812 910 m 0
 436.458007812 910 183.774414062 753 132.110351562 460 c 0
 78.68359375 157 257.763671875 10 515.763671875 10 c 0
 773.763671875 10 1016.68359375 157 1070.11035156 460 c 0
 1121.77441406 753 912.458007812 910 674.458007812 910 c 0
EndSplineSet
EndChar

StartChar: registered
Encoding: 174 174 111
Width: 1200
Flags: HMW
LayerCount: 2
Fore
SplineSet
635.3515625 416 m 1
 755.147460938 205 l 1
 724.796875 186 l 1
 605.3515625 416 l 1
 635.3515625 416 l 1
356.560546875 196 m 1
 447.897460938 714 l 1
 652.897460938 714 l 2
 792.897460938 714 866.315429688 671 845.33203125 552 c 0
 825.583984375 440 723.614257812 396 596.825195312 396 c 2
 421.825195312 396 l 1
 386.560546875 196 l 1
 356.560546875 196 l 1
427.115234375 426 m 1
 602.115234375 426 l 2
 704.994140625 426 791.641601562 446 810.33203125 552 c 4
 828.494140625 655 774.479492188 684 647.607421875 684 c 2
 472.607421875 684 l 1
 427.115234375 426 l 1
510.473632812 -20 m 0
 234.473632812 -20 41.390625 144 97.1103515625 460 c 0
 151.06640625 766 422.747070312 940 679.747070312 940 c 0
 936.747070312 940 1159.06640625 766 1105.11035156 460 c 0
 1049.390625 144 786.473632812 -20 510.473632812 -20 c 0
674.458007812 910 m 0
 436.458007812 910 185.537109375 763 132.110351562 460 c 0
 80.4462890625 167 257.763671875 10 515.763671875 10 c 0
 773.763671875 10 1018.44628906 167 1070.11035156 460 c 0
 1123.53710938 763 912.458007812 910 674.458007812 910 c 0
EndSplineSet
EndChar

StartChar: logicalnot
Encoding: 172 172 113
Width: 1200
Flags: HMW
LayerCount: 2
Fore
SplineSet
310.666015625 690 m 1
 922.666015625 690 l 1
 876.8203125 430 l 1
 846.8203125 430 l 5
 887.375976562 660 l 5
 305.375976562 660 l 1
 310.666015625 690 l 1
EndSplineSet
EndChar

StartChar: guillemotleft
Encoding: 171 171 114
Width: 1200
Flags: HMW
LayerCount: 2
Fore
SplineSet
601.571289062 525 m 1
 1003.22070312 920 l 1
 1019.69433594 900 l 1
 651.571289062 525 l 1
 887.44921875 150 l 1
 863.922851562 130 l 1
 601.571289062 525 l 1
201.571289062 525 m 5
 603.220703125 920 l 5
 619.694335938 900 l 5
 251.571289062 525 l 5
 487.44921875 150 l 5
 463.922851562 130 l 5
 201.571289062 525 l 5
EndSplineSet
EndChar

StartChar: ordmasculine
Encoding: 186 186 115
Width: 1200
Flags: HMW
LayerCount: 2
Fore
SplineSet
630.259765625 648 m 0
 437.259765625 648 322.537109375 763 361.505859375 984 c 0
 399.239257812 1198 568.751953125 1320 748.751953125 1320 c 4
 928.751953125 1320 1063.23925781 1198 1025.50585938 984 c 4
 986.537109375 763 823.259765625 648 630.259765625 648 c 0
743.461914062 1290 m 4
 585.461914062 1290 431.594726562 1183 396.505859375 984 c 4
 360.182617188 778 463.549804688 678 635.549804688 678 c 4
 807.549804688 678 954.182617188 778 990.505859375 984 c 4
 1025.59472656 1183 901.461914062 1290 743.461914062 1290 c 4
EndSplineSet
EndChar

StartChar: degree
Encoding: 176 176 116
Width: 1200
Flags: HMW
LayerCount: 2
Fore
SplineSet
665.525390625 848 m 0
 512.525390625 848 434.276367188 943 459.138671875 1084 c 0
 482.766601562 1218 608.751953125 1320 748.751953125 1320 c 0
 878.751953125 1320 976.766601562 1218 953.138671875 1084 c 0
 928.276367188 943 808.525390625 848 665.525390625 848 c 0
743.461914062 1290 m 4
 625.461914062 1290 515.12109375 1203 494.138671875 1084 c 0
 471.920898438 958 548.815429688 878 670.815429688 878 c 4
 792.815429688 878 895.920898438 958 918.138671875 1084 c 0
 939.12109375 1203 861.461914062 1290 743.461914062 1290 c 4
EndSplineSet
EndChar

StartChar: acute
Encoding: 180 180 117
Width: 1200
VWidth: 2048
Flags: HMW
LayerCount: 2
Fore
SplineSet
605.669921875 1070 m 1
 848.452148438 1358 l 1
 878.92578125 1333 l 5
 625.201171875 1051 l 5
 605.669921875 1070 l 1
EndSplineSet
EndChar

StartChar: plusminus
Encoding: 177 177 119
Width: 1200
Flags: HMW
LayerCount: 2
Fore
SplineSet
154.290039062 30 m 5
 896.290039062 30 l 5
 891 0 l 1
 149 0 l 1
 154.290039062 30 l 5
684.6171875 1030 m 1
 718.6171875 1030 l 1
 593.424804688 320 l 1
 559.424804688 320 l 1
 684.6171875 1030 l 1
270.666015625 690 m 1
 1012.66601562 690 l 1
 1007.37597656 660 l 1
 265.375976562 660 l 1
 270.666015625 690 l 1
EndSplineSet
EndChar

StartChar: cedilla
Encoding: 184 184 122
Width: 1200
VWidth: 0
Flags: HMW
LayerCount: 2
Fore
SplineSet
390.599609375 -490 m 256
 316.599609375 -490 251.420898438 -474 202.473632812 -434 c 257
 216.881835938 -409 l 257
 263.829101562 -449 323.889648438 -460 395.889648438 -460 c 256
 529.889648438 -460 653.529296875 -411 672.749023438 -302 c 256
 690.029296875 -204 580.314453125 -140 376.444335938 -230 c 261
 401.966796875 -176 l 257
 615.342773438 70 l 257
 652.342773438 70 l 257
 412.029296875 -204 l 257
 387.502929688 -224 l 257
 414.555664062 -184 507.845703125 -154 557.845703125 -154 c 256
 643.845703125 -154 725.381835938 -202 707.749023438 -302 c 256
 685.1796875 -430 544.599609375 -490 390.599609375 -490 c 256
EndSplineSet
EndChar

StartChar: periodcentered
Encoding: 183 183 123
Width: 1200
VWidth: 2379
Flags: HMW
LayerCount: 2
Fore
SplineSet
558 676 m 4
 558 742 604 788 670 788 c 4
 736 788 782 742 782 676 c 4
 782 610 740 564 674 564 c 4
 608 564 558 610 558 676 c 4
EndSplineSet
EndChar

StartChar: paragraph
Encoding: 182 182 124
Width: 1200
Flags: HMW
LayerCount: 2
Fore
SplineSet
746.971679688 -210 m 1
 1009.69824219 1280 l 1
 1044.69824219 1280 l 5
 781.971679688 -210 l 5
 746.971679688 -210 l 1
466.971679688 -210 m 1
 597.453125 530 l 1
 472.453125 530 l 2
 305.453125 530 137.081054688 664 180.458007812 910 c 0
 225.59765625 1166 422.224609375 1300 708.224609375 1300 c 2
 1270.22460938 1300 l 1
 1264.05371094 1265 l 1
 763.817382812 1275 l 1
 501.971679688 -210 l 1
 466.971679688 -210 l 1
EndSplineSet
EndChar

StartChar: mu
Encoding: 181 181 125
Width: 1200
Flags: HMW
LayerCount: 2
Fore
SplineSet
234.220703125 920 m 1
 269.220703125 920 l 1
 36.46875 -400 l 1
 1.46875 -400 l 1
 234.220703125 920 l 1
905.290039062 30 m 1
 1065.29003906 30 l 1
 1060 0 l 1
 900 0 l 1
 905.290039062 30 l 1
153.71484375 350 m 2
 254.220703125 920 l 1
 269.220703125 920 l 1
 166.951171875 340 l 2
 134.68359375 157 250.763671875 10 428.763671875 10 c 4
 676.763671875 10 912.079101562 267 958.453125 530 c 2
 1027.22070312 920 l 1
 1062.22070312 920 l 1
 900 0 l 1
 880 0 l 5
 950.63671875 480 l 1
 978.453125 530 l 5
 928.0234375 244 690.473632812 -20 423.473632812 -20 c 0
 231.473632812 -20 112.1015625 114 153.71484375 350 c 2
EndSplineSet
EndChar

StartChar: uni2071
Encoding: 8305 8305 126
Width: 1200
Flags: HMW
LayerCount: 2
Fore
SplineSet
309.559570312 610 m 1
 314.849609375 640 l 1
 669.849609375 640 l 1
 780.935546875 1270 l 1
 501.935546875 1270 l 1
 507.224609375 1300 l 1
 821.224609375 1300 l 5
 704.849609375 640 l 5
 960.849609375 640 l 1
 955.559570312 610 l 1
 309.559570312 610 l 1
EndSplineSet
EndChar

StartChar: uni2072
Encoding: 8306 8306 127
Width: 1200
Flags: HMW
LayerCount: 2
Fore
SplineSet
407.368164062 1125 m 1
 529.348632812 1261 669.751953125 1320 811.751953125 1320 c 0
 960.751953125 1320 1049.23242188 1249 1029.13085938 1135 c 4
 1007.61914062 1013 821.392578125 955 673.989257812 896 c 0
 551.348632812 847 443.184570312 761 367.849609375 640 c 5
 930.849609375 640 l 1
 925.559570312 610 l 1
 335.559570312 610 l 1
 327.67578125 622 l 1
 389.953125 737 489.469726562 857.234375 669.455078125 927 c 0
 816.505859375 984 976.02734375 1038 993.130859375 1135 c 4
 1007.58984375 1217 948.461914062 1290 806.461914062 1290 c 0
 678.461914062 1290 539.411132812 1233 424.370117188 1108 c 1
 407.368164062 1125 l 1
EndSplineSet
EndChar

StartChar: uni2070
Encoding: 8304 8304 128
Width: 1200
Flags: HMW
LayerCount: 2
Fore
SplineSet
620.033203125 590 m 0
 387.033203125 590 267.600585938 735 306.568359375 956 c 0
 344.302734375 1170 528.751953125 1320 748.751953125 1320 c 0
 968.751953125 1320 1108.30273438 1170 1070.56835938 956 c 0
 1031.60058594 735 853.033203125 590 620.033203125 590 c 0
743.461914062 1290 m 0
 545.461914062 1290 376.657226562 1155 341.568359375 956 c 0
 305.245117188 750 413.322265625 620 625.322265625 620 c 0
 837.322265625 620 999.245117188 750 1035.56835938 956 c 0
 1070.65722656 1155 941.461914062 1290 743.461914062 1290 c 0
EndSplineSet
EndChar

StartChar: uni2073
Encoding: 8307 8307 129
Width: 1200
Flags: HMW
LayerCount: 2
Fore
SplineSet
442.655273438 1172 m 1
 426.181640625 1192 l 1
 495.99609375 1259 646.927734375 1321 765.927734375 1321 c 0
 920.927734375 1321 1017.9375 1253 999.247070312 1147 c 0
 981.438476562 1046 832.384765625 1006 760.858398438 986 c 5
 827.094726562 976 1000.984375 930 977.885742188 799 c 0
 955.66796875 673 822.033203125 590 617.033203125 590 c 0
 448.033203125 590 353.373046875 677 317.1875 744 c 1
 343.537109375 763 l 1
 382.487304688 706 471.322265625 620 622.322265625 620 c 0
 808.322265625 620 924.900390625 697 942.885742188 799 c 0
 961.928710938 907 788.5078125 967 691.5078125 967 c 2
 549.5078125 967 l 1
 554.797851562 997 l 1
 656.797851562 997 l 2
 753.797851562 997 948.73046875 1059 964.247070312 1147 c 0
 978.706054688 1229 896.637695312 1291 760.637695312 1291 c 0
 649.637695312 1291 511.881835938 1230 442.655273438 1172 c 1
EndSplineSet
EndChar

StartChar: uni2074
Encoding: 8308 8308 130
Width: 1200
Flags: HMW
LayerCount: 2
Fore
SplineSet
780.559570312 610 m 1
 864.314453125 1085 l 1
 903.72265625 1110 l 1
 815.559570312 610 l 1
 780.559570312 610 l 1
393.877929688 850 m 5
 1079.87792969 850 l 1
 1074.58789062 820 l 1
 364.587890625 820 l 1
 350.877929688 850 l 1
 863.8046875 1360 l 1
 908.8046875 1360 l 1
 393.877929688 850 l 5
EndSplineSet
EndChar

StartChar: uni2075
Encoding: 8309 8309 131
Width: 1200
Flags: HMW
LayerCount: 2
Fore
SplineSet
1016.22460938 1300 m 1
 1010.93554688 1270 l 1
 503.935546875 1270 l 1
 445.268554688 994 l 1
 698.268554688 994 l 2
 908.268554688 994 1004.51074219 950 983.174804688 829 c 0
 957.431640625 683 822.033203125 590 617.033203125 590 c 0
 448.033203125 590 353.373046875 677 317.1875 744 c 1
 345.361328125 762 l 1
 384.310546875 705 461.322265625 620 622.322265625 620 c 0
 808.322265625 620 924.900390625 697 948.174804688 829 c 0
 965.455078125 927 877.979492188 964 690.979492188 964 c 2
 429.979492188 964 l 5
 413.505859375 984 l 1
 479.224609375 1300 l 1
 1016.22460938 1300 l 1
EndSplineSet
EndChar

StartChar: uni2076
Encoding: 8310 8310 132
Width: 1200
VWidth: 2310
Flags: HMW
LayerCount: 2
Fore
SplineSet
1049.05371094 1265 m 5
 707.6328125 1325 415.766601562 1218 354.93359375 873 c 5
 334.93359375 873 l 5
 351.33203125 966 577.6171875 1030 759.6171875 1030 c 4
 925.6171875 1030 1101.20898438 1005 1072.99609375 845 c 4
 1044.78417969 685 856.033203125 590 644.033203125 590 c 4
 418.033203125 590 290.83984375 708 325.223632812 903 c 4
 380.942382812 1219 690.8046875 1360 1065.22460938 1300 c 5
 1049.05371094 1265 l 5
1037.99609375 845 m 4
 1061.09472656 976 910.327148438 1000 754.327148438 1000 c 4
 604.327148438 1000 365.512695312 933 354.93359375 873 c 4
 332.36328125 745 435.322265625 620 649.322265625 620 c 4
 840.322265625 620 1013.66308594 707 1037.99609375 845 c 4
EndSplineSet
EndChar

StartChar: uni2077
Encoding: 8311 8311 133
Width: 1200
Flags: HMW
LayerCount: 2
Fore
SplineSet
1123.22460938 1300 m 1
 1131.34570312 1278 l 1
 895.133789062 1118 684.994140625 862 583.26953125 580 c 1
 555.033203125 590 l 1
 664.756835938 872 844.72265625 1110 1080.93554688 1270 c 1
 436.935546875 1270 l 5
 355.143554688 1050 l 1
 336.143554688 1050 l 1
 410.224609375 1300 l 1
 1123.22460938 1300 l 1
EndSplineSet
EndChar

StartChar: uni2079
Encoding: 8313 8313 134
Width: 1200
VWidth: 2310
Flags: HMW
LayerCount: 2
Fore
SplineSet
377.73046875 645 m 1
 719.151367188 585 1011.01855469 692 1071.8515625 1037 c 1
 1091.8515625 1037 l 1
 1075.453125 944 849.16796875 880 667.16796875 880 c 0
 501.16796875 880 325.576171875 905 353.788085938 1065 c 0
 382.000976562 1225 570.751953125 1320 782.751953125 1320 c 0
 1008.75195312 1320 1135.9453125 1202 1101.56152344 1007 c 0
 1045.84179688 691 735.979492188 550 361.559570312 610 c 1
 377.73046875 645 l 1
388.788085938 1065 m 0
 365.689453125 934 516.458007812 910 672.458007812 910 c 0
 822.458007812 910 1061.27148438 977 1071.8515625 1037 c 0
 1094.42089844 1165 991.461914062 1290 777.461914062 1290 c 0
 586.461914062 1290 413.12109375 1203 388.788085938 1065 c 0
EndSplineSet
EndChar

StartChar: uni2078
Encoding: 8312 8312 135
Width: 1200
Flags: HMW
LayerCount: 2
Fore
SplineSet
687.448242188 978 m 0
 460.448242188 978 382.674804688 1036 401.012695312 1140 c 0
 420.76171875 1252 534.751953125 1320 747.751953125 1320 c 0
 960.751953125 1320 1057.76171875 1252 1038.01269531 1140 c 0
 1018.26367188 1028 914.448242188 978 687.448242188 978 c 0
742.461914062 1290 m 0
 546.461914062 1290 453.645507812 1240 436.012695312 1140 c 0
 419.26171875 1045 544.4453125 995 690.4453125 995 c 0
 844.4453125 995 985.02734375 1038 1003.01269531 1140 c 0
 1020.64550781 1240 946.461914062 1290 742.461914062 1290 c 0
619.033203125 590 m 0
 362.033203125 590 255.670898438 656 281.061523438 800 c 0
 304.689453125 934 445.153320312 982 688.153320312 982 c 0
 931.153320312 982 1054.68945312 934 1031.06152344 800 c 0
 1005.67089844 656 876.033203125 590 619.033203125 590 c 0
685.155273438 965 m 0
 519.155273438 965 337.220703125 920 316.061523438 800 c 4
 293.66796875 673 383.322265625 620 624.322265625 620 c 0
 855.322265625 620 973.66796875 673 996.061523438 800 c 4
 1017.22070312 920 851.155273438 965 685.155273438 965 c 0
EndSplineSet
EndChar

StartChar: fraction
Encoding: 8260 8260 146
Width: 1200
VWidth: 2048
Flags: HMW
LayerCount: 2
Fore
SplineSet
1129.22460938 1300 m 1
 197.922851562 130 l 5
 162.922851562 130 l 1
 1094.22460938 1300 l 1
 1129.22460938 1300 l 1
EndSplineSet
EndChar

StartChar: onequarter
Encoding: 188 188 147
Width: 1200
Flags: HMW
LayerCount: 2
Fore
SplineSet
99 640 m 5
 1101 640 l 5
 1101 610 l 1
 99 610 l 1
 99 640 l 5
EndSplineSet
Refer: 126 8305 N 1 0 0 1 30 300 2
Refer: 130 8308 N 1 0 0 1 -190 -1010 2
EndChar

StartChar: threequarters
Encoding: 190 190 148
Width: 1200
Flags: HMW
LayerCount: 2
Fore
SplineSet
99 640 m 5
 1101 640 l 5
 1101 610 l 1
 99 610 l 1
 99 640 l 5
EndSplineSet
Refer: 129 8307 N 1 0 0 1 30 300 2
Refer: 130 8308 N 1 0 0 1 -190 -1010 2
EndChar

StartChar: onehalf
Encoding: 189 189 149
Width: 1200
Flags: HMW
LayerCount: 2
Fore
SplineSet
99 640 m 1
 1101 640 l 1
 1101 610 l 5
 99 610 l 5
 99 640 l 1
EndSplineSet
Refer: 126 8305 N 1 0 0 1 30 300 2
Refer: 127 8306 N 1 0 0 1 -190 -1010 2
EndChar

StartChar: multiply
Encoding: 215 215 152
Width: 1200
Flags: HMW
LayerCount: 2
Fore
SplineSet
338 915 m 5
 360 937 l 1
 862 435 l 1
 840 413 l 5
 338 915 l 5
327 424 m 1
 851 948 l 1
 873 926 l 1
 349 402 l 1
 327 424 l 1
EndSplineSet
EndChar

StartChar: divide
Encoding: 247 247 154
Width: 1200
Flags: HMW
LayerCount: 2
Fore
SplineSet
229 690 m 5
 971 690 l 5
 971 660 l 1
 229 660 l 1
 229 690 l 5
EndSplineSet
Refer: 59 46 N 0.75 0 0 0.75 150 852 2
Refer: 59 46 N 0.75 0 0 0.75 150 302 2
EndChar

StartChar: dotlessi
Encoding: 305 305 155
Width: 1200
Flags: HMW
AnchorPoint: "Anchor-2" 597 0 basechar 0
AnchorPoint: "Anchor-0" 676 920 basechar 0
LayerCount: 2
Fore
SplineSet
698 895 m 1
 203 890 l 1
 212 920 l 1
 711 920 l 1
 553 239 l 2
 513.473370549 68.6352236947 520.384765625 5 606 5 c 0
 746 5 954 152 1083 264 c 1
 1103 242 l 1
 951 102 749 -25 609 -25 c 0
 509 -25 469.659084555 43.6228692647 517 240 c 2
 679 912 l 1
 698 895 l 1
EndSplineSet
EndChar

StartChar: AE
Encoding: 198 198 156
Width: 1200
Flags: HMW
LayerCount: 2
Fore
SplineSet
280.224609375 1300 m 1
 629.224609375 1300 l 1
 624.817382812 1275 l 1
 274.053710938 1265 l 1
 280.224609375 1300 l 1
-76.5263671875 -20 m 1
 -116.526367188 -20 l 1
 629.224609375 1300 l 1
 843.224609375 1300 l 1
 648.288085938 1272 l 1
 -76.5263671875 -20 l 1
197.163085938 500 m 1
 620.163085938 500 l 1
 614.874023438 470 l 1
 191.874023438 470 l 1
 197.163085938 500 l 1
1053.19433594 693 m 5
 1047.37597656 660 l 1
 662.2578125 665 l 1
 550.290039062 30 l 1
 1033.29003906 30 l 1
 1120.34667969 450 l 1
 1139.34667969 450 l 1
 1060 0 l 1
 370 0 l 1
 375.290039062 30 l 1
 515.290039062 30 l 1
 739.224609375 1300 l 1
 1249.22460938 1300 l 1
 1218.69433594 900 l 1
 1199.69433594 900 l 1
 1214.93554688 1270 l 1
 768.935546875 1270 l 1
 666.3125 688 l 1
 1053.19433594 693 l 5
EndSplineSet
Substitution2: "'c2sc' Capitals to Small Capitals in Latin lookup 0 subtable" ae.sc
EndChar

StartChar: ij
Encoding: 307 307 157
Width: 1200
Flags: HMW
LayerCount: 2
Fore
SplineSet
451 1335 m 4
 451 1363 467 1380 495 1380 c 4
 523 1380 540 1363 540 1335 c 4
 540 1307 524 1290 496 1290 c 4
 468 1290 451 1307 451 1335 c 4
1001 1335 m 0
 1001 1363 1017 1380 1045 1380 c 0
 1073 1380 1090 1363 1090 1335 c 0
 1090 1307 1074 1290 1046 1290 c 0
 1018 1290 1001 1307 1001 1335 c 0
468 895 m 1
 163 890 l 1
 172 920 l 1
 481 920 l 1
 323 239 l 2
 283.473632812 68.634765625 290.384765625 5 376 5 c 0
 516 5 654 122 753 204 c 1
 773 182 l 1
 651 72 519 -25 379 -25 c 0
 279 -25 239.659179688 43.623046875 287 240 c 2
 449 912 l 1
 468 895 l 1
474 -400 m 1
 474 -430 l 1
 287 -430 161 -331 104 -231 c 1
 130 -213 l 1
 194 -313 306 -400 474 -400 c 1
1071 920 m 1
 942 10 l 2
 900.057617188 -285.87109375 761 -430 474 -430 c 1
 474 -400 l 1
 732 -400 866.141601562 -270.903320312 907 10 c 2
 1035 890 l 1
 730 890 l 1
 732 920 l 1
 1071 920 l 1
EndSplineSet
Substitution2: "'smcp' Lowercase to Small Capitals in Latin lookup 0 subtable" ij.sc
EndChar

StartChar: IJ
Encoding: 306 306 158
Width: 1200
Flags: HMW
LayerCount: 2
Fore
SplineSet
10 0 m 1
 15.2900390625 30 l 1
 240.290039062 30 l 1
 458.935546875 1270 l 1
 243.935546875 1270 l 1
 249.224609375 1300 l 1
 709.224609375 1300 l 1
 703.935546875 1270 l 1
 488.935546875 1270 l 1
 270.290039062 30 l 1
 495.290039062 30 l 1
 490 0 l 1
 10 0 l 1
608.763671875 10 m 5
 846.763671875 10 961.68359375 187 1004.8203125 430 c 6
 1153.93554688 1270 l 1
 824.935546875 1270 l 1
 830.224609375 1300 l 1
 1189.22460938 1300 l 1
 1034.8203125 430 l 2
 989.680664062 174 871.473632812 -20 605.473632812 -20 c 1
 608.763671875 10 l 5
EndSplineSet
Substitution2: "'c2sc' Capitals to Small Capitals in Latin lookup 0 subtable" ij.sc
EndChar

StartChar: uni0237
Encoding: 567 567 159
Width: 1200
Flags: HMW
AnchorPoint: "Anchor-0" 706 920 basechar 0
LayerCount: 2
Fore
SplineSet
394 -400 m 5
 394 -430 l 5
 207 -430 81 -331 24 -231 c 5
 50 -213 l 5
 114 -313 226 -400 394 -400 c 5
991 920 m 5
 862 10 l 6
 820.057887257 -285.8707178 681 -430 394 -430 c 5
 394 -400 l 5
 652 -400 786.141317983 -270.903438866 827 10 c 6
 955 890 l 5
 400 890 l 5
 402 920 l 5
 991 920 l 5
EndSplineSet
EndChar

StartChar: ae
Encoding: 230 230 160
Width: 1200
Flags: HMW
LayerCount: 2
Fore
SplineSet
637 610 m 2
 573 155 l 1
 538 120 l 9
 615 610 l 2
 630 703 660 910 532 910 c 0
 434 910 321 858 211 748 c 1
 192 770 l 1
 324 896 425 940 532 940 c 0
 679 940 659 768 637 610 c 2
67 200 m 0
 43.4027500209 74.1113872284 115 10 233 10 c 0
 381 10 482 117 594 240 c 5
 614 210 l 1
 520 74 380 -20 233 -20 c 0
 77 -20 11 74 33 200 c 0
 72 423 362 508 635 619 c 1
 635 589 l 1
 390 484 103.386386061 394.117181838 67 200 c 0
1055 79 m 1
 985 23 906 -20 810 -20 c 1
 810 10 l 1
 867 10 969 49 1035 107 c 1
 1055 79 l 1
810 -20 m 1
 584 -20 551 194 602 480 c 0
 651 756 788 940 975 940 c 0
 1122 940 1162.42394162 800.279940651 1127 682 c 0
 1068 485 849 426 615 429 c 1
 615 457 l 1
 615 457 855.763671875 431.8046875 1017 572 c 0
 1117.39160156 659.291015625 1155 910 975 910 c 0
 767 910 666.147650311 672.973930826 632 480 c 0
 589 237 602 10 810 10 c 1
 810 -20 l 1
EndSplineSet
Substitution2: "'smcp' Lowercase to Small Capitals in Latin lookup 0 subtable" ae.sc
EndChar

StartChar: dagger
Encoding: 8224 8224 176
Width: 1200
Flags: HMW
LayerCount: 2
Fore
SplineSet
731.224609375 1300 m 1
 767.224609375 1300 l 1
 538 0 l 1
 502 0 l 1
 731.224609375 1300 l 1
215.327148438 1000 m 1
 1177.32714844 1000 l 1
 1172.03710938 970 l 5
 210.037109375 970 l 5
 215.327148438 1000 l 1
EndSplineSet
EndChar

StartChar: daggerdbl
Encoding: 8225 8225 177
Width: 1200
Flags: HMW
LayerCount: 2
Fore
SplineSet
97.1875 330 m 5
 1059.1875 330 l 5
 1053.8984375 300 l 1
 91.8984375 300 l 1
 97.1875 330 l 5
732.224609375 1300 m 1
 766.224609375 1300 l 1
 537 0 l 1
 503 0 l 1
 732.224609375 1300 l 1
215.327148438 1000 m 1
 1177.32714844 1000 l 1
 1172.03710938 970 l 1
 210.037109375 970 l 1
 215.327148438 1000 l 1
EndSplineSet
EndChar

StartChar: Thorn
Encoding: 222 222 178
Width: 1200
Flags: HMW
LayerCount: 2
Fore
SplineSet
20 0 m 1
 25.2900390625 30 l 1
 235.290039062 30 l 1
 453.935546875 1270 l 1
 243.935546875 1270 l 1
 249.224609375 1300 l 1
 494.224609375 1300 l 5
 450.143554688 1050 l 5
 787.143554688 1050 l 2
 1073.14355469 1050 1204.27832031 926 1162.66601562 690 c 0
 1122.81542969 464 928.951171875 340 661.951171875 340 c 2
 324.951171875 340 l 5
 270.290039062 30 l 5
 594.290039062 30 l 1
 589 0 l 1
 20 0 l 1
330.241210938 370 m 5
 667.241210938 370 l 2
 915.241210938 370 1090.10839844 477 1127.66601562 690 c 0
 1165.22363281 903 1049.85351562 1020 781.853515625 1020 c 2
 444.853515625 1020 l 5
 330.241210938 370 l 5
EndSplineSet
EndChar

StartChar: germandbls
Encoding: 223 223 179
Width: 1200
Flags: HMW
LayerCount: 2
Fore
SplineSet
103 -330 m 1
 335 1000 l 2
 378 1246 486 1440 763 1440 c 1
 758 1410 l 1
 490 1410 407.007887279 1211.24673854 370 1000 c 2
 137 -330 l 1
 103 -330 l 1
763 1440 m 1
 981 1440 1038.55625805 1269.68831713 1017 1179 c 0
 991.641127507 1072.31388288 933.728515625 1019.14941406 872 967 c 0
 814 918 663.913974003 853.464121028 657 797 c 0
 645 699 789.756835938 703.741210938 884 659 c 4
 1008.88476562 599.711914062 1064.97558594 504.584960938 1060 346 c 0
 1053.86916534 150.59423533 929 1 711 1 c 0
 657 1 568 11 508 43 c 1
 518 73 l 1
 564 47 673 31 711 31 c 0
 891 31 1025 175 1025 346 c 0
 1025 480.973632812 971 579 874 626 c 0
 774.108398438 674.401367188 604.654123742 675.644651635 622 797 c 0
 634.6171875 885.272460938 771.498046875 929.498046875 849 987 c 0
 916.008789062 1036.71679688 973.062376809 1122.82065423 982 1179 c 0
 996 1267 951 1410 758 1410 c 1
 763 1440 l 1
EndSplineSet
Substitution2: "'smcp' Lowercase to Small Capitals in Latin lookup 0 subtable" germandbls.sc
EndChar

StartChar: quotedblright
Encoding: 8221 8221 182
Width: 1200
Flags: HMW
LayerCount: 2
Fore
SplineSet
769 730 m 5
 916 1340 l 5
 1126 1340 l 5
 889 730 l 5
 769 730 l 5
309 730 m 5
 456 1340 l 5
 666 1340 l 5
 429 730 l 5
 309 730 l 5
EndSplineSet
EndChar

StartChar: quotereversed
Encoding: 8219 8219 187
Width: 1200
Flags: HMW
LayerCount: 2
Fore
SplineSet
782 690 m 5
 662 690 l 5
 639 1300 l 5
 849 1300 l 5
 782 690 l 5
EndSplineSet
EndChar

StartChar: guilsinglleft
Encoding: 8249 8249 189
Width: 1200
Flags: HMW
LayerCount: 2
Fore
SplineSet
471.571289062 525 m 1
 873.220703125 920 l 1
 889.694335938 900 l 1
 521.571289062 525 l 1
 757.44921875 150 l 1
 733.922851562 130 l 1
 471.571289062 525 l 1
EndSplineSet
EndChar

StartChar: perthousand
Encoding: 8240 8240 194
Width: 1200
Flags: HMW
LayerCount: 2
Fore
SplineSet
989 230 m 0
 1004 313 976 365 928 365 c 0
 870 365 826 313 811 230 c 0
 796 147 813 95 871 95 c 0
 929 95 974 147 989 230 c 0
715 230 m 0
 741 376 812 480 949 480 c 0
 1086 480 1141 376 1115 230 c 0
 1087 74 1007 -20 870 -20 c 0
 733 -20 687 74 715 230 c 0
659 230 m 4
 674 313 646 365 598 365 c 0
 540 365 496 313 481 230 c 0
 466 147 483 95 541 95 c 0
 599 95 644 147 659 230 c 4
355 230 m 0
 381 376 472 480 599 480 c 0
 746 480 781 376 755 230 c 0
 727 74 667 -20 520 -20 c 0
 393 -20 327 74 355 230 c 0
509 1070 m 0
 524 1153 506 1205 428 1205 c 0
 350 1205 306 1153 291 1070 c 0
 276 987 305 945 373 945 c 0
 441 945 494 987 509 1070 c 0
155 1070 m 0
 181 1216 282 1320 439 1320 c 0
 565 1320 659 1246 815 1246 c 0
 975 1246 1056 1282 1176 1370 c 1
 1243 1290 l 1
 39 130 l 1
 -41 200 l 1
 1104 1274 l 1
 1085 1226 l 1
 1006 1167 933 1141 790 1141 c 0
 666 1141 588 1178 571 1204 c 1
 603 1201 l 1
 629 1164 654 1126 639 1040 c 0
 619 924 508 820 361 820 c 0
 224 820 124 894 155 1070 c 0
EndSplineSet
EndChar

StartChar: uni203D
Encoding: 8253 8253 195
Width: 1200
Flags: HMW
LayerCount: 2
Fore
SplineSet
237.387695312 989 m 1
 219.150390625 999 l 1
 345.599609375 1149 598.751953125 1320 894.751953125 1320 c 1
 889.461914062 1290 l 1
 611.461914062 1290 374.602539062 1132 237.387695312 989 c 1
393.922851562 130 m 0
 409.439453125 218 481.37109375 280 569.37109375 280 c 0
 657.37109375 280 707.439453125 218 691.922851562 130 c 0
 676.405273438 42 609.473632812 -20 521.473632812 -20 c 0
 433.473632812 -20 378.405273438 42 393.922851562 130 c 0
1142.90625 1060 m 0
 1171.64746094 1223 1087.46191406 1290 889.461914062 1290 c 1
 894.751953125 1320 l 1
 1120.75195312 1320 1208.94042969 1236 1177.90625 1060 c 0
 1148.98925781 896 990.184570312 761 831.962890625 669 c 0
 707.95703125 596.895507812 658.80078125 566 597.287109375 461 c 5
 590.813476562 481 l 5
 640.151367188 585 714.329101562 635.625 828.133789062 704 c 0
 967.9453125 788 1116.45800781 910 1142.90625 1060 c 0
585.8203125 430 m 1
 582.80078125 980 l 1
 813.379882812 1040 l 1
 605.8203125 430 l 1
 585.8203125 430 l 1
EndSplineSet
EndChar

StartChar: dotbelowcomb
Encoding: 803 803 197
Width: 1200
VWidth: 2379
Flags: HMW
AnchorPoint: "Anchor-3" -600 0 mark 0
LayerCount: 2
Fore
SplineSet
-644 -285 m 0
 -644 -257 -628 -240 -600 -240 c 0
 -572 -240 -555 -257 -555 -285 c 0
 -555 -313 -571 -330 -599 -330 c 0
 -627 -330 -644 -313 -644 -285 c 0
EndSplineSet
EndChar

StartChar: uni02BC
Encoding: 700 700 198
Width: 1200
Flags: HMW
AnchorPoint: "Anchor-1" 206 920 mark 0
LayerCount: 2
Fore
SplineSet
470 726 m 1
 610 1336 l 1
 650 1336 l 1
 490 726 l 1
 470 726 l 1
EndSplineSet
EndChar

StartChar: circumflex
Encoding: 710 710 199
Width: 1200
VWidth: 2048
Flags: HMW
LayerCount: 2
Fore
SplineSet
343 1076 m 5
 316 1101 l 1
 606 1380 l 1
 884 1101 l 1
 859 1076 l 1
 596 1350 l 1
 616 1350 l 1
 343 1076 l 5
EndSplineSet
EndChar

StartChar: caron
Encoding: 711 711 200
Width: 1200
VWidth: 2048
Flags: HMW
LayerCount: 2
Fore
SplineSet
857 1315 m 5
 884 1290 l 1
 594 1011 l 1
 316 1290 l 1
 341 1315 l 1
 604 1041 l 1
 584 1041 l 1
 857 1315 l 5
EndSplineSet
EndChar

StartChar: uni02C9
Encoding: 713 713 201
Width: 1200
Flags: HMW
LayerCount: 2
Fore
SplineSet
349 1220 m 1
 851 1220 l 1
 851 1190 l 5
 349 1190 l 5
 349 1220 l 1
EndSplineSet
EndChar

StartChar: uni02CA
Encoding: 714 714 202
Width: 1200
VWidth: 2048
Flags: HMW
LayerCount: 2
Fore
SplineSet
527 1070 m 1
 719 1358 l 1
 748 1338 l 1
 544 1056 l 1
 527 1070 l 1
EndSplineSet
EndChar

StartChar: breve
Encoding: 728 728 203
Width: 1200
VWidth: 0
Flags: HMW
LayerCount: 2
Fore
SplineSet
354 1310 m 257
 384 1300 l 257
 374 1168 430 1060 600 1060 c 256
 769 1060 826 1168 816 1300 c 261
 846 1310 l 261
 856 1142 790 1030 600 1030 c 256
 410 1030 344 1142 354 1310 c 257
EndSplineSet
EndChar

StartChar: dotaccent
Encoding: 729 729 204
Width: 1200
VWidth: 2379
Flags: HMW
LayerCount: 2
Fore
SplineSet
556 1307 m 0
 556 1335 572 1352 600 1352 c 0
 628 1352 645 1335 645 1307 c 0
 645 1279 629 1262 601 1262 c 0
 573 1262 556 1279 556 1307 c 0
EndSplineSet
EndChar

StartChar: ring
Encoding: 730 730 205
Width: 1200
VWidth: 0
Flags: HMW
LayerCount: 2
Fore
SplineSet
396 1250 m 256
 396 1370 496 1450 600 1450 c 256
 704 1450 804 1370 804 1250 c 256
 804 1130 704 1050 600 1050 c 256
 496 1050 396 1130 396 1250 c 256
431 1250 m 260
 431 1144 510 1080 600 1080 c 256
 690 1080 769 1144 769 1250 c 260
 769 1356 690 1420 600 1420 c 256
 510 1420 431 1356 431 1250 c 260
EndSplineSet
EndChar

StartChar: ogonek
Encoding: 731 731 206
Width: 1200
VWidth: 0
Flags: HMW
LayerCount: 2
Fore
SplineSet
827 -340 m 261
 841 -360 l 257
 791 -400 721 -440 615 -440 c 256
 477 -440 389 -358 389 -240 c 256
 389 -122 513 -22 673 50 c 257
 679 34 l 257
 545 -20 424 -126 424 -240 c 256
 424 -342 495 -410 615 -410 c 256
 717 -410 789 -366 827 -340 c 261
EndSplineSet
EndChar

StartChar: tilde
Encoding: 732 732 207
Width: 1200
VWidth: 0
Flags: HMW
LayerCount: 2
Fore
SplineSet
298 1100 m 1
 298 1268 337 1338 439 1338 c 0
 526 1338 563.304374043 1283.42942717 611 1226 c 4
 660 1167 695 1104 761 1104 c 0
 839 1104 872 1159 872 1312 c 1
 902 1312 l 1
 902 1143 863 1074 761 1074 c 0
 674 1074 636.4296875 1148.3046875 589 1206 c 4
 540.296419239 1265.2449257 505 1308 439 1308 c 0
 361 1308 328 1253 328 1100 c 1
 298 1100 l 1
EndSplineSet
EndChar

StartChar: hungarumlaut
Encoding: 733 733 208
Width: 1200
VWidth: 2048
Flags: HMW
LayerCount: 2
Fore
SplineSet
717 1070 m 1
 909 1358 l 1
 938 1338 l 1
 734 1056 l 1
 717 1070 l 1
327 1070 m 1
 519 1358 l 1
 548 1338 l 1
 344 1056 l 1
 327 1070 l 1
EndSplineSet
EndChar

StartChar: uni02CB
Encoding: 715 715 209
Width: 1200
VWidth: 2048
Flags: HMW
LayerCount: 2
Fore
SplineSet
688 1070 m 1
 671 1056 l 1
 467 1338 l 1
 496 1358 l 1
 688 1070 l 1
EndSplineSet
EndChar

StartChar: gravecomb
Encoding: 768 768 210
Width: 1200
VWidth: 2048
Flags: HMW
AnchorPoint: "Anchor-0" -604 920 mark 0
LayerCount: 2
Fore
SplineSet
-512 1070 m 1
 -529 1056 l 1
 -733 1338 l 1
 -704 1358 l 1
 -512 1070 l 1
EndSplineSet
EndChar

StartChar: acutecomb
Encoding: 769 769 211
Width: 1200
VWidth: 2048
Flags: HMW
AnchorPoint: "Anchor-0" -604 920 mark 0
LayerCount: 2
Fore
SplineSet
-673 1070 m 1
 -481 1358 l 1
 -452 1338 l 1
 -656 1056 l 1
 -673 1070 l 1
EndSplineSet
EndChar

StartChar: tildecomb
Encoding: 771 771 212
Width: 1200
VWidth: 0
Flags: HMW
AnchorPoint: "Anchor-0" -604 920 mark 0
LayerCount: 2
Fore
SplineSet
-902 1100 m 1
 -902 1268 -863 1338 -761 1338 c 0
 -674 1338 -636.6953125 1283.4296875 -589 1226 c 0
 -540 1167 -505 1104 -439 1104 c 0
 -361 1104 -328 1159 -328 1312 c 1
 -298 1312 l 1
 -298 1143 -337 1074 -439 1074 c 0
 -526 1074 -563.5703125 1148.3046875 -611 1206 c 0
 -659.703125 1265.24511719 -695 1308 -761 1308 c 0
 -839 1308 -872 1253 -872 1100 c 1
 -902 1100 l 1
EndSplineSet
EndChar

StartChar: uni0302
Encoding: 770 770 213
Width: 1200
VWidth: 2048
Flags: HMW
AnchorPoint: "Anchor-0" -604 920 mark 0
LayerCount: 2
Fore
SplineSet
-857 1076 m 1
 -884 1101 l 1
 -594 1380 l 1
 -316 1101 l 1
 -341 1076 l 1
 -604 1350 l 1
 -584 1350 l 1
 -857 1076 l 1
EndSplineSet
EndChar

StartChar: uni0304
Encoding: 772 772 214
Width: 1200
Flags: HMW
AnchorPoint: "Anchor-0" -604 920 mark 0
LayerCount: 2
Fore
SplineSet
-851 1170 m 5
 -349 1170 l 5
 -349 1140 l 5
 -851 1140 l 5
 -851 1170 l 5
EndSplineSet
EndChar

StartChar: uni0306
Encoding: 774 774 215
Width: 1200
VWidth: 0
Flags: HMW
AnchorPoint: "Anchor-0" -604 920 mark 0
LayerCount: 2
Fore
SplineSet
-850 1340 m 257
 -820 1330 l 257
 -830 1198 -774 1090 -604 1090 c 256
 -435 1090 -378 1198 -388 1330 c 257
 -358 1340 l 257
 -348 1172 -414 1060 -604 1060 c 256
 -794 1060 -860 1172 -850 1340 c 257
EndSplineSet
EndChar

StartChar: uni0307
Encoding: 775 775 216
Width: 1200
VWidth: 2379
Flags: HMW
AnchorPoint: "Anchor-0" -604 920 mark 0
LayerCount: 2
Fore
SplineSet
-644 1157 m 0
 -644 1185 -628 1202 -600 1202 c 0
 -572 1202 -555 1185 -555 1157 c 0
 -555 1129 -571 1112 -599 1112 c 0
 -627 1112 -644 1129 -644 1157 c 0
EndSplineSet
EndChar

StartChar: uni0308
Encoding: 776 776 217
Width: 1200
VWidth: 2379
Flags: HMW
AnchorPoint: "Anchor-0" -604 920 mark 0
LayerCount: 2
Fore
SplineSet
-424 1127 m 4
 -424 1155 -408 1172 -380 1172 c 4
 -352 1172 -335 1155 -335 1127 c 4
 -335 1099 -351 1082 -379 1082 c 4
 -407 1082 -424 1099 -424 1127 c 4
-864 1127 m 4
 -864 1155 -848 1172 -820 1172 c 4
 -792 1172 -775 1155 -775 1127 c 4
 -775 1099 -791 1082 -819 1082 c 4
 -847 1082 -864 1099 -864 1127 c 4
EndSplineSet
EndChar

StartChar: uni030A
Encoding: 778 778 218
Width: 1200
VWidth: 0
Flags: HMW
AnchorPoint: "Anchor-0" -604 920 mark 0
LayerCount: 2
Fore
SplineSet
-804 1250 m 260
 -804 1370 -704 1450 -600 1450 c 260
 -496 1450 -396 1370 -396 1250 c 260
 -396 1130 -496 1050 -600 1050 c 260
 -704 1050 -804 1130 -804 1250 c 260
-769 1250 m 260
 -769 1144 -690 1080 -600 1080 c 260
 -510 1080 -431 1144 -431 1250 c 260
 -431 1356 -510 1420 -600 1420 c 260
 -690 1420 -769 1356 -769 1250 c 260
EndSplineSet
EndChar

StartChar: uni030B
Encoding: 779 779 219
Width: 1200
VWidth: 2048
Flags: HMW
AnchorPoint: "Anchor-0" -604 920 mark 0
LayerCount: 2
Fore
SplineSet
-483 1070 m 1
 -291 1358 l 1
 -262 1338 l 1
 -466 1056 l 1
 -483 1070 l 1
-873 1070 m 1
 -681 1358 l 1
 -652 1338 l 1
 -856 1056 l 1
 -873 1070 l 1
EndSplineSet
EndChar

StartChar: uni0312
Encoding: 786 786 220
Width: 1200
Flags: HMW
LayerCount: 2
Fore
SplineSet
-471 1264 m 5
 -571 806 l 1
 -609 806 l 1
 -491 1264 l 5
 -471 1264 l 5
EndSplineSet
EndChar

StartChar: uni0326
Encoding: 806 806 221
Width: 1200
Flags: HMW
AnchorPoint: "Anchor-3" -600 0 mark 0
LayerCount: 2
Fore
SplineSet
-709 -618 m 5
 -619 -160 l 1
 -569 -160 l 1
 -679 -618 l 5
 -709 -618 l 5
EndSplineSet
EndChar

StartChar: uni0328
Encoding: 808 808 222
Width: 1200
VWidth: 0
Flags: HMW
AnchorPoint: "Anchor-3" -550 0 mark 0
LayerCount: 2
Fore
SplineSet
-373 -340 m 257
 -359 -360 l 257
 -409 -400 -479 -440 -585 -440 c 256
 -723 -440 -811 -358 -811 -240 c 256
 -811 -122 -687 -56 -527 16 c 261
 -521 0 l 261
 -655 -54 -776 -126 -776 -240 c 256
 -776 -342 -705 -410 -585 -410 c 256
 -483 -410 -411 -366 -373 -340 c 257
EndSplineSet
EndChar

StartChar: uni0327
Encoding: 807 807 223
Width: 1200
VWidth: 0
Flags: HMW
AnchorPoint: "Anchor-3" -600 0 mark 0
LayerCount: 2
Fore
SplineSet
-633 -500 m 256
 -707 -500 -775 -484 -831 -444 c 257
 -821 -419 l 257
 -767 -459 -705 -470 -633 -470 c 256
 -499 -470 -384 -421 -384 -312 c 256
 -384 -214 -505 -150 -693 -240 c 257
 -677 -186 l 257
 -517 30 l 261
 -480 30 l 261
 -662 -214 l 257
 -683 -234 l 257
 -663 -194 -575 -164 -525 -164 c 256
 -439 -164 -349 -212 -349 -312 c 256
 -349 -440 -479 -500 -633 -500 c 256
EndSplineSet
EndChar

StartChar: thorn
Encoding: 254 254 274
Width: 1200
Flags: HMW
LayerCount: 2
Fore
SplineSet
590 10 m 0
 778 10 995.80078125 155.622070312 1045 460 c 0
 1095.41308594 771.891601562 928 910 760 910 c 0
 532 910 328.054804991 653.495323404 297 460 c 0
 258 217 392 10 590 10 c 0
760 940 m 0
 946 940 1137 786 1080 460 c 0
 1024 144 818 -20 590 -20 c 0
 373 -20 238.000976562 181.977539062 277 450 c 0
 312.670898438 695.14453125 524 940 760 940 c 0
450 1330 m 9
 157 -330 l 1
 122 -330 l 1
 409 1300 l 5
 191 1300 l 5
 197 1330 l 1
 450 1330 l 9
EndSplineSet
EndChar

StartChar: eth
Encoding: 240 240 293
Width: 1200
VWidth: 0
Flags: HMW
LayerCount: 2
Fore
SplineSet
506.473632812 -20 m 256
 218.473632812 -20 65.7392578125 180 115.110351562 460 c 256
 161.307617188 722 383.747070312 940 643.747070312 940 c 260
 913.747070312 940 1099.42871094 700 1057.11035156 460 c 257
 1042.11035156 460 l 257
 1086.19238281 710 944.971679688 1015 609.32421875 1431 c 257
 631.673828125 1450 l 257
 984.206054688 1022 1114.36621094 728 1067.11035156 460 c 256
 1017.73925781 180 794.473632812 -20 506.473632812 -20 c 256
511.763671875 10 m 256
 765.763671875 10 983.091796875 182 1032.11035156 460 c 256
 1070.90234375 680 888.458007812 910 628.458007812 910 c 256
 398.458007812 910 190.666015625 690 150.110351562 460 c 256
 104.618164062 202 247.763671875 10 511.763671875 10 c 256
465.551757812 1075 m 257
 459.959960938 1100 l 257
 1057.69335938 1314 l 257
 1063.28515625 1289 l 257
 465.551757812 1075 l 257
EndSplineSet
Substitution2: "'smcp' Lowercase to Small Capitals in Latin lookup 0 subtable" eth.sc
EndChar

StartChar: Oslash
Encoding: 216 216 294
Width: 1200
Flags: HMW
LayerCount: 2
Fore
SplineSet
1009.5 1405 m 5
 1041.5 1385 l 5
 271.5 -75 l 5
 239.5 -55 l 5
 1009.5 1405 l 5
EndSplineSet
Refer: 14 79 N 1 0 0 1 0.5 0 2
Substitution2: "'c2sc' Capitals to Small Capitals in Latin lookup 0 subtable" oslash.sc
EndChar

StartChar: oslash
Encoding: 248 248 295
Width: 1200
Flags: HMW
LayerCount: 2
Fore
SplineSet
1061.5 945 m 1
 1081.5 925 l 1
 159.5 -55 l 5
 139.5 -35 l 1
 1061.5 945 l 1
EndSplineSet
Refer: 31 111 N 1 0 0 1 0 0 2
Substitution2: "'smcp' Lowercase to Small Capitals in Latin lookup 0 subtable" oslash.sc
EndChar

StartChar: dcroat
Encoding: 273 273 297
Width: 1200
Flags: HMW
LayerCount: 2
Fore
SplineSet
769 1160 m 1
 1271 1160 l 1
 1266 1130 l 5
 764 1130 l 5
 769 1160 l 1
180 440 m 0
 124.612777021 171.029470226 195 10 369 10 c 0
 507 10 725 117 861 350 c 1
 872 330 l 1
 742 84 516 -20 369 -20 c 0
 163 -20 87.3046875 163.596679688 145 440 c 0
 207.8984375 741.33203125 414 939 669 939 c 0
 837 939 906 825 945 719 c 1
 940 689 l 1
 900 786 826 909 669 909 c 0
 419 909 234.796880655 706.103718997 180 440 c 0
1076 1330 m 9
 855 187 l 2
 829.277198756 53.9630686815 828.384765625 0 901 0 c 0
 971 0 1054 65 1123 148 c 1
 1147 133 l 1
 1065 23 978 -35 898 -35 c 0
 798 -35 792.318371995 41.3770185206 821 190 c 10
 1041 1330 l 1
 1076 1330 l 9
EndSplineSet
Substitution2: "'smcp' Lowercase to Small Capitals in Latin lookup 0 subtable" dcroat.sc
EndChar

StartChar: Hbar
Encoding: 294 294 318
Width: 1200
Flags: HMW
LayerCount: 2
Fore
SplineSet
974 660 m 1
 302 660 l 5
 189 30 l 5
 433 30 l 1
 428 0 l 1
 -40 0 l 1
 -35 30 l 1
 155 30 l 1
 374 1270 l 1
 184 1270 l 1
 189 1300 l 1
 657 1300 l 1
 652 1270 l 1
 408 1270 l 5
 304 690 l 5
 976 690 l 1
 1080 1270 l 1
 836 1270 l 1
 841 1300 l 1
 1309 1300 l 1
 1304 1270 l 1
 1114 1270 l 1
 895 30 l 1
 1085 30 l 1
 1080 0 l 1
 612 0 l 1
 617 30 l 1
 861 30 l 1
 974 660 l 1
139 1020 m 1
 1261 1020 l 1
 1256 990 l 1
 134 990 l 1
 139 1020 l 1
EndSplineSet
Substitution2: "'c2sc' Capitals to Small Capitals in Latin lookup 0 subtable" hbar.sc
EndChar

StartChar: hbar
Encoding: 295 295 319
Width: 1200
Flags: HMW
LayerCount: 2
Fore
SplineSet
179 1160 m 1
 681 1160 l 1
 677 1130 l 5
 175 1130 l 5
 179 1160 l 1
EndSplineSet
Refer: 62 -1 N 1 0 0 1 0 0 2
Substitution2: "'smcp' Lowercase to Small Capitals in Latin lookup 0 subtable" hbar.sc
EndChar

StartChar: kgreenlandic
Encoding: 312 312 333
Width: 1200
Flags: HMW
AnchorPoint: "Anchor-0" 798 920 basechar 0
AnchorPoint: "Anchor-2" 516 0 basechar 0
LayerCount: 2
Fore
SplineSet
205 0 m 1
 170 0 l 1
 329 890 l 5
 109 890 l 5
 112 920 l 5
 367 920 l 5
 205 0 l 1
1029 670 m 0
 1088 836 998 910 870 910 c 0
 702 910 441 738 295 515 c 1
 275 520 l 1
 425 766 683 940 870 940 c 0
 1026 940 1124.61488318 845.521991733 1064 670 c 0
 990.405100429 456.891887337 755 301 470 301 c 0
 392 301 294 339 255 385 c 1
 255 410 l 1
 295 363 383 331 480 331 c 0
 730 331 959.071310701 473.251484344 1029 670 c 0
505.580078125 323.158203125 m 1
 534 326 l 1
 565 229 l 2
 616.275186649 68.558286938 666.384765625 5 759 5 c 0
 868 5 1004 86 1153 225 c 1
 1166 213 l 1
 1014 63 896 -25 756 -25 c 0
 626 -25 590.924719564 52.9143365166 535 230 c 2
 505.580078125 323.158203125 l 1
EndSplineSet
EndChar

StartChar: Lslash
Encoding: 321 321 342
Width: 1200
Flags: HMW
LayerCount: 2
Fore
SplineSet
110 705 m 261
 95 735 l 257
 655 975 l 257
 670 945 l 261
 110 705 l 261
EndSplineSet
Refer: 11 76 N 1 0 0 1 0 0 2
Substitution2: "'c2sc' Capitals to Small Capitals in Latin lookup 0 subtable" lslash.sc
EndChar

StartChar: lslash
Encoding: 322 322 343
Width: 1200
Flags: HMW
LayerCount: 2
Fore
SplineSet
297 705 m 261
 285 735 l 261
 845 975 l 261
 857 945 l 261
 297 705 l 261
EndSplineSet
Refer: 32 108 N 1 0 0 1 0 0 2
Substitution2: "'smcp' Lowercase to Small Capitals in Latin lookup 0 subtable" lslash.sc
EndChar

StartChar: Eng
Encoding: 330 330 351
Width: 1200
Flags: HMW
LayerCount: 2
Fore
SplineSet
908 0 m 1
 864.624023438 -246 783.416015625 -440 476.416015625 -440 c 1
 482.587890625 -405 l 5
 770.587890625 -405 833.678710938 -223 873 0 c 5
 908 0 l 1
393.935546875 1270 m 1
 183.935546875 1270 l 1
 189.224609375 1300 l 1
 399.224609375 1300 l 1
 393.935546875 1270 l 1
1075.51074219 950 m 2
 908 0 l 1
 873 0 l 1
 1042.2734375 960 l 2
 1081.59472656 1183 993.461914062 1290 815.461914062 1290 c 0
 594.461914062 1290 399.48828125 1103 358.404296875 870 c 2
 205 0 l 1
 170 0 l 1
 399.224609375 1300 l 1
 424.224609375 1300 l 1
 377.80078125 980 l 1
 340.16796875 880 l 1
 380.017578125 1106 553.751953125 1320 830.751953125 1320 c 0
 1007.75195312 1320 1122.4140625 1216 1075.51074219 950 c 2
EndSplineSet
Substitution2: "'c2sc' Capitals to Small Capitals in Latin lookup 0 subtable" eng.sc
EndChar

StartChar: eng
Encoding: 331 331 352
Width: 1200
Flags: HMW
LayerCount: 2
Fore
SplineSet
908 0 m 1
 864.624023438 -246 783.416015625 -440 476.416015625 -440 c 1
 482.587890625 -405 l 1
 770.587890625 -405 833.678710938 -223 873 0 c 1
 908 0 l 1
326.930664062 890 m 5
 116.930664062 890 l 5
 122.220703125 920 l 5
 332.220703125 920 l 5
 326.930664062 890 l 5
1008.50683594 570 m 6
 908 0 l 1
 873 0 l 1
 975.26953125 580 l 6
 1014.59082031 803 926.458007812 910 748.458007812 910 c 4
 527.458007812 910 332.484375 723 291.400390625 490 c 6
 205 0 l 1
 170 0 l 1
 332.220703125 920 l 5
 357.220703125 920 l 5
 310.795898438 600 l 5
 273.163085938 500 l 5
 313.013671875 726 486.747070312 940 763.747070312 940 c 4
 940.747070312 940 1055.40917969 836 1008.50683594 570 c 6
EndSplineSet
Substitution2: "'smcp' Lowercase to Small Capitals in Latin lookup 0 subtable" eng.sc
EndChar

StartChar: OE
Encoding: 338 338 359
Width: 1200
Flags: HMW
LayerCount: 2
Fore
SplineSet
779.224609375 1300 m 1
 773.935546875 1270 l 1
 505.935546875 1270 240.671875 1053 169.612304688 650 c 0
 95.0263671875 227 267.290039062 30 555.290039062 30 c 1
 550 0 l 1
 234 0 57.734375 214 134.612304688 650 c 0
 209.727539062 1076 482.224609375 1300 779.224609375 1300 c 1
1053.546875 695 m 1
 1046.49414062 655 l 1
 702.2578125 665 l 1
 590.290039062 30 l 1
 1033.29003906 30 l 1
 1120.34667969 450 l 1
 1139.34667969 450 l 1
 1060 0 l 1
 550 0 l 1
 779.224609375 1300 l 1
 1249.22460938 1300 l 1
 1218.69433594 900 l 1
 1199.69433594 900 l 1
 1204.93554688 1270 l 5
 808.935546875 1270 l 1
 705.784179688 685 l 1
 1053.546875 695 l 1
EndSplineSet
Substitution2: "'c2sc' Capitals to Small Capitals in Latin lookup 0 subtable" oe.sc
EndChar

StartChar: oe
Encoding: 339 339 360
Width: 1200
Flags: HMW
LayerCount: 2
Fore
SplineSet
810 -20 m 1
 604 -20 562 194 612 480 c 0
 661 756 808 940 975 940 c 0
 1122 940 1160.2081741 802.869963011 1135 682 c 0
 1096 495 849 424 615 407 c 1
 615 427 l 1
 615 427 932.314113696 448.851864716 1051 586 c 0
 1141 690 1145 910 975 910 c 0
 807 910 676.147650311 672.973930826 642 480 c 0
 599 237 612 10 810 10 c 1
 810 -20 l 1
295 -20 m 0
 89 -20 36 144 92 460 c 0
 146 766 278 940 465 940 c 0
 632 940 674 766 620 460 c 0
 564 144 491 -20 295 -20 c 0
465 910 m 0
 307 910 171 744 127 460 c 0
 80 157 117 10 295 10 c 0
 493 10 550 237 590 460 c 0
 628 673 623 910 465 910 c 0
1055 79 m 1
 985 23 906 -20 810 -20 c 1
 810 10 l 5
 907 10 985 64 1041 102 c 5
 1055 79 l 1
EndSplineSet
Substitution2: "'smcp' Lowercase to Small Capitals in Latin lookup 0 subtable" oe.sc
EndChar

StartChar: Tbar
Encoding: 358 358 379
Width: 1200
Flags: HMW
LayerCount: 2
Fore
SplineSet
337 670 m 1
 939 670 l 1
 934 640 l 5
 332 640 l 5
 337 670 l 1
EndSplineSet
Refer: 19 84 N 1 0 0 1 0 0 2
Substitution2: "'c2sc' Capitals to Small Capitals in Latin lookup 0 subtable" tbar.sc
EndChar

StartChar: tbar
Encoding: 359 359 380
Width: 1200
Flags: HMW
LayerCount: 2
Fore
SplineSet
181 580 m 1
 903 580 l 1
 898 550 l 5
 176 550 l 5
 181 580 l 1
EndSplineSet
Refer: 41 116 N 1 0 0 1 0 0 2
Substitution2: "'smcp' Lowercase to Small Capitals in Latin lookup 0 subtable" tbar.sc
EndChar

StartChar: longs
Encoding: 383 383 404
Width: 1200
Flags: HMW
LayerCount: 2
Fore
SplineSet
1003 1410 m 1
 1003 1440 l 1
 1190 1440 1300 1361 1373 1301 c 5
 1353 1278 l 1
 1296 1328 1171 1410 1003 1410 c 1
403 -330 m 1
 565 1000 l 2
 595 1248 696 1440 1003 1440 c 1
 1003 1410 l 1
 715 1410 627.086065535 1221.00900099 600 1000 c 2
 437 -330 l 1
 403 -330 l 1
EndSplineSet
EndChar

StartChar: florin
Encoding: 402 402 405
Width: 1200
Flags: HMW
LayerCount: 2
Fore
SplineSet
141.232421875 -390 m 5
 135.942382812 -420 l 1
 -51.0576171875 -420 -106.600585938 -321 -163.96875 -221 c 1
 -133.5 -207 l 5
 -79.1328125 -307 -16.767578125 -390 141.232421875 -390 c 5
492.922851562 130 m 1
 474.526367188 20 l 2
 431.150390625 -226 362.942382812 -420 135.942382812 -420 c 1
 141.232421875 -390 l 1
 349.232421875 -390 404.206054688 -203 443.526367188 20 c 2
 462.922851562 130 l 1
 492.922851562 130 l 1
1007.62109375 1410 m 1
 1012.91113281 1440 l 1
 1199.91113281 1440 1310.74414062 1371 1373.40136719 1301 c 1
 1350.16992188 1277 l 1
 1306.98632812 1327 1185.62109375 1410 1007.62109375 1410 c 1
462.922851562 130 m 1
 596.930664062 890 l 1
 336.930664062 890 l 1
 342.220703125 920 l 1
 601.220703125 920 l 1
 615.327148438 1000 l 2
 658.703125 1246 705.911132812 1440 1012.91113281 1440 c 1
 1007.62109375 1410 l 1
 719.62109375 1410 685.647460938 1223 646.327148438 1000 c 2
 632.220703125 920 l 1
 1132.22070312 920 l 1
 1125.16796875 880 l 1
 626.930664062 890 l 1
 492.922851562 130 l 1
 462.922851562 130 l 1
EndSplineSet
EndChar

StartChar: uni0394
Encoding: 916 916 413
Width: 1200
Flags: HMW
LayerCount: 2
Fore
SplineSet
29 0 m 1
 -13 0 l 1
 709.224609375 1300 l 1
 809.224609375 1300 l 5
 1053 0 l 1
 1011 0 l 1
 773.935546875 1270 l 1
 733.935546875 1270 l 1
 29 0 l 1
30.2900390625 30 m 1
 1027.29003906 30 l 1
 1022 0 l 1
 25 0 l 1
 30.2900390625 30 l 1
EndSplineSet
EndChar

StartChar: uni03A9
Encoding: 937 937 414
Width: 1200
Flags: HMW
LayerCount: 2
Fore
SplineSet
339.040039062 0.224609375 m 1
 -1 0 l 1
 4.2900390625 30 l 1
 310.290039062 30 l 1
 349.600585938 252.943359375 l 1
 282.735351562 317.110351562 102.075195312 465.473632812 152.245117188 750 c 0
 218.543945312 1126 454.751953125 1320 751.751953125 1320 c 0
 1048.75195312 1320 1217.54394531 1126 1151.24511719 750 c 0
 1101.00195312 465.056640625 867.564453125 316.484375 777.48828125 252.3046875 c 1
 738.290039062 30 l 1
 1044.29003906 30 l 1
 1039 0 l 1
 699 0 l 1
 743.828125 254.23046875 l 1
 843.5859375 316.215820312 1069.5390625 485.116210938 1116.24511719 750 c 0
 1180.25195312 1113 1024.46191406 1290 746.461914062 1290 c 0
 468.461914062 1290 251.251953125 1113 187.245117188 750 c 0
 140.581054688 485.3515625 306.469726562 316.502929688 383.866210938 254.455078125 c 1
 339.040039062 0.224609375 l 1
EndSplineSet
EndChar

StartChar: pi
Encoding: 960 960 415
Width: 1200
VWidth: 0
Flags: HMW
LayerCount: 2
Fore
SplineSet
120.506835938 570 m 1
 182.220703125 920 l 1
 217.694335938 900 l 1
 139.506835938 570 l 1
 120.506835938 570 l 1
408.694335938 900 m 257
 443.694335938 900 l 257
 285 0 l 257
 250 0 l 257
 408.694335938 900 l 257
182.220703125 920 m 257
 1152.22070312 920 l 257
 1146.93066406 890 l 257
 176.930664062 890 l 257
 182.220703125 920 l 257
878.694335938 900 m 261
 913.694335938 900 l 261
 797.670898438 242 l 262
 765.580078125 60 798.116210938 12 948.116210938 12 c 257
 942.826171875 -18 l 257
 774.826171875 -18 724.231445312 24 762.670898438 242 c 262
 878.694335938 900 l 261
EndSplineSet
EndChar

StartChar: uni1E9E
Encoding: 7838 7838 426
Width: 1200
Flags: HMW
LayerCount: 2
Fore
SplineSet
-10 0 m 1
 -4.7099609375 30 l 1
 165.290039062 30 l 1
 314.16796875 880 l 2
 357.543945312 1126 484.751953125 1320 791.751953125 1320 c 1
 786.461914062 1290 l 1
 488.461914062 1290 386.725585938 1093 349.16796875 880 c 2
 199.290039062 30 l 1
 425.290039062 30 l 1
 420 0 l 1
 -10 0 l 1
791.751953125 1320 m 1
 1019.75195312 1320 1140.53222656 1211 1197.25683594 1079 c 1
 674.546875 695 l 1
 802.751953125 670.587890625 1147.96679688 617.982421875 1100.00878906 346 c 0
 1065.625 151 915.649414062 -19 697.649414062 -19 c 0
 643.649414062 -19 564.413085938 -9 504.055664062 23 c 1
 520.345703125 53 l 1
 574.998046875 17 664.939453125 11 702.939453125 11 c 4
 902.939453125 11 1034.85742188 175 1065.00878906 346 c 4
 1110.26367188 602.649414062 746.580078125 649.18359375 602.373046875 677 c 1
 1147.25683594 1079 l 1
 1114.53710938 1177 999.461914062 1290 786.461914062 1290 c 1
 791.751953125 1320 l 1
EndSplineSet
Substitution2: "'c2sc' Capitals to Small Capitals in Latin lookup 0 subtable" germandbls.sc
EndChar

StartChar: Euro
Encoding: 8364 8364 429
Width: 1200
Flags: HMW
LayerCount: 2
Fore
SplineSet
298.71875 730 m 1
 108.71875 730 l 1
 114.890625 765 l 1
 303.126953125 755 l 1
 298.71875 730 l 1
260.80859375 515 m 1
 70.80859375 515 l 1
 76.9794921875 550 l 1
 265.216796875 540 l 1
 260.80859375 515 l 1
274.216796875 540 m 5
 575.979492188 550 l 5
 569.80859375 515 l 5
 269.80859375 515 l 5
 274.216796875 540 l 5
312.126953125 755 m 5
 612.126953125 755 l 5
 605.955078125 720 l 5
 307.71875 730 l 5
 312.126953125 755 l 5
867.461914062 1290 m 1
 872.751953125 1320 l 1
 1112.75195312 1320 1221.53417969 1194 1195.61425781 1047 c 0
 1181.86132812 969 1165.45800781 910 1160.93066406 890 c 1
 1127.93066406 890 l 1
 1133.63378906 911 1151.5078125 967 1165.61425781 1047 c 0
 1185.89160156 1162 1108.46191406 1290 867.461914062 1290 c 1
1082.47753906 360 m 1
 1109.71484375 350 l 1
 1025.15429688 154 862.473632812 -20 585.473632812 -20 c 0
 319.473632812 -20 187.734375 214 264.612304688 650 c 0
 339.727539062 1076 585.751953125 1320 872.751953125 1320 c 1
 867.461914062 1290 l 1
 589.461914062 1290 368.909179688 1043 299.612304688 650 c 0
 226.7890625 237 342.763671875 10 590.763671875 10 c 0
 848.763671875 10 1001.796875 186 1082.47753906 360 c 1
EndSplineSet
EndChar

StartChar: trademark
Encoding: 8482 8482 430
Width: 1200
Flags: HMW
LayerCount: 2
Fore
SplineSet
310.482421875 740 m 1
 403.935546875 1270 l 1
 181.935546875 1270 l 1
 187.224609375 1300 l 1
 668.224609375 1300 l 1
 662.935546875 1270 l 1
 440.935546875 1270 l 1
 347.482421875 740 l 1
 310.482421875 740 l 1
657.482421875 740 m 1
 756.224609375 1300 l 1
 814.224609375 1300 l 1
 953.458007812 910 l 1
 1230.22460938 1300 l 1
 1288.22460938 1300 l 1
 1189.48242188 740 l 1
 1154.48242188 740 l 1
 1246.171875 1260 l 5
 966.404296875 870 l 1
 926.404296875 870 l 1
 784.171875 1260 l 5
 692.482421875 740 l 1
 657.482421875 740 l 1
EndSplineSet
EndChar

StartChar: uni2150
Encoding: 8528 8528 431
Width: 1200
Flags: HMW
LayerCount: 2
Fore
SplineSet
99 640 m 1
 1101 640 l 1
 1101 610 l 5
 99 610 l 5
 99 640 l 1
EndSplineSet
Refer: 133 8311 N 1 0 0 1 -190 -1010 2
Refer: 126 8305 N 1 0 0 1 30 300 2
EndChar

StartChar: uni2151
Encoding: 8529 8529 432
Width: 1200
Flags: HMW
LayerCount: 2
Fore
SplineSet
99 640 m 5
 1101 640 l 5
 1101 610 l 1
 99 610 l 1
 99 640 l 5
EndSplineSet
Refer: 134 8313 N 1 0 0 1 -190 -1008 2
Refer: 126 8305 N 1 0 0 1 30 300 2
EndChar

StartChar: uni2152
Encoding: 8530 8530 433
Width: 1200
Flags: HMW
LayerCount: 2
Fore
SplineSet
90 290 m 1
 -30 -400 l 1
 -68 -400 l 5
 52 290 l 5
 90 290 l 1
99 640 m 1
 1101 640 l 1
 1101 610 l 1
 99 610 l 1
 99 640 l 1
EndSplineSet
Refer: 128 8304 N 1 0 0 1 -40 -1010 2
Refer: 126 8305 N 1 0 0 1 30 300 2
EndChar

StartChar: onethird
Encoding: 8531 8531 434
Width: 1200
Flags: HMW
LayerCount: 2
Fore
SplineSet
99 640 m 5
 1101 640 l 5
 1101 610 l 1
 99 610 l 1
 99 640 l 5
EndSplineSet
Refer: 129 8307 N 1 0 0 1 -190 -1009 2
Refer: 126 8305 N 1 0 0 1 30 300 2
EndChar

StartChar: uni2155
Encoding: 8533 8533 435
Width: 1200
Flags: HMW
LayerCount: 2
Fore
SplineSet
99 640 m 5
 1101 640 l 5
 1101 610 l 1
 99 610 l 1
 99 640 l 5
EndSplineSet
Refer: 131 8309 N 1 0 0 1 -200 -1008 2
Refer: 126 8305 N 1 0 0 1 30 300 2
EndChar

StartChar: uni2159
Encoding: 8537 8537 436
Width: 1200
Flags: HMW
LayerCount: 2
Fore
SplineSet
99 640 m 5
 1101 640 l 5
 1101 610 l 1
 99 610 l 1
 99 640 l 5
EndSplineSet
Refer: 132 8310 N 1 0 0 1 -200 -1010 2
Refer: 126 8305 N 1 0 0 1 30 300 2
EndChar

StartChar: oneeighth
Encoding: 8539 8539 437
Width: 1200
Flags: HMW
LayerCount: 2
Fore
SplineSet
99 640 m 5
 1101 640 l 5
 1101 610 l 1
 99 610 l 1
 99 640 l 5
EndSplineSet
Refer: 135 8312 N 1 0 0 1 -190 -1010 2
Refer: 126 8305 N 1 0 0 1 30 300 2
EndChar

StartChar: twothirds
Encoding: 8532 8532 438
Width: 1200
Flags: HMW
LayerCount: 2
Fore
SplineSet
99 640 m 1
 1101 640 l 1
 1101 610 l 5
 99 610 l 5
 99 640 l 1
EndSplineSet
Refer: 127 8306 N 1 0 0 1 30 296 2
Refer: 129 8307 N 1 0 0 1 -190 -1009 2
EndChar

StartChar: uni2156
Encoding: 8534 8534 439
Width: 1200
Flags: HMW
LayerCount: 2
Fore
SplineSet
99 640 m 1
 1101 640 l 1
 1101 610 l 5
 99 610 l 5
 99 640 l 1
EndSplineSet
Refer: 131 8309 N 1 0 0 1 -200 -1008 2
Refer: 127 8306 N 1 0 0 1 30 296 2
EndChar

StartChar: uni2157
Encoding: 8535 8535 440
Width: 1200
Flags: HMW
LayerCount: 2
Fore
SplineSet
99 640 m 5
 1101 640 l 5
 1101 610 l 1
 99 610 l 1
 99 640 l 5
EndSplineSet
Refer: 129 8307 N 1 0 0 1 30 299 2
Refer: 131 8309 N 1 0 0 1 -200 -1008 2
EndChar

StartChar: uni2158
Encoding: 8536 8536 441
Width: 1200
Flags: HMW
LayerCount: 2
Fore
SplineSet
99 640 m 1
 1101 640 l 1
 1101 610 l 5
 99 610 l 5
 99 640 l 1
EndSplineSet
Refer: 130 8308 N 1 0 0 1 30 300 2
Refer: 131 8309 N 1 0 0 1 -200 -1008 2
EndChar

StartChar: uni215A
Encoding: 8538 8538 442
Width: 1200
Flags: HMW
LayerCount: 2
Fore
SplineSet
99 640 m 1
 1101 640 l 1
 1101 610 l 5
 99 610 l 5
 99 640 l 1
EndSplineSet
Refer: 131 8309 N 1 0 0 1 20 298 2
Refer: 132 8310 N 1 0 0 1 -200 -1010 2
EndChar

StartChar: threeeighths
Encoding: 8540 8540 443
Width: 1200
Flags: HMW
LayerCount: 2
Fore
SplineSet
99 640 m 1
 1101 640 l 1
 1101 610 l 5
 99 610 l 5
 99 640 l 1
EndSplineSet
Refer: 129 8307 N 1 0 0 1 30 299 2
Refer: 135 8312 N 1 0 0 1 -190 -1010 2
EndChar

StartChar: fiveeighths
Encoding: 8541 8541 444
Width: 1200
Flags: HMW
LayerCount: 2
Fore
SplineSet
99 640 m 5
 1101 640 l 5
 1101 610 l 1
 99 610 l 1
 99 640 l 5
EndSplineSet
Refer: 131 8309 N 1 0 0 1 30 300 2
Refer: 135 8312 N 1 0 0 1 -190 -1010 2
EndChar

StartChar: seveneighths
Encoding: 8542 8542 445
Width: 1200
Flags: HMW
LayerCount: 2
Fore
SplineSet
99 640 m 5
 1101 640 l 5
 1101 610 l 1
 99 610 l 1
 99 640 l 5
EndSplineSet
Refer: 133 8311 N 1 0 0 1 30 300 2
Refer: 135 8312 N 1 0 0 1 -190 -1010 2
EndChar

StartChar: partialdiff
Encoding: 8706 8706 446
Width: 1200
VWidth: 2310
Flags: HMW
LayerCount: 2
Fore
SplineSet
100 440 m 4
 100 172 324 10 582 10 c 4
 860 10 1045 192 1045 530 c 4
 1045 690 814 870 548 870 c 4
 340 870 100 741 100 440 c 4
376 1490 m 1
 387 1520 l 1
 684 1340 1080 1032 1080 530 c 0
 1080 190 884 -20 582 -20 c 0
 300 -20 70 160 70 440 c 0
 70 760 326 900 548 900 c 0
 830 900 1069 704 1070 530 c 1
 1055 530 l 1
 1058 957 711 1298 376 1490 c 1
EndSplineSet
EndChar

StartChar: integral
Encoding: 8747 8747 447
Width: 1200
Flags: HMW
LayerCount: 2
Fore
SplineSet
280 -390 m 5
 280 -420 l 5
 93 -420 30 -321 -45 -221 c 1
 -21 -205 l 1
 41 -285 122 -390 280 -390 c 5
574 130 m 1
 575 20 l 2
 575 -226 477 -420 280 -420 c 5
 280 -390 l 5
 458 -390 540 -203 540 20 c 2
 540 130 l 1
 574 130 l 1
839 1410 m 1
 839 1440 l 1
 1026 1440 1149 1371 1224 1301 c 1
 1202 1279 l 1
 1140 1334 1017 1410 839 1410 c 1
540 130 m 1
 539 1000 l 2
 539 1246 612 1440 839 1440 c 1
 839 1410 l 1
 651 1410 574 1223 574 1000 c 2
 574 130 l 1
 540 130 l 1
EndSplineSet
EndChar

StartChar: product
Encoding: 8719 8719 449
Width: 1200
Flags: HMW
LayerCount: 2
Fore
SplineSet
1160 1300 m 1
 1160 1270 l 1
 980 1270 l 1
 980 30 l 1
 1160 30 l 1
 1160 0 l 1
 752 0 l 1
 752 30 l 1
 946 30 l 1
 946 1270 l 1
 254 1270 l 1
 254 30 l 1
 448 30 l 5
 448 0 l 5
 40 0 l 1
 40 30 l 1
 220 30 l 1
 220 1270 l 1
 40 1270 l 1
 40 1300 l 1
 1160 1300 l 1
EndSplineSet
EndChar

StartChar: summation
Encoding: 8721 8721 451
Width: 1200
Flags: HMW
LayerCount: 2
Fore
SplineSet
504 676 m 5
 254 30 l 5
 1023 30 l 1
 1041 450 l 1
 1060 450 l 1
 1060 0 l 1
 70 0 l 1
 70 30 l 1
 220 30 l 1
 470 676 l 1
 504 676 l 5
470 676 m 1
 220 1270 l 1
 70 1270 l 1
 70 1300 l 1
 1020 1300 l 1
 1060 900 l 1
 1041 900 l 1
 986 1270 l 1
 254 1270 l 5
 504 676 l 5
 470 676 l 1
EndSplineSet
EndChar

StartChar: emptyset
Encoding: 8709 8709 453
Width: 1200
VWidth: 0
Flags: HMW
LayerCount: 2
Fore
SplineSet
600 56 m 256
 364 56 172 248 172 484 c 256
 172 720 364 912 600 912 c 256
 836 912 1028 720 1028 484 c 256
 1028 248 836 56 600 56 c 256
600 86 m 256
 820 86 993 284 993 484 c 256
 993 692 818 882 600 882 c 256
 382 882 207 692 207 484 c 256
 207 276 382 86 600 86 c 256
228 80 m 261
 204 102 l 261
 972 888 l 257
 998 866 l 257
 228 80 l 261
EndSplineSet
EndChar

StartChar: radical
Encoding: 8730 8730 454
Width: 1200
VWidth: 0
Flags: HMW
LayerCount: 2
Fore
SplineSet
539 -400 m 257
 777 1389 l 257
 753 1370 l 257
 1057 1370 l 257
 1057 1400 l 257
 741 1400 l 257
 519 -300 l 257
 549 -300 l 257
 409 468 l 257
 143 402 l 257
 153 362 l 257
 411 426 l 257
 369 458 l 261
 539 -400 l 257
EndSplineSet
EndChar

StartChar: infinity
Encoding: 8734 8734 455
Width: 1200
VWidth: 0
Flags: HMW
LayerCount: 2
Fore
SplineSet
332 311 m 256
 152 311 64 481 64 675 c 256
 64 869 152 1035 332 1035 c 256
 456 1035 558 865 602 705 c 257
 646 865 746 1035 870 1035 c 256
 1050 1035 1136 869 1136 675 c 256
 1136 481 1050 311 870 311 c 256
 746 311 626 481 602 641 c 257
 556 481 456 311 332 311 c 256
332 341 m 256
 450 341 552 541 576 675 c 257
 556 807 450 1005 332 1005 c 256
 172 1005 99 845 99 675 c 260
 99 507 172 341 332 341 c 256
870 341 m 256
 1040 341 1101 507 1101 675 c 260
 1101 845 1040 1005 870 1005 c 256
 752 1005 646 807 626 675 c 257
 626 543 752 341 870 341 c 256
EndSplineSet
EndChar

StartChar: approxequal
Encoding: 8776 8776 456
Width: 1200
VWidth: 2048
Flags: HMW
LayerCount: 2
Fore
SplineSet
208 769 m 5
 208 874.33984375 278.038085938 967 391.5 967 c 4
 491.05859375 967 556.517578125 913.358398438 614.583007812 865.850585938 c 4
 673.525390625 817.625 730.05859375 773 813.5 773 c 4
 900.048828125 773 962 844.529296875 962 941 c 5
 997 941 l 5
 997 835.66015625 926.962890625 743 813.5 743 c 4
 713.94140625 743 648.482421875 796.641601562 590.416992188 844.149414062 c 4
 531.474609375 892.375 474.94140625 937 391.5 937 c 4
 304.950195312 937 243 865.471679688 243 769 c 5
 208 769 l 5
205.5 419 m 1
 205.5 524.33984375 275.538085938 617 389 617 c 0
 488.55859375 617 554.017578125 563.358398438 612.083007812 515.850585938 c 0
 671.025390625 467.625 727.55859375 423 811 423 c 0
 897.548828125 423 959.5 494.529296875 959.5 591 c 1
 994.5 591 l 1
 994.5 485.66015625 924.462890625 393 811 393 c 0
 711.44140625 393 645.982421875 446.641601562 587.916992188 494.149414062 c 0
 528.974609375 542.375 472.44140625 587 389 587 c 0
 302.450195312 587 240.5 515.471679688 240.5 419 c 1
 205.5 419 l 1
EndSplineSet
EndChar

StartChar: notequal
Encoding: 8800 8800 457
Width: 1200
Flags: HMW
LayerCount: 2
Fore
SplineSet
926 1080 m 5
 956 1060 l 1
 254 270 l 1
 224 290 l 1
 926 1080 l 5
EndSplineSet
Refer: 75 61 N 1 0 0 1 0 0 2
EndChar

StartChar: lessequal
Encoding: 8804 8804 458
Width: 1200
Flags: HMW
LayerCount: 2
Fore
SplineSet
229 30 m 5
 971 30 l 5
 971 0 l 1
 229 0 l 1
 229 30 l 5
EndSplineSet
Refer: 78 60 N 1 0 0 1 0 0 2
EndChar

StartChar: greaterequal
Encoding: 8805 8805 459
Width: 1200
Flags: HMW
LayerCount: 2
Fore
SplineSet
229 30 m 5
 971 30 l 5
 971 0 l 1
 229 0 l 1
 229 30 l 5
EndSplineSet
Refer: 80 62 N 1 0 0 1 0 0 2
EndChar

StartChar: lozenge
Encoding: 9674 9674 460
Width: 1200
VWidth: 0
Flags: HMW
LayerCount: 2
Fore
SplineSet
612 30 m 257
 1000 712 l 257
 612 1392 l 257
 200 712 l 257
 612 30 l 257
611 104 m 261
 242 712 l 257
 611 1320 l 257
 958 712 l 257
 611 104 l 261
EndSplineSet
EndChar

StartChar: uni2010
Encoding: 8208 8208 464
Width: 1200
Flags: HMW
LayerCount: 2
Fore
SplineSet
310.666015625 690 m 5
 972.666015625 690 l 5
 967.375976562 660 l 1
 305.375976562 660 l 1
 310.666015625 690 l 5
EndSplineSet
EndChar

StartChar: uni2011
Encoding: 8209 8209 465
Width: 1200
Flags: HMW
LayerCount: 2
Fore
SplineSet
310.666015625 690 m 1
 972.666015625 690 l 1
 967.375976562 660 l 5
 305.375976562 660 l 5
 310.666015625 690 l 1
EndSplineSet
EndChar

StartChar: figuredash
Encoding: 8210 8210 466
Width: 1200
Flags: HMW
LayerCount: 2
Fore
SplineSet
230.666015625 690 m 5
 1052.66601562 690 l 5
 1047.37597656 660 l 1
 225.375976562 660 l 1
 230.666015625 690 l 5
EndSplineSet
EndChar

StartChar: endash
Encoding: 8211 8211 467
Width: 1200
Flags: HMW
LayerCount: 2
Fore
SplineSet
150.666015625 690 m 1
 1132.66601562 690 l 1
 1127.37597656 660 l 5
 145.375976562 660 l 5
 150.666015625 690 l 1
EndSplineSet
EndChar

StartChar: emdash
Encoding: 8212 8212 468
Width: 1200
Flags: HMW
LayerCount: 2
Fore
SplineSet
70.666015625 690 m 5
 1212.66601562 690 l 5
 1207.37597656 660 l 1
 65.3759765625 660 l 1
 70.666015625 690 l 5
EndSplineSet
EndChar

StartChar: uni2015
Encoding: 8213 8213 469
Width: 1200
Flags: HMW
LayerCount: 2
Fore
SplineSet
-9.333984375 690 m 1
 1292.66601562 690 l 1
 1287.37597656 660 l 5
 -14.6240234375 660 l 5
 -9.333984375 690 l 1
EndSplineSet
EndChar

StartChar: uni030C
Encoding: 780 780 470
Width: 1200
VWidth: 2048
Flags: HMW
AnchorPoint: "Anchor-0" -604 920 mark 0
LayerCount: 2
Fore
SplineSet
-343 1315 m 1
 -316 1290 l 1
 -606 1011 l 1
 -884 1290 l 1
 -859 1315 l 1
 -596 1041 l 1
 -616 1041 l 1
 -343 1315 l 1
EndSplineSet
EndChar

StartChar: a.sc
Encoding: 1114114 -1 471
Width: 1200
Flags: HMW
AnchorPoint: "Anchor-0" 698.854 1020 basechar 0
AnchorPoint: "Anchor-2" 519 0 basechar 0
AnchorPoint: "Anchor-3" 1030.47 -20 basechar 0
LayerCount: 2
Fore
SplineSet
320.853515625 1020 m 1
 679.853515625 1020 l 1
 675.4453125 995 l 1
 314.681640625 985 l 1
 320.853515625 1020 l 1
20.4736328125 -20 m 1
 -16.5263671875 -20 l 1
 679.853515625 1020 l 1
 754.853515625 1020 l 1
 1049.47363281 -20 l 1
 1012.47363281 -20 l 1
 723.681640625 985 l 1
 693.681640625 985 l 1
 20.4736328125 -20 l 1
211.8984375 300 m 1
 944.8984375 300 l 1
 939.608398438 270 l 1
 206.608398438 270 l 1
 211.8984375 300 l 1
EndSplineSet
EndChar

StartChar: b.sc
Encoding: 1114115 -1 472
Width: 1200
Flags: HMW
AnchorPoint: "Anchor-2" 506 0 basechar 0
AnchorPoint: "Anchor-0" 613.854 1020 basechar 0
LayerCount: 2
Fore
SplineSet
344.563476562 990 m 1
 174.563476562 990 l 1
 179.853515625 1020 l 1
 751.853515625 1020 l 2
 987.853515625 1020 1119.56835938 956 1086.77148438 770 c 0
 1062.79101562 634 938.926757812 510 711.926757812 510 c 1
 783.690429688 520 l 5
 969.690429688 520 1099.64160156 446 1070.37109375 280 c 0
 1035.81152344 84 899 0 632 0 c 2
 0 0 l 1
 5.2900390625 30 l 1
 175.290039062 30 l 1
 344.563476562 990 l 1
209.290039062 30 m 1
 627.290039062 30 l 2
 875.290039062 30 1004.8671875 107 1035.37109375 280 c 0
 1060.5859375 423 948.163085938 500 750.163085938 500 c 2
 292.163085938 500 l 1
 209.290039062 30 l 1
705.453125 530 m 2
 903.453125 530 1030.08398438 647 1051.77148438 770 c 0
 1080.51269531 933 964.563476562 990 746.563476562 990 c 2
 378.563476562 990 l 1
 297.453125 530 l 1
 705.453125 530 l 2
EndSplineSet
EndChar

StartChar: c.sc
Encoding: 1114116 -1 473
Width: 1200
Flags: HMW
AnchorPoint: "Anchor-3" 526 0 basechar 0
AnchorPoint: "Anchor-2" 527 0 basechar 0
AnchorPoint: "Anchor-0" 745.854 1020 basechar 0
LayerCount: 2
Fore
SplineSet
1046.1875 330 m 1
 1074.42480469 320 l 1
 973.390625 144 802.473632812 -20 515.473632812 -20 c 0
 219.473632812 -20 48.91796875 164 109.926757812 510 c 1
 144.926757812 510 l 1
 86.2099609375 177 252.763671875 10 520.763671875 10 c 0
 788.763671875 10 960.796875 186 1046.1875 330 c 1
1099.66601562 690 m 1
 1078.58300781 854 955.08984375 1010 697.08984375 1010 c 0
 449.08984375 1010 200.1171875 823 144.926757812 510 c 5
 109.926757812 510 l 1
 170.935546875 856 436.379882812 1040 702.379882812 1040 c 0
 989.379882812 1040 1104.22558594 886 1131.42871094 700 c 1
 1099.66601562 690 l 1
EndSplineSet
EndChar

StartChar: d.sc
Encoding: 1114117 -1 474
Width: 1200
Flags: HMW
AnchorPoint: "Anchor-2" 433 0 basechar 0
AnchorPoint: "Anchor-0" 613.854 1020 basechar 0
LayerCount: 2
Fore
SplineSet
-40 0 m 1
 -34.7099609375 30 l 1
 165.290039062 30 l 1
 334.563476562 990 l 1
 134.563476562 990 l 1
 139.853515625 1020 l 1
 711.853515625 1020 l 2
 1027.85351562 1020 1168.40917969 836 1110.92675781 510 c 0
 1055.20703125 194 829 -0 532 0 c 2
 -40 0 l 1
199.290039062 30 m 1
 537.290039062 30 l 6
 825.290039062 30 1027.7890625 237 1075.92675781 510 c 0
 1125.82714844 793 1014.56347656 990 706.563476562 990 c 6
 368.563476562 990 l 1
 199.290039062 30 l 1
EndSplineSet
EndChar

StartChar: e.sc
Encoding: 1114118 -1 475
Width: 1200
Flags: HMW
AnchorPoint: "Anchor-3" 876 0 basechar 0
AnchorPoint: "Anchor-2" 466 0 basechar 0
AnchorPoint: "Anchor-0" 673.854 1020 basechar 0
LayerCount: 2
Fore
SplineSet
797.979492188 550 m 1
 791.80859375 515 l 1
 296.690429688 520 l 5
 210.290039062 30 l 1
 953.290039062 30 l 1
 1019.1875 330 l 1
 1038.1875 330 l 1
 980 0 l 1
 -10 0 l 1
 -4.7099609375 30 l 1
 175.290039062 30 l 1
 344.563476562 990 l 1
 164.563476562 990 l 1
 169.853515625 1020 l 1
 1119.85351562 1020 l 1
 1101.66601562 690 l 1
 1082.66601562 690 l 1
 1085.56347656 990 l 1
 379.563476562 990 l 1
 301.098632812 545 l 5
 797.979492188 550 l 1
EndSplineSet
EndChar

StartChar: f.sc
Encoding: 1114119 -1 476
Width: 1200
Flags: HMW
AnchorPoint: "Anchor-2" 296 0 basechar 0
AnchorPoint: "Anchor-0" 703.854 1020 basechar 0
LayerCount: 2
Fore
SplineSet
822.690429688 520 m 1
 817.400390625 490 l 1
 337.282226562 495 l 1
 255.290039062 30 l 1
 674.290039062 30 l 1
 669 0 l 1
 20 0 l 1
 25.2900390625 30 l 1
 225.290039062 30 l 1
 394.563476562 990 l 1
 194.563476562 990 l 1
 199.853515625 1020 l 1
 1149.85351562 1020 l 1
 1131.66601562 690 l 1
 1112.66601562 690 l 1
 1115.56347656 990 l 5
 424.563476562 990 l 1
 340.80859375 515 l 1
 822.690429688 520 l 1
EndSplineSet
EndChar

StartChar: g.sc
Encoding: 1114120 -1 477
Width: 1200
Flags: HMW
AnchorPoint: "Anchor-2" 557 0 basechar 0
AnchorPoint: "Anchor-0" 700.854 1020 basechar 0
LayerCount: 2
Fore
SplineSet
989.110351562 460 m 1
 1009.11035156 460 l 1
 958.077148438 284 762.473632812 -20 475.473632812 -20 c 0
 259.473632812 -20 48.91796875 164 109.926757812 510 c 1
 144.926757812 510 l 1
 86.2099609375 177 282.763671875 10 480.763671875 10 c 0
 748.763671875 10 959.008789062 346 989.110351562 460 c 1
1100.60742188 684 m 5
 1064.22851562 869 935.08984375 1010 697.08984375 1010 c 0
 469.08984375 1010 198.353515625 813 144.926757812 510 c 1
 109.926757812 510 l 1
 170.935546875 856 456.379882812 1040 702.379882812 1040 c 0
 969.379882812 1040 1104.22558594 886 1131.42871094 700 c 1
 1100.60742188 684 l 5
623.400390625 490 m 1
 1043.40039062 490 l 1
 957 0 l 1
 937 0 l 1
 989.110351562 460 l 1
 618.110351562 460 l 1
 623.400390625 490 l 1
EndSplineSet
EndChar

StartChar: h.sc
Encoding: 1114121 -1 478
Width: 1200
Flags: HMW
AnchorPoint: "Anchor-2" 516 0 basechar 0
AnchorPoint: "Anchor-0" 695.854 1020 basechar 0
LayerCount: 2
Fore
SplineSet
957.690429688 520 m 5
 265.690429688 520 l 1
 179.290039062 30 l 1
 363.290039062 30 l 1
 358 0 l 1
 -40 0 l 1
 -34.7099609375 30 l 1
 145.290039062 30 l 1
 314.563476562 990 l 1
 134.563476562 990 l 1
 139.853515625 1020 l 1
 537.853515625 1020 l 1
 532.563476562 990 l 1
 348.563476562 990 l 1
 270.979492188 550 l 1
 962.979492188 550 l 5
 1040.56347656 990 l 5
 856.563476562 990 l 1
 861.853515625 1020 l 1
 1259.85351562 1020 l 1
 1254.56347656 990 l 1
 1074.56347656 990 l 5
 905.290039062 30 l 5
 1085.29003906 30 l 1
 1080 0 l 1
 682 0 l 1
 687.290039062 30 l 1
 871.290039062 30 l 5
 957.690429688 520 l 5
EndSplineSet
EndChar

StartChar: i.sc
Encoding: 1114122 -1 479
Width: 1200
Flags: HMW
AnchorPoint: "Anchor-3" 522 0 basechar 0
AnchorPoint: "Anchor-2" 522 0 basechar 0
AnchorPoint: "Anchor-0" 685.854 1020 basechar 0
LayerCount: 2
Fore
SplineSet
70 0 m 1
 75.2900390625 30 l 1
 508.290039062 30 l 1
 677.563476562 990 l 1
 254.563476562 990 l 1
 259.853515625 1020 l 1
 1139.85351562 1020 l 1
 1134.56347656 990 l 1
 711.563476562 990 l 5
 542.290039062 30 l 5
 975.290039062 30 l 1
 970 0 l 1
 70 0 l 1
EndSplineSet
EndChar

StartChar: j.sc
Encoding: 1114123 -1 480
Width: 1200
Flags: HMW
AnchorPoint: "Anchor-2" 418 0 basechar 0
AnchorPoint: "Anchor-0" 825.854 1020 basechar 0
LayerCount: 2
Fore
SplineSet
81.71484375 350 m 1
 111.71484375 350 l 1
 87.68359375 157 202.763671875 10 420.763671875 10 c 0
 618.763671875 10 774.7578125 177.000976562 819.8203125 430 c 6
 919.563476562 990 l 5
 525.563476562 990 l 1
 530.853515625 1020 l 1
 1219.85351562 1020 l 1
 1214.56347656 990 l 1
 954.563476562 990 l 5
 854.8203125 430 l 6
 809.680664062 174 651.473632812 -20 415.473632812 -20 c 0
 169.473632812 -20 55.390625 144 81.71484375 350 c 1
EndSplineSet
EndChar

StartChar: k.sc
Encoding: 1114124 -1 481
Width: 1200
Flags: HMW
AnchorPoint: "Anchor-2" 581 0 basechar 0
AnchorPoint: "Anchor-0" 725.854 1020 basechar 0
LayerCount: 2
Fore
SplineSet
760.853515625 1020 m 1
 1239.85351562 1020 l 1
 1234.56347656 990 l 1
 1086.56347656 990 l 1
 640.912109375 612 l 1
 960.290039062 30 l 1
 1105.29003906 30 l 1
 1100 0 l 1
 631 0 l 1
 636.290039062 30 l 1
 921.290039062 30 l 1
 609.033203125 590 l 1
 269.661132812 310 l 1
 220.290039062 30 l 1
 454.290039062 30 l 1
 449 0 l 1
 -10 0 l 1
 -4.7099609375 30 l 1
 185.290039062 30 l 1
 354.563476562 990 l 1
 164.563476562 990 l 1
 169.853515625 1020 l 1
 608.853515625 1020 l 1
 603.563476562 990 l 1
 389.563476562 990 l 1
 277.419921875 354 l 1
 1041.56347656 990 l 5
 755.563476562 990 l 1
 760.853515625 1020 l 1
EndSplineSet
EndChar

StartChar: l.sc
Encoding: 1114125 -1 482
Width: 1200
Flags: HMW
AnchorPoint: "Anchor-2" 536 0 basechar 0
AnchorPoint: "Anchor-1" 825.905 663 basechar 0
AnchorPoint: "Anchor-0" 443.854 1020 basechar 0
LayerCount: 2
Fore
SplineSet
1094.453125 530 m 1
 1113.453125 530 l 1
 1000 0 l 1
 -10 0 l 1
 -4.7099609375 30 l 1
 235.290039062 30 l 5
 404.563476562 990 l 5
 184.563476562 990 l 1
 189.853515625 1020 l 1
 718.853515625 1020 l 1
 713.563476562 990 l 1
 438.563476562 990 l 5
 269.290039062 30 l 5
 970.290039062 30 l 1
 1094.453125 530 l 1
EndSplineSet
EndChar

StartChar: m.sc
Encoding: 1114126 -1 483
Width: 1200
Flags: HMW
AnchorPoint: "Anchor-2" 526 0 basechar 0
AnchorPoint: "Anchor-0" 702.327 1000 basechar 0
LayerCount: 2
Fore
SplineSet
252.563476562 990 m 1
 94.5634765625 990 l 1
 99.853515625 1020 l 1
 302.853515625 1020 l 1
 590.241210938 370 l 1
 580.241210938 370 l 1
 1096.85351562 1020 l 1
 1299.85351562 1020 l 1
 1294.56347656 990 l 1
 1136.56347656 990 l 1
 983.290039062 30 l 1
 1125.29003906 30 l 1
 1120 0 l 1
 751 0 l 5
 756.290039062 30 l 5
 949.290039062 30 l 1
 1093.39941406 904 l 1
 1121.03222656 1004 l 1
 601.71484375 350 l 1
 561.71484375 350 l 1
 273.032226562 1004 l 1
 265.399414062 904 l 1
 101.290039062 30 l 1
 294.290039062 30 l 1
 289 0 l 1
 -80 0 l 1
 -74.7099609375 30 l 1
 67.2900390625 30 l 1
 252.563476562 990 l 1
EndSplineSet
EndChar

StartChar: n.sc
Encoding: 1114127 -1 484
Width: 1200
Flags: HMW
AnchorPoint: "Anchor-0" 735.854 1020 basechar 0
AnchorPoint: "Anchor-2" 546 0 basechar 0
LayerCount: 2
Fore
SplineSet
314.563476562 990 m 1
 156.563476562 990 l 1
 161.853515625 1020 l 1
 319.853515625 1020 l 1
 314.563476562 990 l 1
319.853515625 1020 m 1
 355.853515625 1020 l 1
 963.58203125 43 l 1
 1139.37988281 1040 l 1
 1173.37988281 1040 l 1
 986.473632812 -20 l 1
 956.473632812 -20 l 1
 399.520507812 882 l 5
 336.327148438 1000 l 1
 323.348632812 847 l 1
 170.473632812 -20 l 1
 136.473632812 -20 l 1
 319.853515625 1020 l 1
EndSplineSet
EndChar

StartChar: o.sc
Encoding: 1114128 -1 485
Width: 1200
Flags: HMW
AnchorPoint: "Anchor-2" 519 0 basechar 0
AnchorPoint: "Anchor-0" 698.854 1020 basechar 0
LayerCount: 2
Fore
SplineSet
515.473632812 -20 m 0
 179.473632812 -20 35.970703125 204 89.9267578125 510 c 0
 142.119140625 806 385.379882812 1040 702.379882812 1040 c 0
 1019.37988281 1040 1181.11914062 806 1128.92675781 510 c 0
 1074.97070312 204 851.473632812 -20 515.473632812 -20 c 0
697.08984375 1010 m 0
 409.08984375 1010 174.827148438 793 124.926757812 510 c 4
 73.2626953125 217 232.763671875 10 520.763671875 10 c 0
 808.763671875 10 1042.26269531 217 1093.92675781 510 c 4
 1143.82714844 793 985.08984375 1010 697.08984375 1010 c 0
EndSplineSet
EndChar

StartChar: p.sc
Encoding: 1114129 -1 486
Width: 1200
Flags: HMW
AnchorPoint: "Anchor-2" 282 0 basechar 0
AnchorPoint: "Anchor-0" 665.854 1020 basechar 0
LayerCount: 2
Fore
SplineSet
20 0 m 1
 25.2900390625 30 l 1
 225.290039062 30 l 5
 394.563476562 990 l 5
 194.563476562 990 l 1
 199.853515625 1020 l 1
 811.853515625 1020 l 2
 1078.85351562 1020 1202.515625 916 1160.90234375 680 c 0
 1121.05273438 454 941.71484375 350 693.71484375 350 c 2
 315.71484375 350 l 5
 259.290039062 30 l 5
 594.290039062 30 l 1
 589 0 l 1
 20 0 l 1
321.00390625 380 m 5
 699.00390625 380 l 2
 928.00390625 380 1090.10839844 477 1125.90234375 680 c 0
 1163.45996094 893 1055.56347656 990 806.563476562 990 c 2
 428.563476562 990 l 5
 321.00390625 380 l 5
EndSplineSet
EndChar

StartChar: q.sc
Encoding: 1114130 -1 487
Width: 1200
Flags: HMW
AnchorPoint: "Anchor-0" 698.854 1020 basechar 0
LayerCount: 2
Fore
SplineSet
569.951171875 340 m 1
 589.951171875 340 l 1
 540 0 l 1
 492.1015625 -300 l 1
 442.1015625 -300 l 5
 500 0 l 1
 569.951171875 340 l 1
515.473632812 -20 m 0
 179.473632812 -20 35.970703125 204 89.9267578125 510 c 0
 142.119140625 806 385.379882812 1040 702.379882812 1040 c 0
 1019.37988281 1040 1181.11914062 806 1128.92675781 510 c 0
 1074.97070312 204 851.473632812 -20 515.473632812 -20 c 0
697.08984375 1010 m 0
 409.08984375 1010 173.064453125 783 124.926757812 510 c 0
 73.2626953125 217 222.763671875 10 520.763671875 10 c 0
 818.763671875 10 1042.26269531 217 1093.92675781 510 c 0
 1142.06445312 783 995.08984375 1010 697.08984375 1010 c 0
EndSplineSet
EndChar

StartChar: r.sc
Encoding: 1114131 -1 488
Width: 1200
Flags: HMW
AnchorPoint: "Anchor-2" 506 0 basechar 0
AnchorPoint: "Anchor-0" 705.854 1020 basechar 0
LayerCount: 2
Fore
SplineSet
677.518554688 485 m 1
 800.80078125 435.736328125 815.799804688 310.405273438 830.6015625 223 c 0
 842.791992188 151.009765625 844.637695312 -10 939.236328125 -10 c 0
 1042.23632812 -10 1094.10644531 80 1121.68847656 123 c 1
 1140.39550781 110 l 1
 1096.99511719 34 1039.94726562 -40 933.947265625 -40 c 0
 827.077148438 -40 818.4609375 73.802734375 801.956054688 208 c 4
 788.053710938 321.041015625 754.416015625 435.928710938 663.9921875 465 c 1
 677.518554688 485 l 1
693.9921875 465 m 1
 693.110351562 460 l 1
 305.110351562 460 l 1
 229.290039062 30 l 1
 514.290039062 30 l 1
 509 0 l 1
 20 0 l 1
 25.2900390625 30 l 1
 195.290039062 30 l 1
 364.563476562 990 l 1
 194.563476562 990 l 1
 199.853515625 1020 l 1
 791.853515625 1020 l 2
 1058.85351562 1020 1177.80566406 946 1139.71875 730 c 0
 1103.39550781 524 941.9921875 465 693.9921875 465 c 1
310.400390625 490 m 1
 698.400390625 490 l 2
 927.400390625 490 1077.45117188 547 1109.71875 730 c 0
 1143.75 923 1035.56347656 990 786.563476562 990 c 2
 398.563476562 990 l 1
 310.400390625 490 l 1
EndSplineSet
EndChar

StartChar: s.sc
Encoding: 1114132 -1 489
Width: 1200
Flags: HMW
AnchorPoint: "Anchor-3" 556 0 basechar 0
AnchorPoint: "Anchor-2" 555 0 basechar 0
AnchorPoint: "Anchor-0" 705.854 1020 basechar 0
LayerCount: 2
Fore
SplineSet
1125.34667969 864 m 1
 1100.11425781 840 l 1
 1032.98632812 913 909.08984375 1010 681.08984375 1010 c 0
 500.08984375 1010 299.571289062 939 274.1796875 795 c 0
 239.97265625 601 467.09375 579 639.040039062 539 c 0
 865.391601562 486.34375 1082.88085938 419 1049.73144531 231 c 0
 1019.75585938 61 806.004882812 -34 534.004882812 -34 c 0
 297.004882812 -34 122.6953125 72 41.033203125 176 c 1
 65.44140625 201 l 1
 146.575195312 94 327.294921875 -4 539.294921875 -4 c 0
 781.294921875 -4 988.458984375 82 1014.73144531 231 c 0
 1042.23828125 387 841.389648438 456.567382812 623.221679688 506 c 0
 449.1015625 545.452148438 199.330078125 569 239.1796875 795 c 0
 270.389648438 972 480.379882812 1040 686.379882812 1040 c 0
 932.379882812 1040 1065.68945312 934 1125.34667969 864 c 1
EndSplineSet
EndChar

StartChar: t.sc
Encoding: 1114133 -1 490
Width: 1200
Flags: HMW
AnchorPoint: "Anchor-3" 521 0 basechar 0
AnchorPoint: "Anchor-0" 698.854 1020 basechar 0
AnchorPoint: "Anchor-2" 519 0 basechar 0
LayerCount: 2
Fore
SplineSet
107.743164062 560 m 1
 88.7431640625 560 l 1
 169.853515625 1020 l 1
 1229.85351562 1020 l 1
 1148.74316406 560 l 1
 1129.74316406 560 l 1
 1189.56347656 990 l 1
 706.563476562 990 l 5
 537.290039062 30 l 5
 834.290039062 30 l 1
 829 0 l 1
 200 0 l 1
 205.290039062 30 l 1
 502.290039062 30 l 1
 671.563476562 990 l 1
 199.563476562 990 l 1
 107.743164062 560 l 1
EndSplineSet
EndChar

StartChar: u.sc
Encoding: 1114134 -1 491
Width: 1200
Flags: HMW
AnchorPoint: "Anchor-0" 698.854 1020 basechar 0
AnchorPoint: "Anchor-2" 519 0 basechar 0
AnchorPoint: "Anchor-3" 725.106 80 basechar 0
LayerCount: 2
Fore
SplineSet
165.8203125 430 m 2
 264.563476562 990 l 1
 134.563476562 990 l 1
 139.853515625 1020 l 1
 598.853515625 1020 l 1
 593.563476562 990 l 1
 299.563476562 990 l 1
 200.8203125 430 l 6
 159.736328125 197 262.763671875 10 520.763671875 10 c 4
 778.763671875 10 948.3203125 197.000976562 989.8203125 430 c 6
 1089.56347656 990 l 1
 795.563476562 990 l 1
 800.853515625 1020 l 1
 1259.85351562 1020 l 1
 1254.56347656 990 l 1
 1124.56347656 990 l 1
 1024.8203125 430 l 2
 979.680664062 174 801.473632812 -20 515.473632812 -20 c 0
 229.473632812 -20 120.680664062 174 165.8203125 430 c 2
EndSplineSet
EndChar

StartChar: v.sc
Encoding: 1114135 -1 492
Width: 1200
Flags: HMW
AnchorPoint: "Anchor-0" 698.854 1020 basechar 0
AnchorPoint: "Anchor-2" 519 0 basechar 0
LayerCount: 2
Fore
SplineSet
1070.56347656 990 m 1
 845.563476562 990 l 5
 850.853515625 1020 l 5
 1269.85351562 1020 l 1
 1264.56347656 990 l 1
 1107.56347656 990 l 1
 566.473632812 -20 l 1
 466.473632812 -20 l 1
 281.563476562 990 l 1
 124.563476562 990 l 1
 129.853515625 1020 l 1
 548.853515625 1020 l 1
 543.563476562 990 l 1
 317.563476562 990 l 1
 501.763671875 10 l 1
 541.763671875 10 l 1
 1070.56347656 990 l 1
EndSplineSet
EndChar

StartChar: w.sc
Encoding: 1114136 -1 493
Width: 1200
Flags: HMW
AnchorPoint: "Anchor-0" 698.854 1020 basechar 0
AnchorPoint: "Anchor-2" 519 0 basechar 0
LayerCount: 2
Fore
SplineSet
247.563476562 990 m 1
 223.849609375 226 l 1
 207.290039062 30 l 1
 237.290039062 30 l 1
 611.955078125 720 l 1
 681.955078125 720 l 1
 813.290039062 30 l 1
 843.290039062 30 l 1
 895.849609375 226 l 5
 1141.56347656 990 l 5
 825.563476562 990 l 1
 830.853515625 1020 l 1
 1289.85351562 1020 l 1
 1284.56347656 990 l 1
 1174.56347656 990 l 1
 855 0 l 1
 782 0 l 1
 651.666015625 690 l 1
 631.666015625 690 l 1
 258 0 l 1
 185 0 l 1
 214.563476562 990 l 1
 104.563476562 990 l 1
 109.853515625 1020 l 1
 558.853515625 1020 l 1
 553.563476562 990 l 1
 247.563476562 990 l 1
EndSplineSet
EndChar

StartChar: x.sc
Encoding: 1114137 -1 494
Width: 1200
Flags: HMW
AnchorPoint: "Anchor-0" 698.854 1020 basechar 0
AnchorPoint: "Anchor-2" 519 0 basechar 0
LayerCount: 2
Fore
SplineSet
179.853515625 1020 m 1
 628.853515625 1020 l 1
 623.563476562 990 l 1
 363.563476562 990 l 1
 617.33203125 552 l 1
 1025.56347656 990 l 1
 765.563476562 990 l 1
 770.853515625 1020 l 1
 1219.85351562 1020 l 1
 1214.56347656 990 l 1
 1065.56347656 990 l 1
 637.571289062 525 l 1
 936.290039062 30 l 1
 1085.29003906 30 l 1
 1080 0 l 1
 611 0 l 1
 616.290039062 30 l 1
 896.290039062 30 l 1
 608.33984375 501 l 5
 154.290039062 30 l 1
 434.290039062 30 l 1
 429 0 l 1
 -40 0 l 1
 -34.7099609375 30 l 1
 114.290039062 30 l 1
 587.395507812 524 l 1
 323.563476562 990 l 1
 174.563476562 990 l 1
 179.853515625 1020 l 1
EndSplineSet
EndChar

StartChar: y.sc
Encoding: 1114138 -1 495
Width: 1200
Flags: HMW
AnchorPoint: "Anchor-0" 698.854 1020 basechar 0
AnchorPoint: "Anchor-2" 519 0 basechar 0
LayerCount: 2
Fore
SplineSet
240 0 m 1
 245.290039062 30 l 1
 507.290039062 30 l 1
 569.00390625 380 l 1
 298.563476562 990 l 1
 124.563476562 990 l 1
 129.853515625 1020 l 1
 547.853515625 1020 l 5
 542.563476562 990 l 5
 338.563476562 990 l 1
 596.293945312 410 l 1
 587.293945312 410 l 1
 1050.56347656 990 l 1
 864.563476562 990 l 1
 869.853515625 1020 l 1
 1269.85351562 1020 l 1
 1264.56347656 990 l 1
 1090.56347656 990 l 1
 604.00390625 380 l 1
 542.290039062 30 l 1
 794.290039062 30 l 1
 789 0 l 1
 240 0 l 1
EndSplineSet
EndChar

StartChar: z.sc
Encoding: 1114139 -1 496
Width: 1200
Flags: HMW
AnchorPoint: "Anchor-0" 708.854 1020 basechar 0
AnchorPoint: "Anchor-2" 529 0 basechar 0
LayerCount: 2
Fore
SplineSet
1032.11035156 460 m 1
 1051.11035156 460 l 1
 930 0 l 1
 60 0 l 1
 53.5263671875 20 l 1
 1013.93066406 890 l 1
 270.930664062 890 l 1
 190.690429688 520 l 1
 171.690429688 520 l 1
 242.220703125 920 l 1
 1062.22070312 920 l 1
 1068.69433594 900 l 1
 108.290039062 30 l 5
 908.290039062 30 l 1
 1032.11035156 460 l 1
EndSplineSet
EndChar

StartChar: ae.sc
Encoding: 1114146 -1 503
Width: 1200
Flags: HMW
LayerCount: 2
Fore
SplineSet
230.853515625 1020 m 1
 579.853515625 1020 l 1
 575.4453125 995 l 1
 224.681640625 985 l 1
 230.853515625 1020 l 1
-76.5263671875 -20 m 1
 -116.526367188 -20 l 1
 579.853515625 1020 l 1
 793.853515625 1020 l 1
 598.916015625 992 l 1
 -76.5263671875 -20 l 1
179.53125 400 m 1
 602.53125 400 l 1
 597.241210938 370 l 1
 174.241210938 370 l 1
 179.53125 400 l 1
1028.50878906 553 m 1
 1022.69042969 520 l 1
 637.571289062 525 l 1
 550.290039062 30 l 1
 1033.29003906 30 l 1
 1102.71484375 350 l 5
 1121.71484375 350 l 5
 1060 0 l 1
 370 0 l 1
 375.290039062 30 l 1
 515.290039062 30 l 1
 689.853515625 1020 l 1
 1199.85351562 1020 l 1
 1186.95507812 720 l 1
 1167.95507812 720 l 1
 1165.56347656 990 l 1
 719.563476562 990 l 1
 641.626953125 548 l 1
 1028.50878906 553 l 1
EndSplineSet
EndChar

StartChar: oslash.sc
Encoding: 1114163 -1 520
Width: 1200
VWidth: 0
Flags: HMW
LayerCount: 2
Fore
SplineSet
866 1111 m 5
 896 1091 l 5
 311 -52 l 1
 281 -32 l 1
 866 1111 l 5
EndSplineSet
Refer: 485 -1 N 1 0 0 1 0.35385 0 2
EndChar

StartChar: hbar.sc
Encoding: 1114188 -1 545
Width: 1200
Flags: HMW
LayerCount: 2
Fore
SplineSet
936.110351562 460 m 1
 266.110351562 460 l 1
 190.290039062 30 l 1
 413.290039062 30 l 1
 408 0 l 1
 -40 0 l 1
 -34.7099609375 30 l 1
 155.290039062 30 l 1
 324.563476562 990 l 1
 134.563476562 990 l 1
 139.853515625 1020 l 1
 587.853515625 1020 l 1
 582.563476562 990 l 1
 359.563476562 990 l 1
 271.400390625 490 l 1
 941.400390625 490 l 1
 1029.56347656 990 l 1
 806.563476562 990 l 5
 811.853515625 1020 l 5
 1259.85351562 1020 l 1
 1254.56347656 990 l 1
 1064.56347656 990 l 1
 895.290039062 30 l 1
 1085.29003906 30 l 1
 1080 0 l 1
 632 0 l 5
 637.290039062 30 l 5
 860.290039062 30 l 1
 936.110351562 460 l 1
98.2978515625 790 m 1
 1220.29785156 790 l 1
 1215.00878906 760 l 1
 93.0087890625 760 l 1
 98.2978515625 790 l 1
EndSplineSet
EndChar

StartChar: ij.sc
Encoding: 1114194 -1 551
Width: 1200
Flags: HMW
LayerCount: 2
Fore
SplineSet
10 0 m 1
 15.2900390625 30 l 1
 240.290039062 30 l 1
 409.563476562 990 l 5
 194.563476562 990 l 5
 199.853515625 1020 l 5
 659.853515625 1020 l 5
 654.563476562 990 l 5
 439.563476562 990 l 5
 270.290039062 30 l 1
 495.290039062 30 l 1
 490 0 l 1
 10 0 l 1
608.763671875 10 m 1
 846.763671875 10 961.68359375 187 1004.8203125 430 c 2
 1104.56347656 990 l 5
 775.563476562 990 l 5
 780.853515625 1020 l 5
 1139.85351562 1020 l 5
 1034.8203125 430 l 2
 989.680664062 174 871.473632812 -20 605.473632812 -20 c 1
 608.763671875 10 l 1
EndSplineSet
EndChar

StartChar: lcaron.sc
Encoding: 1114199 -1 556
Width: 1200
VWidth: 0
Flags: HMW
LayerCount: 2
Fore
SplineSet
797 450 m 1
 967 1060 l 5
 1007 1060 l 1
 817 450 l 1
 797 450 l 1
EndSplineSet
Refer: 482 -1 N 1 0 0 1 0 0 2
EndChar

StartChar: ldot.sc
Encoding: 1114200 -1 557
Width: 1200
Flags: HMW
LayerCount: 2
Fore
SplineSet
880.120117188 840 m 4
 880.120117188 872.33984375 902.66015625 894.879882812 935 894.879882812 c 4
 967.33984375 894.879882812 989.879882812 872.33984375 989.879882812 840 c 4
 989.879882812 807.66015625 969.299804688 785.120117188 936.959960938 785.120117188 c 4
 904.620117188 785.120117188 880.120117188 807.66015625 880.120117188 840 c 4
EndSplineSet
Refer: 482 -1 N 1 0 0 1 0 0 3
EndChar

StartChar: lslash.sc
Encoding: 1114201 -1 558
Width: 1200
VWidth: 0
Flags: HMW
LayerCount: 2
Fore
SplineSet
49 467 m 261
 39 497 l 257
 730 753 l 257
 740 723 l 261
 49 467 l 261
EndSplineSet
Refer: 482 -1 N 1 0 0 1 0 0 2
EndChar

StartChar: eng.sc
Encoding: 1114205 -1 562
Width: 1200
Flags: HMW
LayerCount: 2
Fore
SplineSet
908 0 m 1
 864.624023438 -246 783.416015625 -440 476.416015625 -440 c 1
 482.587890625 -405 l 1
 770.587890625 -405 833.678710938 -223 873 0 c 1
 908 0 l 1
344.563476562 990 m 5
 134.563476562 990 l 5
 139.853515625 1020 l 5
 349.853515625 1020 l 5
 344.563476562 990 l 5
1026.13867188 670 m 6
 908 0 l 1
 873 0 l 1
 992.90234375 680 l 6
 1032.22363281 903 944.08984375 1010 766.08984375 1010 c 4
 545.08984375 1010 350.1171875 823 309.033203125 590 c 6
 205 0 l 1
 170 0 l 1
 349.853515625 1020 l 5
 374.853515625 1020 l 5
 328.428710938 700 l 5
 290.795898438 600 l 5
 330.646484375 826 504.379882812 1040 781.379882812 1040 c 4
 958.379882812 1040 1073.04199219 936 1026.13867188 670 c 6
EndSplineSet
EndChar

StartChar: oe.sc
Encoding: 1114209 -1 566
Width: 1200
Flags: HMW
LayerCount: 2
Fore
SplineSet
689.853515625 1020 m 1
 684.563476562 990 l 1
 406.563476562 990 202.169921875 863 139.926757812 510 c 0
 79.4462890625 167 217.290039062 30 515.290039062 30 c 1
 510 0 l 1
 194 0 47.154296875 154 109.926757812 510 c 0
 174.462890625 876 392.853515625 1020 689.853515625 1020 c 1
1028.86132812 555 m 1
 1022.69042969 520 l 5
 637.571289062 525 l 1
 550.290039062 30 l 1
 1033.29003906 30 l 1
 1090.37109375 280 l 1
 1109.37109375 280 l 1
 1060 0 l 1
 510 0 l 1
 689.853515625 1020 l 1
 1199.85351562 1020 l 1
 1190.48242188 740 l 1
 1171.48242188 740 l 1
 1155.56347656 990 l 1
 719.563476562 990 l 1
 641.098632812 545 l 1
 1028.86132812 555 l 1
EndSplineSet
EndChar

StartChar: tbar.sc
Encoding: 1114219 -1 576
Width: 1200
VWidth: 0
Flags: HMW
LayerCount: 2
Fore
SplineSet
285 537 m 1
 905 537 l 1
 900 508 l 5
 280 508 l 5
 285 537 l 1
EndSplineSet
Refer: 490 -1 N 1 0 0 1 0 0 2
EndChar

StartChar: zero.alt
Encoding: 1114235 -1 592
Width: 1200
Flags: HW
HStem: -20 30<480.729 717.331> 1290 30<487.026 711.034>
VStem: 120 35<427.279 853.169> 1044 35<427.279 853.169>
LayerCount: 2
Fore
SplineSet
515.473632812 -20 m 0
 219.473632812 -20 67.154296875 154 154.612304688 650 c 0
 236.78125 1116 474.751953125 1320 751.751953125 1320 c 0
 1028.75195312 1320 1195.78125 1116 1113.61230469 650 c 0
 1026.15429688 154 811.473632812 -20 515.473632812 -20 c 0
746.461914062 1290 m 4
 498.461914062 1290 267.725585938 1093 189.612304688 650 c 0
 106.209960938 177 252.763671875 10 520.763671875 10 c 4
 788.763671875 10 995.209960938 177 1078.61230469 650 c 0
 1156.72558594 1093 994.461914062 1290 746.461914062 1290 c 4
EndSplineSet
EndChar

StartChar: one.alt
Encoding: 1114236 -1 593
Width: 1200
Flags: HW
HStem: 0 30<180 637 671 1080> 1270 30<190 637>
VStem: 637 34<30 1268>
LayerCount: 2
Fore
SplineSet
100 0 m 1
 105.290039062 30 l 1
 562.290039062 30 l 5
 780.583007812 1268 l 5
 333.935546875 1270 l 1
 339.224609375 1300 l 1
 820.224609375 1300 l 5
 596.290039062 30 l 5
 1005.29003906 30 l 1
 1000 0 l 1
 100 0 l 1
EndSplineSet
EndChar

StartChar: germandbls.sc
Encoding: 1114237 -1 594
Width: 1200
Flags: HW
LayerCount: 2
Fore
SplineSet
-10 0 m 1
 -4.7099609375 30 l 1
 155.290039062 30 l 1
 254.795898438 600 l 2
 298.172851562 846 435.379882812 1040 742.379882812 1040 c 1
 737.08984375 1010 l 1
 449.08984375 1010 326.590820312 803 290.795898438 600 c 2
 190.290039062 30 l 1
 395.290039062 30 l 1
 390 0 l 1
 -10 0 l 1
742.379882812 1040 m 1
 970.379882812 1040 1091.16015625 931 1147.88574219 799 c 1
 661.33203125 552 l 1
 736.009765625 507.587890625 1119.75488281 457.982421875 1084.13964844 256 c 0
 1058.57226562 111 915.649414062 -19 697.649414062 -19 c 0
 643.649414062 -19 564.413085938 -9 504.055664062 23 c 1
 523.874023438 56 l 5
 569.055664062 23 664.939453125 11 702.939453125 11 c 0
 902.939453125 11 1032.80371094 135 1054.13964844 256 c 0
 1085.28808594 432.649414062 716.604492188 479.18359375 579.451171875 547 c 1
 1099.47265625 808 l 1
 1056.75195312 906 920.08984375 1010 737.08984375 1010 c 1
 742.379882812 1040 l 1
EndSplineSet
EndChar

StartChar: uni0311
Encoding: 785 785 595
Width: 1200
VWidth: 0
Flags: W
HStem: 1310 30<-698.706 -509.094>
VStem: -850 30<1070 1189.22> -388 30<1070 1189.22>
AnchorPoint: "Anchor-0" -604 920 mark 0
LayerCount: 2
Fore
SplineSet
-358 1060 m 257
 -388 1070 l 257
 -378 1202 -434 1310 -604 1310 c 256
 -773 1310 -830 1202 -820 1070 c 257
 -850 1060 l 257
 -860 1228 -794 1340 -604 1340 c 256
 -414 1340 -348 1228 -358 1060 c 257
EndSplineSet
EndChar
